M48
INCH,LZ
;FILE_FORMAT=2:4
;TYPE=PLATED
;Layer: PTH_Through
;EasyEDA v6.5.22, 2023-03-20 16:50:00
;bf72e243e8a245ba8743e2d89751b4a0,10
;Gerber Generator version 0.2
;Holesize 1 = 0.0240 inch
T01C0.0240
;Holesize 2 = 0.0350 inch
T02C0.0350
;Holesize 3 = 0.0390 inch
T03C0.0390
;Holesize 4 = 0.0410 inch
T04C0.0410
;Holesize 5 = 0.0430 inch
T05C0.0430
;Holesize 6 = 0.0510 inch
T06C0.0510
;Holesize 7 = 0.0550 inch
T07C0.0550
;Holesize 8 = 0.0950 inch
T08C0.0950
;Holesize 9 = 0.1020 inch
T09C0.1020
%
G05
G90
T01
X032382Y-003346G85X032382Y-002953
X037697Y-003346G85X037697Y-002953
T02
X014764Y-002460
X014370Y-003445
X013190Y-002460
X013582Y-003445
X013977Y-002460
X012795Y-003445
T03
X030089Y-003138
X031089Y-003138
T04
X028139Y-005138
X027139Y-005138
X028139Y-004138
X027139Y-004138
X028139Y-003138
X027139Y-003138
T05
X004035Y-004470
X003051Y-004470
X003051Y-005258
X004035Y-005258
T06
X001122Y-026398
X002500Y-026398
X003878Y-026398
X005256Y-026398
T07
X028681Y-026398
X030059Y-026398
X031437Y-026398
X032815Y-026398
X034193Y-026398
X035571Y-026398
X036949Y-026398
X038327Y-026398
X017657Y-026398
X019035Y-026398
X020413Y-026398
X021791Y-026398
X023169Y-026398
X024547Y-026398
X025925Y-026398
X027303Y-026398
X006634Y-026398
X008012Y-026398
X009390Y-026398
X010768Y-026398
X012146Y-026398
X013524Y-026398
X014901Y-026398
X016279Y-026398
T08
X005951Y-003404
X001135Y-003404
T09
X033622Y-005512
X036457Y-005512
M30
