M48
INCH,LZ
;FILE_FORMAT=2:4
;TYPE=PLATED
;Layer: PTH_Through_Via
;EasyEDA v6.5.22, 2023-03-20 16:50:00
;bf72e243e8a245ba8743e2d89751b4a0,10
;Gerber Generator version 0.2
;Holesize 1 = 0.0120 inch
T01C0.0120
;Holesize 2 = 0.0120 inch
T02C0.0120
%
G05
G90
T01
X032950Y-011350
X032739Y-014938
X027189Y-010339
X025739Y-009588
X033150Y-013400
X029860Y-012238
X010539Y-009688
X010039Y-009688
X007039Y-014938
X007039Y-015438
X005539Y-015438
X006039Y-015438
X006539Y-015438
X006539Y-014938
X006039Y-014938
X005539Y-014938
X019539Y-008988
X023989Y-013288
X023439Y-010550
X023439Y-010038
X017839Y-012638
X022589Y-010538
X024139Y-010888
X024896Y-012595
X022639Y-010038
X024139Y-008959
X018339Y-012638
X024989Y-011888
X025689Y-012588
X018839Y-012638
X023739Y-009388
X037489Y-017588
X032689Y-016788
X032939Y-018588
X027339Y-018088
X027189Y-016788
X021739Y-016788
X021939Y-018588
X010289Y-016188
X015789Y-016238
X016439Y-018538
X010889Y-018088
X002609Y-020458
X002609Y-019958
X002109Y-020958
X002109Y-020458
X002109Y-019958
X001609Y-021458
X001609Y-020958
X001609Y-020458
X001609Y-019958
X001109Y-021458
X001109Y-020958
X001109Y-020458
X001109Y-019958
X000609Y-021458
X000609Y-020958
X000609Y-020458
X032450Y-011350
X010939Y-009488
X010289Y-008488
X010039Y-012738
X009539Y-012738
X024839Y-005788
X024089Y-005938
X023839Y-004438
X024589Y-007338
X024139Y-007338
X023689Y-007338
X019739Y-010288
X028189Y-011838
X026039Y-014738
X026389Y-014488
X026689Y-014038
X026189Y-014038
X006939Y-016238
X008839Y-015788
X012489Y-016188
X013339Y-015638
X021339Y-014238
X019839Y-013938
X020339Y-013938
X020839Y-013938
X018839Y-016938
X017989Y-016238
X024339Y-016888
X023439Y-016238
X028489Y-015888
X022339Y-012639
X022339Y-011888
X013439Y-008988
X012539Y-009488
X006989Y-020938
X027689Y-010338
X026689Y-010588
X026389Y-005888
X027539Y-006488
X027039Y-005888
X007089Y-017388
X021839Y-012638
X021839Y-011888
X017039Y-012641
X017039Y-011891
X017250Y-001400
X024489Y-003788
X023089Y-004238
X020139Y-007638
X027839Y-008688
X024589Y-010488
X021089Y-008488
X018089Y-010538
X018339Y-008038
X019689Y-007188
X005289Y-018138
X005289Y-016788
X004639Y-018588
X004589Y-019838
X004889Y-022588
X002039Y-022088
X002289Y-024838
X003789Y-018838
X019989Y-004138
X018589Y-005588
X008389Y-012988
X008389Y-013388
X008389Y-012588
X034939Y-020038
X034939Y-020388
X034939Y-020738
X035539Y-020738
X035539Y-020388
X035539Y-020038
X036089Y-020738
X036089Y-020388
X036089Y-020038
X029439Y-020038
X029439Y-020388
X029439Y-020738
X030039Y-020738
X030039Y-020388
X030039Y-020038
X030589Y-020738
X030589Y-020388
X030589Y-020038
X023939Y-020038
X023939Y-020388
X023939Y-020738
X024539Y-020738
X024539Y-020388
X024539Y-020038
X025089Y-020738
X025089Y-020388
X025089Y-020038
X018439Y-020038
X018439Y-020388
X018439Y-020738
X019039Y-020738
X019039Y-020388
X019039Y-020038
X019589Y-020738
X019589Y-020388
X019589Y-020038
X012939Y-020038
X012939Y-020388
X012939Y-020738
X013539Y-020738
X013539Y-020388
X013539Y-020038
X014089Y-020738
X014089Y-020388
X014089Y-020038
X008639Y-020038
X008639Y-020388
X008639Y-020738
X008039Y-020038
X008039Y-020388
X008039Y-020738
X007489Y-020738
X007489Y-020038
X007489Y-020388
X035539Y-022088
X030039Y-022088
X024539Y-022088
X019039Y-022088
X013539Y-022088
X008039Y-022088
X007239Y-018688
X008039Y-018688
X034739Y-018688
X035539Y-018688
X029239Y-018688
X030039Y-018688
X023739Y-018688
X024539Y-018688
X018239Y-018688
X019039Y-018688
X012739Y-018688
X013539Y-018688
T02
X035970Y-010920
X035970Y-010420
X035970Y-009920
X035470Y-010920
X035470Y-010420
X035470Y-009920
X034970Y-011920
X034970Y-011420
X034970Y-010920
X034970Y-010420
X034970Y-009920
X034470Y-010920
X034470Y-010420
X034470Y-009920
X033970Y-010920
X033970Y-010420
X033970Y-009920
X033470Y-010920
X033470Y-010420
X033470Y-009920
X032970Y-010420
X032970Y-009920
X032470Y-010420
X032470Y-009920
X033700Y-003350
X033700Y-002850
X033700Y-002350
X034200Y-002350
X034200Y-002850
X034200Y-003350
X034700Y-003350
X034700Y-002850
X034700Y-002350
X035200Y-002350
X035200Y-002850
X035200Y-003350
X035700Y-003350
X035700Y-002850
X035700Y-002350
X036200Y-002350
X036200Y-002850
X036200Y-003350
X003118Y-012228
X002724Y-012228
X002330Y-012228
X001936Y-012228
X003511Y-012622
X003118Y-012622
X002724Y-012622
X002330Y-012622
X001936Y-012622
X001543Y-012622
X003511Y-013015
X003118Y-013015
X002724Y-013015
X002330Y-013015
X001936Y-013015
X001543Y-013015
X003511Y-013409
X003118Y-013409
X002724Y-013409
X002330Y-013409
X001936Y-013409
X001543Y-013409
X003118Y-013803
X002724Y-013803
X002330Y-013803
X001936Y-013803
M30
