G04 Layer: TopSolderMaskLayer*
G04 EasyEDA v6.5.22, 2023-02-21 10:28:47*
G04 bf72e243e8a245ba8743e2d89751b4a0,10*
G04 Gerber Generator version 0.2*
G04 Scale: 100 percent, Rotated: No, Reflected: No *
G04 Dimensions in inches *
G04 leading zeros omitted , absolute positions ,3 integer and 6 decimal *
%FSLAX36Y36*%
%MOIN*%

%AMMACRO1*1,1,$1,$2,$3*1,1,$1,$4,$5*1,1,$1,0-$2,0-$3*1,1,$1,0-$4,0-$5*20,1,$1,$2,$3,$4,$5,0*20,1,$1,$4,$5,0-$2,0-$3,0*20,1,$1,0-$2,0-$3,0-$4,0-$5,0*20,1,$1,0-$4,0-$5,$2,$3,0*4,1,4,$2,$3,$4,$5,0-$2,0-$3,0-$4,0-$5,$2,$3,0*%
%AMMACRO2*1,1,$1,$2,$3*1,1,$1,$4,$5*20,1,$1,$2,$3,$4,$5,0*%
%ADD10MACRO1,0.004X0.0157X-0.0177X-0.0157X-0.0177*%
%ADD11C,0.0552*%
%ADD12C,0.0749*%
%ADD13MACRO1,0.004X0.0354X0.0354X0.0354X-0.0354*%
%ADD14MACRO1,0.0039X-0.0118X0.0197X0.0118X0.0197*%
%ADD15MACRO1,0.0039X-0.0868X0.0787X0.0868X0.0787*%
%ADD16O,0.051182X0.090552*%
%ADD17C,0.1535*%
%ADD18MACRO1,0.004X0.0354X-0.0354X-0.0354X-0.0354*%
%ADD19MACRO1,0.004X-0.0177X-0.0157X-0.0177X0.0157*%
%ADD20MACRO1,0.004X0.0128X-0.0157X-0.0128X-0.0157*%
%ADD21MACRO1,0.004X0.0098X-0.0157X-0.0098X-0.0157*%
%ADD22MACRO1,0.004X-0.0128X-0.0492X-0.0128X0.0492*%
%ADD23MACRO1,0.004X-0.0098X-0.0315X-0.0098X0.0315*%
%ADD24C,0.0709*%
%ADD25C,0.1457*%
%ADD26C,0.0867*%
%ADD27MACRO1,0.004X-0.065X0.0297X0.065X0.0297*%
%ADD28MACRO1,0.004X-0.1972X0.1993X0.1972X0.1993*%
%ADD29O,0.08335X0.018331*%
%ADD30MACRO2,0.0217X-0.0167X0.0167X0.0167X-0.0167*%
%ADD31MACRO2,0.0217X-0.0167X-0.0167X0.0167X0.0167*%
%ADD32O,0.026597999999999997X0.098016*%
%ADD33MACRO1,0.0039X-0.0433X0.0433X0.0433X0.0433*%
%ADD34C,0.0906*%
%ADD35O,0.027700999999999996X0.081598*%
%ADD36O,0.077425X0.028803000000000002*%
%ADD37MACRO1,0.004X0.0079X0.0276X0.0079X-0.0276*%
%ADD38MACRO1,0.004X-0.0787X0.0522X0.0787X0.0522*%
%ADD39MACRO1,0.004X0.0202X-0.0021X0.0021X-0.0202*%
%ADD40MACRO1,0.004X0.0181X-0.0042X0.0042X-0.0181*%
%ADD41MACRO1,0.004X-0.0223X-0.0271X-0.0223X0.0271*%
%ADD42MACRO1,0.004X0.0223X-0.0271X0.0223X0.0271*%
%ADD43MACRO1,0.004X-0.017X0.0159X0.017X0.0159*%
%ADD44MACRO1,0.004X-0.017X-0.0159X0.017X-0.0159*%
%ADD45MACRO1,0.004X-0.0159X-0.017X-0.0159X0.017*%
%ADD46MACRO1,0.004X0.0159X-0.017X0.0159X0.017*%
%ADD47MACRO1,0.004X0.0159X0.017X0.0159X-0.017*%
%ADD48MACRO1,0.004X-0.0159X0.017X-0.0159X-0.017*%
%ADD49MACRO1,0.004X0.017X-0.0159X-0.017X-0.0159*%
%ADD50MACRO1,0.004X0.017X0.0159X-0.017X0.0159*%
%ADD51MACRO1,0.004X0.0154X0.0069X0.0154X-0.0069*%
%ADD52MACRO1,0.004X-0.0157X-0.0157X-0.0157X0.0157*%
%ADD53MACRO1,0.004X0.0525X-0.05X-0.0525X-0.05*%
%ADD54MACRO1,0.004X0.015X-0.025X-0.015X-0.025*%
%ADD55MACRO1,0.004X0.0138X0.0246X0.0138X-0.0246*%
%ADD56MACRO1,0.004X0.024X0.0179X0.024X-0.0179*%
%ADD57MACRO1,0.004X-0.0596X-0.0752X0.0596X-0.0752*%
%ADD58MACRO1,0.004X-0.0295X0.0267X0.0295X0.0267*%
%ADD59MACRO1,0.004X0.0295X-0.0267X-0.0295X-0.0267*%
%ADD60MACRO1,0.004X0.0266X-0.0278X-0.0266X-0.0278*%
%ADD61MACRO1,0.004X0.0266X0.0278X-0.0266X0.0278*%
%ADD62MACRO1,0.004X-0.0266X0.0278X0.0266X0.0278*%
%ADD63MACRO1,0.004X-0.0266X-0.0278X0.0266X-0.0278*%
%ADD64MACRO1,0.004X-0.0157X0.0177X0.0157X0.0177*%
%ADD65MACRO1,0.004X-0.0237X0.0014X-0.0014X0.0237*%
%ADD66MACRO1,0.004X0.0177X0.0157X0.0177X-0.0157*%
%ADD67C,0.0123*%

%LPD*%
D10*
G01*
X3512433Y-699999D03*
G01*
X3567552Y-699999D03*
D11*
G01*
X1476350Y-246030D03*
G01*
X1437049Y-344529D03*
G01*
X1318950Y-246030D03*
G01*
X1358249Y-344529D03*
G01*
X1397650Y-246030D03*
G01*
X1279549Y-344529D03*
D12*
G01*
X2813940Y-513820D03*
G01*
X2713940Y-513820D03*
G01*
X2813940Y-413820D03*
G01*
X2713940Y-413820D03*
G01*
X2813940Y-313820D03*
D13*
G01*
X2713937Y-313817D03*
D14*
G01*
X3679992Y-1275155D03*
G01*
X3729992Y-1275155D03*
G01*
X3779992Y-1275155D03*
G01*
X3829992Y-1275155D03*
G01*
X3829992Y-1044841D03*
G01*
X3779992Y-1044841D03*
G01*
X3729992Y-1044841D03*
G01*
X3679992Y-1044841D03*
D15*
G01*
X3754992Y-1135982D03*
D16*
G01*
X3238180Y-314960D03*
G01*
X3769679Y-314960D03*
D17*
G01*
X3362200Y-551179D03*
G01*
X3645659Y-551179D03*
D12*
G01*
X3008940Y-313820D03*
D18*
G01*
X3108937Y-313817D03*
D19*
G01*
X3713937Y-1931259D03*
G01*
X3713937Y-1986377D03*
G01*
X3163937Y-1931259D03*
G01*
X3163937Y-1986377D03*
D20*
G01*
X2401698Y-1809249D03*
G01*
X2401698Y-1738386D03*
D21*
G01*
X2433188Y-1809249D03*
G01*
X2433188Y-1738386D03*
G01*
X2464687Y-1809249D03*
G01*
X2464687Y-1738386D03*
D20*
G01*
X2496178Y-1809249D03*
G01*
X2496178Y-1738386D03*
G01*
X1851698Y-1809249D03*
G01*
X1851698Y-1738386D03*
D21*
G01*
X1883188Y-1809249D03*
G01*
X1883188Y-1738386D03*
G01*
X1914687Y-1809249D03*
G01*
X1914687Y-1738386D03*
D20*
G01*
X1946178Y-1809249D03*
G01*
X1946178Y-1738386D03*
G01*
X1301698Y-1809249D03*
G01*
X1301698Y-1738386D03*
D21*
G01*
X1333188Y-1809249D03*
G01*
X1333188Y-1738386D03*
G01*
X1364687Y-1809249D03*
G01*
X1364687Y-1738386D03*
D20*
G01*
X1396178Y-1809249D03*
G01*
X1396178Y-1738386D03*
G01*
X751698Y-1809249D03*
G01*
X751698Y-1738386D03*
D21*
G01*
X783188Y-1809249D03*
G01*
X783188Y-1738386D03*
G01*
X814687Y-1809249D03*
G01*
X814687Y-1738386D03*
D20*
G01*
X846177Y-1809249D03*
G01*
X846177Y-1738386D03*
G01*
X2951698Y-1809249D03*
G01*
X2951698Y-1738386D03*
D21*
G01*
X2983188Y-1809249D03*
G01*
X2983188Y-1738386D03*
G01*
X3014687Y-1809249D03*
G01*
X3014687Y-1738386D03*
D20*
G01*
X3046178Y-1809249D03*
G01*
X3046178Y-1738386D03*
D22*
G01*
X2071538Y-903818D03*
D23*
G01*
X2108938Y-903818D03*
D22*
G01*
X2146338Y-903818D03*
D24*
G01*
X403539Y-447049D03*
G01*
X305120Y-447049D03*
G01*
X305120Y-525790D03*
G01*
X403539Y-525790D03*
D25*
G01*
X595129Y-340360D03*
G01*
X113530Y-340360D03*
D26*
G01*
X112210Y-2639760D03*
G01*
X250000Y-2639760D03*
G01*
X387800Y-2639760D03*
G01*
X525590Y-2639760D03*
D27*
G01*
X648894Y-1298818D03*
G01*
X648894Y-1398818D03*
G01*
X648894Y-1198818D03*
D28*
G01*
X258980Y-1298817D03*
D29*
G01*
X1044970Y-765160D03*
G01*
X1044970Y-739569D03*
G01*
X1044970Y-713980D03*
G01*
X1044970Y-688389D03*
G01*
X1044970Y-662800D03*
G01*
X1044970Y-637210D03*
G01*
X1044970Y-611610D03*
G01*
X1044970Y-586019D03*
G01*
X1044970Y-560430D03*
G01*
X1044970Y-534839D03*
G01*
X1044970Y-509250D03*
G01*
X1044970Y-483659D03*
G01*
X1044970Y-458069D03*
G01*
X1044970Y-432480D03*
G01*
X772910Y-765160D03*
G01*
X772910Y-739569D03*
G01*
X772910Y-713980D03*
G01*
X772910Y-688389D03*
G01*
X772910Y-662800D03*
G01*
X772910Y-637210D03*
G01*
X772910Y-611610D03*
G01*
X772910Y-586019D03*
G01*
X772910Y-560430D03*
G01*
X772910Y-534839D03*
G01*
X772910Y-509250D03*
G01*
X772910Y-483659D03*
G01*
X772910Y-458069D03*
G01*
X772910Y-432480D03*
D30*
G01*
X1964009Y-549799D03*
G01*
X1986289Y-527520D03*
G01*
X2008560Y-505249D03*
G01*
X2030830Y-482980D03*
G01*
X2053099Y-460710D03*
G01*
X2075369Y-438439D03*
G01*
X2097640Y-416169D03*
G01*
X2119920Y-393889D03*
D31*
G01*
X2207609Y-394249D03*
G01*
X2229890Y-416519D03*
G01*
X2252159Y-438790D03*
G01*
X2274430Y-461059D03*
G01*
X2296700Y-483340D03*
G01*
X2318969Y-505600D03*
G01*
X2341239Y-527879D03*
G01*
X2363510Y-550150D03*
D30*
G01*
X2363870Y-637839D03*
G01*
X2341590Y-660119D03*
G01*
X2319319Y-682389D03*
G01*
X2297049Y-704660D03*
G01*
X2274780Y-726929D03*
G01*
X2252510Y-749199D03*
G01*
X2230239Y-771470D03*
G01*
X2207959Y-793750D03*
D31*
G01*
X2120270Y-793390D03*
G01*
X2098000Y-771119D03*
G01*
X2075720Y-748849D03*
G01*
X2053460Y-726580D03*
G01*
X2031179Y-704309D03*
G01*
X2008910Y-682039D03*
G01*
X1986640Y-659770D03*
G01*
X1964369Y-637490D03*
D32*
G01*
X1603940Y-1037049D03*
G01*
X1553940Y-1037049D03*
G01*
X1503940Y-1037049D03*
G01*
X1453940Y-1037049D03*
G01*
X1403940Y-1037049D03*
G01*
X1353940Y-1037049D03*
G01*
X1303940Y-1037049D03*
G01*
X1253940Y-1037049D03*
G01*
X1203940Y-1037049D03*
G01*
X1153940Y-1037049D03*
G01*
X1103940Y-1037049D03*
G01*
X1053940Y-1037049D03*
G01*
X1003940Y-1037049D03*
G01*
X953940Y-1037049D03*
G01*
X1603940Y-1410590D03*
G01*
X1553940Y-1410590D03*
G01*
X1503940Y-1410590D03*
G01*
X1453940Y-1410590D03*
G01*
X1403940Y-1410590D03*
G01*
X1353940Y-1410590D03*
G01*
X1303940Y-1410590D03*
G01*
X1253940Y-1410590D03*
G01*
X1203940Y-1410590D03*
G01*
X1153940Y-1410590D03*
G01*
X1103940Y-1410590D03*
G01*
X1053940Y-1410590D03*
G01*
X1003940Y-1410590D03*
G01*
X953940Y-1410590D03*
D33*
G01*
X2868102Y-2639758D03*
D34*
G01*
X3005910Y-2639760D03*
G01*
X3143699Y-2639760D03*
G01*
X3281499Y-2639760D03*
G01*
X3419290Y-2639760D03*
G01*
X3557089Y-2639760D03*
G01*
X3694880Y-2639760D03*
G01*
X3832680Y-2639760D03*
D33*
G01*
X1765742Y-2639758D03*
D34*
G01*
X1903549Y-2639760D03*
G01*
X2041340Y-2639760D03*
G01*
X2179139Y-2639760D03*
G01*
X2316930Y-2639760D03*
G01*
X2454729Y-2639760D03*
G01*
X2592520Y-2639760D03*
G01*
X2730320Y-2639760D03*
D33*
G01*
X663382Y-2639758D03*
D34*
G01*
X801189Y-2639760D03*
G01*
X938980Y-2639760D03*
G01*
X1076769Y-2639760D03*
G01*
X1214570Y-2639760D03*
G01*
X1352359Y-2639760D03*
G01*
X1490159Y-2639760D03*
G01*
X1627960Y-2639760D03*
D35*
G01*
X2818940Y-1116120D03*
G01*
X2768940Y-1116120D03*
G01*
X2718940Y-1116120D03*
G01*
X2668940Y-1116120D03*
G01*
X2618940Y-1116120D03*
G01*
X2568940Y-1116120D03*
G01*
X2518940Y-1116120D03*
G01*
X2468940Y-1116120D03*
G01*
X2818940Y-1331520D03*
G01*
X2768940Y-1331520D03*
G01*
X2718940Y-1331520D03*
G01*
X2668940Y-1331520D03*
G01*
X2618940Y-1331520D03*
G01*
X2568940Y-1331520D03*
G01*
X2518940Y-1331520D03*
G01*
X2468940Y-1331520D03*
G01*
X2133940Y-1116120D03*
G01*
X2083940Y-1116120D03*
G01*
X2033940Y-1116120D03*
G01*
X1983940Y-1116120D03*
G01*
X1933940Y-1116120D03*
G01*
X1883940Y-1116120D03*
G01*
X1833940Y-1116120D03*
G01*
X1783940Y-1116120D03*
G01*
X2133940Y-1331520D03*
G01*
X2083940Y-1331520D03*
G01*
X2033940Y-1331520D03*
G01*
X1983940Y-1331520D03*
G01*
X1933940Y-1331520D03*
G01*
X1883940Y-1331520D03*
G01*
X1833940Y-1331520D03*
G01*
X1783940Y-1331520D03*
D36*
G01*
X3585600Y-1305000D03*
G01*
X3585600Y-1255000D03*
G01*
X3585600Y-1205000D03*
G01*
X3585600Y-1155000D03*
G01*
X3374380Y-1305000D03*
G01*
X3374380Y-1255000D03*
G01*
X3374380Y-1205000D03*
G01*
X3374380Y-1155000D03*
G01*
X333330Y-1983820D03*
G01*
X333330Y-2033820D03*
G01*
X333330Y-2083820D03*
G01*
X333330Y-2133820D03*
G01*
X544549Y-1983820D03*
G01*
X544549Y-2033820D03*
G01*
X544549Y-2083820D03*
G01*
X544549Y-2133820D03*
G01*
X78330Y-2208820D03*
G01*
X78330Y-2258820D03*
G01*
X78330Y-2308820D03*
G01*
X78330Y-2358820D03*
G01*
X289549Y-2208820D03*
G01*
X289549Y-2258820D03*
G01*
X289549Y-2308820D03*
G01*
X289549Y-2358820D03*
D37*
G01*
X3630707Y-1928578D03*
G01*
X3605118Y-1928578D03*
G01*
X3579528Y-1928578D03*
G01*
X3553937Y-1928578D03*
G01*
X3528348Y-1928578D03*
G01*
X3502757Y-1928578D03*
G01*
X3477168Y-1928578D03*
G01*
X3477168Y-2149058D03*
G01*
X3502757Y-2149058D03*
G01*
X3528348Y-2149058D03*
G01*
X3553937Y-2149058D03*
G01*
X3579528Y-2149058D03*
G01*
X3605118Y-2149058D03*
G01*
X3630707Y-2149058D03*
D38*
G01*
X3553937Y-2038817D03*
D37*
G01*
X3080707Y-1928578D03*
G01*
X3055118Y-1928578D03*
G01*
X3029528Y-1928578D03*
G01*
X3003937Y-1928578D03*
G01*
X2978348Y-1928578D03*
G01*
X2952757Y-1928578D03*
G01*
X2927168Y-1928578D03*
G01*
X2927168Y-2149058D03*
G01*
X2952757Y-2149058D03*
G01*
X2978348Y-2149058D03*
G01*
X3003937Y-2149058D03*
G01*
X3029528Y-2149058D03*
G01*
X3055118Y-2149058D03*
G01*
X3080707Y-2149058D03*
D38*
G01*
X3003937Y-2038817D03*
D37*
G01*
X2530707Y-1928578D03*
G01*
X2505118Y-1928578D03*
G01*
X2479528Y-1928578D03*
G01*
X2453937Y-1928578D03*
G01*
X2428348Y-1928578D03*
G01*
X2402757Y-1928578D03*
G01*
X2377168Y-1928578D03*
G01*
X2377168Y-2149058D03*
G01*
X2402757Y-2149058D03*
G01*
X2428348Y-2149058D03*
G01*
X2453937Y-2149058D03*
G01*
X2479528Y-2149058D03*
G01*
X2505118Y-2149058D03*
G01*
X2530707Y-2149058D03*
D38*
G01*
X2453937Y-2038817D03*
D37*
G01*
X1980707Y-1928578D03*
G01*
X1955118Y-1928578D03*
G01*
X1929528Y-1928578D03*
G01*
X1903937Y-1928578D03*
G01*
X1878348Y-1928578D03*
G01*
X1852757Y-1928578D03*
G01*
X1827168Y-1928578D03*
G01*
X1827168Y-2149058D03*
G01*
X1852757Y-2149058D03*
G01*
X1878348Y-2149058D03*
G01*
X1903937Y-2149058D03*
G01*
X1929528Y-2149058D03*
G01*
X1955118Y-2149058D03*
G01*
X1980707Y-2149058D03*
D38*
G01*
X1903937Y-2038817D03*
D37*
G01*
X1430707Y-1928578D03*
G01*
X1405118Y-1928578D03*
G01*
X1379528Y-1928578D03*
G01*
X1353937Y-1928578D03*
G01*
X1328348Y-1928578D03*
G01*
X1302757Y-1928578D03*
G01*
X1277168Y-1928578D03*
G01*
X1277168Y-2149058D03*
G01*
X1302757Y-2149058D03*
G01*
X1328348Y-2149058D03*
G01*
X1353937Y-2149058D03*
G01*
X1379528Y-2149058D03*
G01*
X1405118Y-2149058D03*
G01*
X1430707Y-2149058D03*
D38*
G01*
X1353937Y-2038817D03*
D37*
G01*
X880707Y-1928578D03*
G01*
X855118Y-1928578D03*
G01*
X829528Y-1928578D03*
G01*
X803937Y-1928578D03*
G01*
X778348Y-1928578D03*
G01*
X752757Y-1928578D03*
G01*
X727167Y-1928578D03*
G01*
X727167Y-2149058D03*
G01*
X752757Y-2149058D03*
G01*
X778348Y-2149058D03*
G01*
X803937Y-2149058D03*
G01*
X829528Y-2149058D03*
G01*
X855118Y-2149058D03*
G01*
X880707Y-2149058D03*
D38*
G01*
X803937Y-2038817D03*
D20*
G01*
X3501698Y-1809249D03*
G01*
X3501698Y-1738386D03*
D21*
G01*
X3533188Y-1809249D03*
G01*
X3533188Y-1738386D03*
G01*
X3564687Y-1809249D03*
G01*
X3564687Y-1738386D03*
D20*
G01*
X3596178Y-1809249D03*
G01*
X3596178Y-1738386D03*
D39*
G01*
X1895588Y-412275D03*
G01*
X1845480Y-362167D03*
D40*
G01*
X1917855Y-390009D03*
G01*
X1867746Y-339900D03*
G01*
X1940129Y-367735D03*
G01*
X1890020Y-317626D03*
D39*
G01*
X1962395Y-345468D03*
G01*
X1912287Y-295359D03*
D41*
G01*
X3223310Y-2348818D03*
D42*
G01*
X3144566Y-2348818D03*
D41*
G01*
X2873310Y-2348818D03*
D42*
G01*
X2794566Y-2348818D03*
D41*
G01*
X3418310Y-2348818D03*
D42*
G01*
X3339566Y-2348818D03*
D41*
G01*
X3773310Y-2348818D03*
D42*
G01*
X3694566Y-2348818D03*
D41*
G01*
X2673310Y-2348818D03*
D42*
G01*
X2594566Y-2348818D03*
D41*
G01*
X2313310Y-2348818D03*
D42*
G01*
X2234566Y-2348818D03*
D41*
G01*
X2123310Y-2348818D03*
D42*
G01*
X2044565Y-2348818D03*
D41*
G01*
X1763310Y-2348818D03*
D42*
G01*
X1684565Y-2348818D03*
D41*
G01*
X1568310Y-2348818D03*
D42*
G01*
X1489565Y-2348818D03*
D41*
G01*
X1213310Y-2348818D03*
D42*
G01*
X1134565Y-2348818D03*
D41*
G01*
X668309Y-2348818D03*
D42*
G01*
X589565Y-2348818D03*
D41*
G01*
X1018310Y-2348818D03*
D42*
G01*
X939565Y-2348818D03*
D43*
G01*
X3163938Y-1868473D03*
D44*
G01*
X3163938Y-1809162D03*
D43*
G01*
X3718938Y-1873473D03*
D44*
G01*
X3718938Y-1814162D03*
D45*
G01*
X3638593Y-2428818D03*
D46*
G01*
X3579282Y-2428818D03*
D47*
G01*
X3464282Y-2428818D03*
D48*
G01*
X3523593Y-2428818D03*
D45*
G01*
X3093593Y-2428818D03*
D46*
G01*
X3034282Y-2428818D03*
D47*
G01*
X2919282Y-2428818D03*
D48*
G01*
X2978593Y-2428818D03*
D43*
G01*
X2613938Y-1868473D03*
D44*
G01*
X2613938Y-1809162D03*
D43*
G01*
X2063938Y-1868473D03*
D44*
G01*
X2063938Y-1809162D03*
D43*
G01*
X1513938Y-1868473D03*
D44*
G01*
X1513938Y-1809162D03*
D43*
G01*
X958938Y-1868473D03*
D44*
G01*
X958938Y-1809162D03*
D45*
G01*
X1103593Y-1498818D03*
D46*
G01*
X1044282Y-1498818D03*
D47*
G01*
X2364282Y-2428818D03*
D48*
G01*
X2423593Y-2428818D03*
D45*
G01*
X2538593Y-2428818D03*
D46*
G01*
X2479282Y-2428818D03*
D47*
G01*
X1814282Y-2428818D03*
D48*
G01*
X1873593Y-2428818D03*
D45*
G01*
X1988593Y-2428818D03*
D46*
G01*
X1929282Y-2428818D03*
D47*
G01*
X1264282Y-2428818D03*
D48*
G01*
X1323593Y-2428818D03*
D45*
G01*
X1438593Y-2428818D03*
D46*
G01*
X1379282Y-2428818D03*
D47*
G01*
X719282Y-2428818D03*
D48*
G01*
X778593Y-2428818D03*
D45*
G01*
X893593Y-2428818D03*
D46*
G01*
X834282Y-2428818D03*
D45*
G01*
X2568593Y-1028818D03*
D46*
G01*
X2509282Y-1028818D03*
D45*
G01*
X1883593Y-1008818D03*
D46*
G01*
X1824282Y-1008818D03*
D47*
G01*
X2239282Y-1858818D03*
D48*
G01*
X2298593Y-1858818D03*
D43*
G01*
X2298938Y-1798473D03*
D44*
G01*
X2298938Y-1739162D03*
D43*
G01*
X2298938Y-1683473D03*
D44*
G01*
X2298938Y-1624162D03*
D47*
G01*
X1689282Y-1858818D03*
D48*
G01*
X1748593Y-1858818D03*
D43*
G01*
X1748938Y-1798473D03*
D44*
G01*
X1748938Y-1739162D03*
D43*
G01*
X1748938Y-1683473D03*
D44*
G01*
X1748938Y-1624162D03*
D47*
G01*
X1144282Y-1858818D03*
D48*
G01*
X1203593Y-1858818D03*
D43*
G01*
X1203938Y-1798473D03*
D44*
G01*
X1203938Y-1739162D03*
D43*
G01*
X1203938Y-1683473D03*
D44*
G01*
X1203938Y-1624162D03*
D47*
G01*
X3339282Y-1858818D03*
D48*
G01*
X3398593Y-1858818D03*
D43*
G01*
X3398938Y-1798473D03*
D44*
G01*
X3398938Y-1739162D03*
D43*
G01*
X3398938Y-1683473D03*
D44*
G01*
X3398938Y-1624162D03*
D43*
G01*
X2848938Y-1683473D03*
D44*
G01*
X2848938Y-1624162D03*
D43*
G01*
X2848938Y-1798473D03*
D44*
G01*
X2848938Y-1739162D03*
D47*
G01*
X2789282Y-1858818D03*
D48*
G01*
X2848593Y-1858818D03*
D43*
G01*
X2973938Y-833473D03*
D44*
G01*
X2973938Y-774162D03*
D49*
G01*
X3033938Y-774162D03*
D50*
G01*
X3033938Y-833473D03*
D43*
G01*
X3093938Y-833473D03*
D44*
G01*
X3093938Y-774162D03*
D47*
G01*
X589282Y-1858818D03*
D48*
G01*
X648593Y-1858818D03*
D43*
G01*
X648938Y-1798473D03*
D44*
G01*
X648938Y-1739162D03*
D43*
G01*
X648938Y-1683473D03*
D44*
G01*
X648938Y-1624162D03*
D51*
G01*
X424961Y-1858228D03*
G01*
X424961Y-1883817D03*
G01*
X424961Y-1909408D03*
G01*
X502913Y-1909408D03*
G01*
X502913Y-1883817D03*
G01*
X502913Y-1858228D03*
D52*
G01*
X1858496Y-140000D03*
G01*
X1791496Y-140000D03*
D45*
G01*
X583593Y-998818D03*
D46*
G01*
X524282Y-998818D03*
D53*
G01*
X753478Y-993818D03*
D54*
G01*
X654396Y-993818D03*
D55*
G01*
X3516538Y-2338188D03*
G01*
X3591337Y-2338188D03*
G01*
X3553937Y-2259448D03*
G01*
X2966538Y-2338188D03*
G01*
X3041337Y-2338188D03*
G01*
X3003937Y-2259448D03*
G01*
X2416538Y-2338188D03*
G01*
X2491337Y-2338188D03*
G01*
X2453937Y-2259448D03*
G01*
X1866538Y-2338188D03*
G01*
X1941337Y-2338188D03*
G01*
X1903937Y-2259448D03*
G01*
X1316538Y-2338188D03*
G01*
X1391337Y-2338188D03*
G01*
X1353937Y-2259448D03*
G01*
X766537Y-2338188D03*
G01*
X841337Y-2338188D03*
G01*
X803937Y-2259448D03*
D56*
G01*
X2228938Y-1807817D03*
G01*
X2228938Y-1679818D03*
G01*
X1678938Y-1807817D03*
G01*
X1678938Y-1679818D03*
G01*
X1133938Y-1807817D03*
G01*
X1133938Y-1679818D03*
G01*
X3328938Y-1807817D03*
G01*
X3328938Y-1679818D03*
G01*
X2778938Y-1807817D03*
G01*
X2778938Y-1679818D03*
G01*
X2833938Y-867817D03*
G01*
X2833938Y-739818D03*
G01*
X578938Y-1807817D03*
G01*
X578938Y-1679818D03*
D57*
G01*
X3374753Y-864998D03*
G01*
X3645225Y-864998D03*
D58*
G01*
X631694Y-833817D03*
G01*
X726181Y-833817D03*
D59*
G01*
X1956181Y-848817D03*
G01*
X1861694Y-848817D03*
D60*
G01*
X763938Y-1179447D03*
D61*
G01*
X763938Y-1258188D03*
D62*
G01*
X763938Y-1418188D03*
D63*
G01*
X763938Y-1339447D03*
D60*
G01*
X3238937Y-1819447D03*
D61*
G01*
X3238937Y-1898188D03*
D60*
G01*
X3788937Y-1819447D03*
D61*
G01*
X3788937Y-1898188D03*
D60*
G01*
X2688937Y-1819447D03*
D61*
G01*
X2688937Y-1898188D03*
D60*
G01*
X2138937Y-1819447D03*
D61*
G01*
X2138937Y-1898188D03*
D60*
G01*
X1588937Y-1819447D03*
D61*
G01*
X1588937Y-1898188D03*
D60*
G01*
X1033937Y-1819447D03*
D61*
G01*
X1033937Y-1898188D03*
D10*
G01*
X2181379Y-1623817D03*
G01*
X2236496Y-1623817D03*
G01*
X1631379Y-1623817D03*
G01*
X1686496Y-1623817D03*
G01*
X1086379Y-1623817D03*
G01*
X1141496Y-1623817D03*
G01*
X3281379Y-1623817D03*
G01*
X3336496Y-1623817D03*
G01*
X2731379Y-1623817D03*
G01*
X2786496Y-1623817D03*
D64*
G01*
X711496Y-908817D03*
G01*
X656378Y-908817D03*
G01*
X1281496Y-738817D03*
G01*
X1226379Y-738817D03*
D65*
G01*
X2398425Y-384330D03*
G01*
X2359450Y-423305D03*
D64*
G01*
X3201496Y-2258817D03*
G01*
X3146379Y-2258817D03*
G01*
X2871496Y-2258817D03*
G01*
X2816379Y-2258817D03*
G01*
X3751496Y-2258817D03*
G01*
X3696379Y-2258817D03*
G01*
X3416496Y-2258817D03*
G01*
X3361379Y-2258817D03*
G01*
X2311496Y-2258817D03*
G01*
X2256379Y-2258817D03*
G01*
X2646496Y-2258817D03*
G01*
X2591379Y-2258817D03*
G01*
X1761496Y-2258817D03*
G01*
X1706379Y-2258817D03*
G01*
X2101496Y-2258817D03*
G01*
X2046379Y-2258817D03*
G01*
X1211496Y-2258817D03*
G01*
X1156379Y-2258817D03*
G01*
X1546496Y-2258817D03*
G01*
X1491379Y-2258817D03*
G01*
X671496Y-2258817D03*
G01*
X616378Y-2258817D03*
G01*
X996496Y-2258817D03*
G01*
X941379Y-2258817D03*
D10*
G01*
X531378Y-1623817D03*
G01*
X586496Y-1623817D03*
D19*
G01*
X3269992Y-1197438D03*
G01*
X3269992Y-1252556D03*
D64*
G01*
X286496Y-2428817D03*
G01*
X231378Y-2428817D03*
G01*
X541496Y-2203817D03*
G01*
X486378Y-2203817D03*
D19*
G01*
X2613937Y-1931259D03*
G01*
X2613937Y-1986377D03*
G01*
X2063937Y-1931259D03*
G01*
X2063937Y-1986377D03*
G01*
X1513937Y-1931259D03*
G01*
X1513937Y-1986377D03*
G01*
X958937Y-1931259D03*
G01*
X958937Y-1986377D03*
D10*
G01*
X1151379Y-943817D03*
G01*
X1206496Y-943817D03*
D64*
G01*
X976496Y-843817D03*
G01*
X921379Y-843817D03*
G01*
X1936496Y-768817D03*
G01*
X1881379Y-768817D03*
D65*
G01*
X2443425Y-429330D03*
G01*
X2404450Y-468305D03*
D66*
G01*
X2908937Y-831377D03*
G01*
X2908937Y-776259D03*
M02*
