G04 Layer: TopSilkscreenLayer*
G04 EasyEDA v6.5.22, 2023-02-21 10:28:47*
G04 bf72e243e8a245ba8743e2d89751b4a0,10*
G04 Gerber Generator version 0.2*
G04 Scale: 100 percent, Rotated: No, Reflected: No *
G04 Dimensions in inches *
G04 leading zeros omitted , absolute positions ,3 integer and 6 decimal *
%FSLAX36Y36*%
%MOIN*%

%ADD10C,0.0060*%
%ADD11C,0.0100*%
%ADD12C,0.0080*%
%ADD13C,0.0050*%
%ADD14C,0.0060*%
%ADD15C,0.0079*%
%ADD16C,0.0102*%
%ADD17C,0.0080*%
%ADD18C,0.0032*%
%ADD19C,0.0157*%
%ADD20C,0.0118*%
%ADD21C,0.0157*%
%ADD22C,0.0122*%

%LPD*%
G36*
X3277140Y-636220D02*
G01*
X3274460Y-636480D01*
X3272000Y-637280D01*
X3269800Y-638560D01*
X3267919Y-640300D01*
X3266360Y-642480D01*
X3265220Y-645080D01*
X3264480Y-648060D01*
X3264240Y-651420D01*
X3264480Y-654800D01*
X3265200Y-657800D01*
X3266320Y-660400D01*
X3267840Y-662580D01*
X3269680Y-664320D01*
X3271820Y-665580D01*
X3274220Y-666360D01*
X3276840Y-666620D01*
X3279520Y-666340D01*
X3281880Y-665500D01*
X3283960Y-664180D01*
X3285740Y-662420D01*
X3283940Y-660320D01*
X3282460Y-661720D01*
X3280820Y-662760D01*
X3279020Y-663400D01*
X3277040Y-663620D01*
X3274960Y-663400D01*
X3273120Y-662760D01*
X3271520Y-661740D01*
X3270160Y-660320D01*
X3269080Y-658560D01*
X3268279Y-656440D01*
X3267799Y-654040D01*
X3267640Y-651320D01*
X3267820Y-648640D01*
X3268320Y-646260D01*
X3269140Y-644200D01*
X3270240Y-642460D01*
X3271620Y-641080D01*
X3273240Y-640060D01*
X3275100Y-639440D01*
X3277140Y-639220D01*
X3278980Y-639420D01*
X3280600Y-639980D01*
X3282020Y-640860D01*
X3283240Y-642020D01*
X3285040Y-639820D01*
X3283580Y-638500D01*
X3281760Y-637340D01*
X3279600Y-636540D01*
G37*
G36*
X3326139Y-636220D02*
G01*
X3323560Y-636540D01*
X3321340Y-637440D01*
X3319380Y-638800D01*
X3317540Y-640520D01*
X3319540Y-642420D01*
X3320840Y-641040D01*
X3322340Y-639920D01*
X3323980Y-639180D01*
X3325740Y-638920D01*
X3328220Y-639380D01*
X3329960Y-640639D01*
X3331000Y-642540D01*
X3331340Y-644920D01*
X3331139Y-646880D01*
X3330539Y-648920D01*
X3329520Y-651080D01*
X3328060Y-653360D01*
X3326160Y-655780D01*
X3323820Y-658379D01*
X3321019Y-661160D01*
X3317740Y-664120D01*
X3317740Y-666020D01*
X3335940Y-666020D01*
X3335940Y-663220D01*
X3326360Y-663240D01*
X3323900Y-663379D01*
X3322740Y-663520D01*
X3325280Y-661040D01*
X3327580Y-658600D01*
X3329580Y-656220D01*
X3331300Y-653880D01*
X3332679Y-651560D01*
X3333700Y-649280D01*
X3334320Y-647039D01*
X3334540Y-644820D01*
X3334380Y-642960D01*
X3333960Y-641280D01*
X3333240Y-639820D01*
X3332280Y-638580D01*
X3331080Y-637580D01*
X3329640Y-636840D01*
X3327980Y-636380D01*
G37*
G36*
X3291340Y-636820D02*
G01*
X3291340Y-666020D01*
X3294440Y-666020D01*
X3294400Y-647780D01*
X3294040Y-641120D01*
X3294240Y-641120D01*
X3297440Y-647120D01*
X3308440Y-666020D01*
X3311940Y-666020D01*
X3311940Y-636820D01*
X3308740Y-636820D01*
X3308780Y-654900D01*
X3309140Y-661720D01*
X3308940Y-661720D01*
X3305840Y-655720D01*
X3294740Y-636820D01*
G37*
D10*
X1525000Y-439600D02*
G01*
X1525000Y-482500D01*
X1525000Y-439600D02*
G01*
X1543400Y-439600D01*
X1549499Y-441599D01*
X1551599Y-443699D01*
X1553599Y-447800D01*
X1553599Y-451900D01*
X1551599Y-455999D01*
X1549499Y-458000D01*
X1543400Y-460000D01*
X1525000Y-460000D01*
X1539300Y-460000D02*
G01*
X1553599Y-482500D01*
X1587600Y-439600D02*
G01*
X1587600Y-472300D01*
X1585500Y-478499D01*
X1583500Y-480500D01*
X1579399Y-482500D01*
X1575299Y-482500D01*
X1571199Y-480500D01*
X1569200Y-478499D01*
X1567100Y-472300D01*
X1567100Y-468200D01*
X1601099Y-447800D02*
G01*
X1605200Y-445700D01*
X1611300Y-439600D01*
X1611300Y-482500D01*
D11*
X2694600Y-193800D02*
G01*
X2694600Y-236700D01*
X2738800Y-204000D02*
G01*
X2736700Y-199899D01*
X2732600Y-195799D01*
X2728500Y-193800D01*
X2720299Y-193800D01*
X2716300Y-195799D01*
X2712200Y-199899D01*
X2710100Y-204000D01*
X2708100Y-210100D01*
X2708100Y-220399D01*
X2710100Y-226500D01*
X2712200Y-230599D01*
X2716300Y-234699D01*
X2720299Y-236700D01*
X2728500Y-236700D01*
X2732600Y-234699D01*
X2736700Y-230599D01*
X2738800Y-226500D01*
X2780900Y-199899D02*
G01*
X2776800Y-195799D01*
X2770699Y-193800D01*
X2762500Y-193800D01*
X2756300Y-195799D01*
X2752299Y-199899D01*
X2752299Y-204000D01*
X2754300Y-208099D01*
X2756300Y-210100D01*
X2760399Y-212199D01*
X2772700Y-216300D01*
X2776800Y-218299D01*
X2778800Y-220399D01*
X2780900Y-224400D01*
X2780900Y-230599D01*
X2776800Y-234699D01*
X2770699Y-236700D01*
X2762500Y-236700D01*
X2756300Y-234699D01*
X2752299Y-230599D01*
X2794399Y-193800D02*
G01*
X2794399Y-236700D01*
X2794399Y-193800D02*
G01*
X2812799Y-193800D01*
X2818900Y-195799D01*
X2821000Y-197899D01*
X2823000Y-201900D01*
X2823000Y-208099D01*
X2821000Y-212199D01*
X2818900Y-214200D01*
X2812799Y-216300D01*
X2794399Y-216300D01*
D10*
X3727291Y-1309598D02*
G01*
X3723191Y-1311597D01*
X3719092Y-1315698D01*
X3716992Y-1319798D01*
X3714992Y-1325997D01*
X3714992Y-1336197D01*
X3716992Y-1342298D01*
X3719092Y-1346397D01*
X3723191Y-1350497D01*
X3727291Y-1352498D01*
X3735492Y-1352498D01*
X3739492Y-1350497D01*
X3743591Y-1346397D01*
X3745691Y-1342298D01*
X3747691Y-1336197D01*
X3747691Y-1325997D01*
X3745691Y-1319798D01*
X3743591Y-1315698D01*
X3739492Y-1311597D01*
X3735492Y-1309598D01*
X3727291Y-1309598D01*
X3733392Y-1344398D02*
G01*
X3745691Y-1356597D01*
X3763292Y-1319798D02*
G01*
X3763292Y-1317797D01*
X3765291Y-1313697D01*
X3767392Y-1311597D01*
X3771491Y-1309598D01*
X3779592Y-1309598D01*
X3783692Y-1311597D01*
X3785792Y-1313697D01*
X3787791Y-1317797D01*
X3787791Y-1321898D01*
X3785792Y-1325997D01*
X3781692Y-1332098D01*
X3761192Y-1352498D01*
X3789892Y-1352498D01*
D12*
X3263926Y-417856D02*
G01*
X3329426Y-417856D01*
X3731625Y-395156D02*
G01*
X3731625Y-460556D01*
X3698926Y-427856D02*
G01*
X3764426Y-427856D01*
D11*
X2965164Y-189108D02*
G01*
X2965164Y-232107D01*
X2965164Y-189108D02*
G01*
X2983563Y-189108D01*
X2989763Y-191208D01*
X2991764Y-193207D01*
X2993864Y-197307D01*
X2993864Y-201408D01*
X2991764Y-205507D01*
X2989763Y-207507D01*
X2983563Y-209607D01*
X2965164Y-209607D01*
X2979564Y-209607D02*
G01*
X2993864Y-232107D01*
X3007363Y-189108D02*
G01*
X3007363Y-232107D01*
X3007363Y-189108D02*
G01*
X3033963Y-189108D01*
X3007363Y-209607D02*
G01*
X3023663Y-209607D01*
X3007363Y-232107D02*
G01*
X3033963Y-232107D01*
X3076063Y-195207D02*
G01*
X3071963Y-191208D01*
X3065864Y-189108D01*
X3057664Y-189108D01*
X3051563Y-191208D01*
X3047464Y-195207D01*
X3047464Y-199308D01*
X3049463Y-203407D01*
X3051563Y-205507D01*
X3055564Y-207507D01*
X3067863Y-211608D01*
X3071963Y-213708D01*
X3074063Y-215707D01*
X3076063Y-219807D01*
X3076063Y-225907D01*
X3071963Y-230007D01*
X3065864Y-232107D01*
X3057664Y-232107D01*
X3051563Y-230007D01*
X3047464Y-225907D01*
X3089564Y-189108D02*
G01*
X3089564Y-232107D01*
X3089564Y-189108D02*
G01*
X3116163Y-189108D01*
X3089564Y-209607D02*
G01*
X3105964Y-209607D01*
X3089564Y-232107D02*
G01*
X3116163Y-232107D01*
X3143963Y-189108D02*
G01*
X3143963Y-232107D01*
X3129664Y-189108D02*
G01*
X3158263Y-189108D01*
G36*
X3005899Y-2726380D02*
G01*
X2986220Y-2746060D01*
X2998020Y-2746060D01*
X2998020Y-2777559D01*
X3013780Y-2777559D01*
X3013780Y-2746060D01*
X3025580Y-2746060D01*
G37*
G36*
X2868100Y-2726380D02*
G01*
X2848420Y-2746060D01*
X2860220Y-2746060D01*
X2860220Y-2777559D01*
X2875980Y-2777559D01*
X2875980Y-2746060D01*
X2887780Y-2746060D01*
G37*
G36*
X3143680Y-2726380D02*
G01*
X3124000Y-2746060D01*
X3135820Y-2746060D01*
X3135820Y-2777559D01*
X3151560Y-2777559D01*
X3151560Y-2746060D01*
X3163380Y-2746060D01*
G37*
G36*
X3281480Y-2726380D02*
G01*
X3261800Y-2746060D01*
X3273620Y-2746060D01*
X3273620Y-2777559D01*
X3289360Y-2777559D01*
X3289360Y-2746060D01*
X3301180Y-2746060D01*
G37*
G36*
X3419280Y-2726380D02*
G01*
X3399600Y-2746060D01*
X3411400Y-2746060D01*
X3411400Y-2777559D01*
X3427160Y-2777559D01*
X3427160Y-2746060D01*
X3438960Y-2746060D01*
G37*
G36*
X3832300Y-2726380D02*
G01*
X3812600Y-2746060D01*
X3824420Y-2746060D01*
X3824420Y-2777559D01*
X3840160Y-2777559D01*
X3840160Y-2746060D01*
X3851980Y-2746060D01*
G37*
G36*
X3694500Y-2726380D02*
G01*
X3674820Y-2746060D01*
X3686620Y-2746060D01*
X3686620Y-2777559D01*
X3702380Y-2777559D01*
X3702380Y-2746060D01*
X3714180Y-2746060D01*
G37*
G36*
X3556700Y-2726380D02*
G01*
X3537020Y-2746060D01*
X3548820Y-2746060D01*
X3548820Y-2777559D01*
X3564580Y-2777559D01*
X3564580Y-2746060D01*
X3576380Y-2746060D01*
G37*
G36*
X2868120Y-2726380D02*
G01*
X2848420Y-2746060D01*
X2860240Y-2746060D01*
X2860240Y-2777559D01*
X2875980Y-2777559D01*
X2875980Y-2746060D01*
X2887799Y-2746060D01*
G37*
G36*
X1903540Y-2726380D02*
G01*
X1883860Y-2746060D01*
X1895660Y-2746060D01*
X1895660Y-2777559D01*
X1911420Y-2777559D01*
X1911420Y-2746060D01*
X1923220Y-2746060D01*
G37*
G36*
X1765740Y-2726380D02*
G01*
X1746060Y-2746060D01*
X1757860Y-2746060D01*
X1757860Y-2777559D01*
X1773620Y-2777559D01*
X1773620Y-2746060D01*
X1785420Y-2746060D01*
G37*
G36*
X2041320Y-2726380D02*
G01*
X2021639Y-2746060D01*
X2033460Y-2746060D01*
X2033460Y-2777559D01*
X2049199Y-2777559D01*
X2049199Y-2746060D01*
X2061020Y-2746060D01*
G37*
G36*
X2179120Y-2726380D02*
G01*
X2159440Y-2746060D01*
X2171260Y-2746060D01*
X2171260Y-2777559D01*
X2187000Y-2777559D01*
X2187000Y-2746060D01*
X2198820Y-2746060D01*
G37*
G36*
X2316920Y-2726380D02*
G01*
X2297240Y-2746060D01*
X2309040Y-2746060D01*
X2309040Y-2777559D01*
X2324800Y-2777559D01*
X2324800Y-2746060D01*
X2336600Y-2746060D01*
G37*
G36*
X2729940Y-2726380D02*
G01*
X2710240Y-2746060D01*
X2722060Y-2746060D01*
X2722060Y-2777559D01*
X2737799Y-2777559D01*
X2737799Y-2746060D01*
X2749620Y-2746060D01*
G37*
G36*
X2592140Y-2726380D02*
G01*
X2572460Y-2746060D01*
X2584260Y-2746060D01*
X2584260Y-2777559D01*
X2600020Y-2777559D01*
X2600020Y-2746060D01*
X2611820Y-2746060D01*
G37*
G36*
X2454340Y-2726380D02*
G01*
X2434660Y-2746060D01*
X2446460Y-2746060D01*
X2446460Y-2777559D01*
X2462220Y-2777559D01*
X2462220Y-2746060D01*
X2474020Y-2746060D01*
G37*
G36*
X1765760Y-2726380D02*
G01*
X1746060Y-2746060D01*
X1757880Y-2746060D01*
X1757880Y-2777559D01*
X1773620Y-2777559D01*
X1773620Y-2746060D01*
X1785440Y-2746060D01*
G37*
G36*
X801180Y-2726380D02*
G01*
X781500Y-2746060D01*
X793300Y-2746060D01*
X793300Y-2777559D01*
X809060Y-2777559D01*
X809060Y-2746060D01*
X820860Y-2746060D01*
G37*
G36*
X663379Y-2726380D02*
G01*
X643700Y-2746060D01*
X655500Y-2746060D01*
X655500Y-2777559D01*
X671260Y-2777559D01*
X671260Y-2746060D01*
X683060Y-2746060D01*
G37*
G36*
X938960Y-2726380D02*
G01*
X919280Y-2746060D01*
X931100Y-2746060D01*
X931100Y-2777559D01*
X946840Y-2777559D01*
X946840Y-2746060D01*
X958660Y-2746060D01*
G37*
G36*
X1076760Y-2726380D02*
G01*
X1057080Y-2746060D01*
X1068900Y-2746060D01*
X1068900Y-2777559D01*
X1084640Y-2777559D01*
X1084640Y-2746060D01*
X1096460Y-2746060D01*
G37*
G36*
X1214560Y-2726380D02*
G01*
X1194880Y-2746060D01*
X1206680Y-2746060D01*
X1206680Y-2777559D01*
X1222440Y-2777559D01*
X1222440Y-2746060D01*
X1234240Y-2746060D01*
G37*
G36*
X1627580Y-2726380D02*
G01*
X1607880Y-2746060D01*
X1619700Y-2746060D01*
X1619700Y-2777559D01*
X1635440Y-2777559D01*
X1635440Y-2746060D01*
X1647260Y-2746060D01*
G37*
G36*
X1489780Y-2726380D02*
G01*
X1470100Y-2746060D01*
X1481900Y-2746060D01*
X1481900Y-2777559D01*
X1497660Y-2777559D01*
X1497660Y-2746060D01*
X1509460Y-2746060D01*
G37*
G36*
X1351980Y-2726380D02*
G01*
X1332300Y-2746060D01*
X1344120Y-2746060D01*
X1344120Y-2777559D01*
X1359860Y-2777559D01*
X1359860Y-2746060D01*
X1371660Y-2746060D01*
G37*
G36*
X663400Y-2726380D02*
G01*
X643700Y-2746060D01*
X655520Y-2746060D01*
X655520Y-2777559D01*
X671260Y-2777559D01*
X671260Y-2746060D01*
X683080Y-2746060D01*
G37*
X3485267Y-715738D02*
G01*
X3485267Y-684241D01*
X3528959Y-727937D02*
G01*
X3497464Y-727937D01*
X3528959Y-672044D02*
G01*
X3497464Y-672044D01*
X3551631Y-728166D02*
G01*
X3583127Y-728166D01*
X3595325Y-715967D02*
G01*
X3595325Y-684472D01*
X3551631Y-672276D02*
G01*
X3583127Y-672276D01*
X1614189Y-428535D02*
G01*
X1141750Y-428535D01*
X1141750Y83274D01*
X1614189Y83274D01*
X1614189Y-428535D01*
D13*
X1141750Y30875D02*
G01*
X1614189Y30875D01*
D12*
X2663937Y-563818D02*
G01*
X2863937Y-563818D01*
X2863937Y-263818D01*
X2663937Y-263818D01*
X2663937Y-563818D01*
X2663937Y-372148D01*
X2764032Y-263818D02*
G01*
X2764032Y-363818D01*
X2663937Y-363818D01*
D14*
X3848895Y-1044841D02*
G01*
X3857353Y-1044841D01*
X3798895Y-1044841D02*
G01*
X3811089Y-1044841D01*
X3748895Y-1044841D02*
G01*
X3761089Y-1044841D01*
X3698895Y-1044841D02*
G01*
X3711089Y-1044841D01*
X3661089Y-1277125D02*
G01*
X3652629Y-1277125D01*
X3652629Y-1044841D01*
X3661089Y-1044841D01*
X3711089Y-1277125D02*
G01*
X3698895Y-1277125D01*
X3761089Y-1277125D02*
G01*
X3748895Y-1277125D01*
X3811089Y-1277125D02*
G01*
X3798895Y-1277125D01*
X3857353Y-1044841D02*
G01*
X3857353Y-1277125D01*
X3848895Y-1277125D01*
D11*
X3198809Y85257D02*
G01*
X3198809Y-472435D01*
X3809043Y85257D02*
G01*
X3809043Y-472435D01*
X3198809Y85257D02*
G01*
X3809043Y85257D01*
X3325045Y-626345D02*
G01*
X3267957Y-626044D01*
X3611733Y-627851D02*
G01*
X3398563Y-626732D01*
X3742586Y-628539D02*
G01*
X3678779Y-628204D01*
X3158937Y-363818D02*
G01*
X2958937Y-363818D01*
X2958937Y-263818D01*
X3158937Y-263818D01*
X3158937Y-363818D01*
X3698199Y-1904092D02*
G01*
X3729696Y-1904092D01*
X3686000Y-1947784D02*
G01*
X3686000Y-1916289D01*
X3741891Y-1947784D02*
G01*
X3741891Y-1916289D01*
X3685771Y-1970457D02*
G01*
X3685771Y-2001952D01*
X3697969Y-2014151D02*
G01*
X3729463Y-2014151D01*
X3741661Y-1970457D02*
G01*
X3741661Y-2001952D01*
X3148199Y-1904092D02*
G01*
X3179696Y-1904092D01*
X3136000Y-1947784D02*
G01*
X3136000Y-1916289D01*
X3191891Y-1947784D02*
G01*
X3191891Y-1916289D01*
X3135771Y-1970457D02*
G01*
X3135771Y-2001952D01*
X3147969Y-2014151D02*
G01*
X3179463Y-2014151D01*
X3191661Y-1970457D02*
G01*
X3191661Y-2001952D01*
D15*
X2375333Y-1756100D02*
G01*
X2375333Y-1716739D01*
X2522573Y-1716729D01*
X2522573Y-1757680D01*
X2522557Y-1791532D02*
G01*
X2522557Y-1831682D01*
X2375317Y-1831693D01*
X2375317Y-1790736D01*
X1825333Y-1756100D02*
G01*
X1825333Y-1716739D01*
X1972573Y-1716729D01*
X1972573Y-1757680D01*
X1972557Y-1791532D02*
G01*
X1972557Y-1831682D01*
X1825317Y-1831693D01*
X1825317Y-1790736D01*
X1275333Y-1756100D02*
G01*
X1275333Y-1716739D01*
X1422573Y-1716729D01*
X1422573Y-1757680D01*
X1422557Y-1791532D02*
G01*
X1422557Y-1831682D01*
X1275317Y-1831693D01*
X1275317Y-1790736D01*
X725333Y-1756100D02*
G01*
X725333Y-1716739D01*
X872573Y-1716729D01*
X872573Y-1757680D01*
X872557Y-1791532D02*
G01*
X872557Y-1831682D01*
X725318Y-1831693D01*
X725318Y-1790736D01*
X2925333Y-1756100D02*
G01*
X2925333Y-1716739D01*
X3072573Y-1716729D01*
X3072573Y-1757680D01*
X3072557Y-1791532D02*
G01*
X3072557Y-1831682D01*
X2925317Y-1831693D01*
X2925317Y-1790736D01*
D11*
X2171927Y-929407D02*
G01*
X2171927Y-878227D01*
X2045947Y-878227D02*
G01*
X2045947Y-929407D01*
X595129Y-261648D02*
G01*
X595129Y81064D01*
X113530Y-261648D02*
G01*
X113530Y81064D01*
D16*
X595129Y81064D02*
G01*
X113530Y81064D01*
X113530Y-588236D02*
G01*
X595129Y-588236D01*
D11*
X113530Y-588236D02*
G01*
X113530Y-419848D01*
X595129Y-588236D02*
G01*
X595129Y-419848D01*
X496057Y-2769679D02*
G01*
X496057Y-2726379D01*
X507856Y-2714479D01*
X555055Y-2714479D01*
X559058Y-2714479D01*
X570857Y-2726379D01*
X570857Y-2769679D01*
X531489Y-2722433D02*
G01*
X531489Y-2773615D01*
X531491Y-2722433D02*
G01*
X543301Y-2734245D01*
X531489Y-2722433D02*
G01*
X519677Y-2734245D01*
X358267Y-2769679D02*
G01*
X358267Y-2726379D01*
X370066Y-2714479D01*
X417265Y-2714479D01*
X421268Y-2714479D01*
X433067Y-2726379D01*
X433067Y-2769679D01*
X393699Y-2722433D02*
G01*
X393699Y-2773615D01*
X393701Y-2722433D02*
G01*
X405511Y-2734245D01*
X393699Y-2722433D02*
G01*
X381887Y-2734245D01*
X220466Y-2769679D02*
G01*
X220466Y-2726379D01*
X232267Y-2714479D01*
X279466Y-2714479D01*
X283467Y-2714479D01*
X295266Y-2726379D01*
X295266Y-2769679D01*
X255898Y-2722433D02*
G01*
X255898Y-2773615D01*
X255902Y-2722433D02*
G01*
X267710Y-2734245D01*
X255898Y-2722433D02*
G01*
X244088Y-2734245D01*
X82676Y-2769679D02*
G01*
X82676Y-2726379D01*
X94477Y-2714479D01*
X141676Y-2714479D01*
X145677Y-2714479D01*
X157476Y-2726379D01*
X157476Y-2769679D01*
X118110Y-2722435D02*
G01*
X118110Y-2773616D01*
X118110Y-2722435D02*
G01*
X118110Y-2722435D01*
X129922Y-2734245D01*
X118110Y-2722435D02*
G01*
X106298Y-2734245D01*
X594488Y-2492120D02*
G01*
X594488Y-2783458D01*
X594488Y-2715889D02*
G01*
X608269Y-2715889D01*
X608269Y-2715889D02*
G01*
X608269Y-2737944D01*
X594488Y-2737944D01*
X608269Y-2511404D02*
G01*
X608269Y-2533458D01*
X594488Y-2533458D01*
X594488Y-2511404D02*
G01*
X608269Y-2511404D01*
X43306Y-2700403D02*
G01*
X594488Y-2700403D01*
X547269Y-2492204D02*
G01*
X547269Y-2494113D01*
X581554Y-2528400D01*
X503697Y-2492204D02*
G01*
X503697Y-2492685D01*
X467982Y-2528400D01*
X342545Y-2492204D02*
G01*
X342545Y-2494113D01*
X376828Y-2528400D01*
X298973Y-2492204D02*
G01*
X298973Y-2492685D01*
X263256Y-2528400D01*
X143519Y-2492120D02*
G01*
X143519Y-2494027D01*
X177804Y-2528314D01*
X99947Y-2492120D02*
G01*
X99947Y-2492599D01*
X64232Y-2528314D01*
X43306Y-2528314D02*
G01*
X594488Y-2528314D01*
X43306Y-2565351D02*
G01*
X594488Y-2565351D01*
X43306Y-2783458D02*
G01*
X594488Y-2783458D01*
X43306Y-2492120D02*
G01*
X43306Y-2783458D01*
X43306Y-2492120D02*
G01*
X594488Y-2492120D01*
X499481Y-1416918D02*
G01*
X574281Y-1416918D01*
X499481Y-1381518D02*
G01*
X574281Y-1381518D01*
X574281Y-1416918D01*
X499481Y-1281518D02*
G01*
X558481Y-1281518D01*
X558481Y-1316918D01*
X499481Y-1316918D01*
X499481Y-1181518D02*
G01*
X574281Y-1181518D01*
X574281Y-1216918D01*
X499481Y-1216918D01*
X471880Y-1101918D02*
G01*
X499481Y-1101918D01*
X499481Y-1495718D01*
X471880Y-1495718D01*
X1013937Y-798818D02*
G01*
X934291Y-798818D01*
X803937Y-798818D02*
G01*
X883937Y-798818D01*
X1013937Y-416212D02*
G01*
X1013937Y-398818D01*
X1013937Y-798818D02*
G01*
X1013937Y-781422D01*
X803937Y-398818D02*
G01*
X1013937Y-398818D01*
X803937Y-416212D02*
G01*
X803937Y-398818D01*
X803937Y-798818D02*
G01*
X803937Y-781422D01*
X2163584Y-429218D02*
G01*
X1999337Y-593463D01*
X2163584Y-757710D01*
X2327830Y-593463D01*
X2163584Y-429218D01*
D10*
X1634300Y-1093054D02*
G01*
X1634300Y-1354582D01*
X923576Y-1354582D01*
X923576Y-1093054D01*
X1634300Y-1093054D01*
D11*
X2824440Y-2777555D02*
G01*
X2824440Y-2718497D01*
X2911813Y-2718497D01*
X2911813Y-2777555D01*
X2799206Y-2486215D02*
G01*
X2799206Y-2777552D01*
X3901171Y-2777552D01*
X3901174Y-2486215D01*
X2799600Y-2486215D01*
X3788622Y-2777568D02*
G01*
X3788622Y-2718510D01*
X3875995Y-2718510D01*
X3875995Y-2777568D01*
X3650833Y-2777568D02*
G01*
X3650833Y-2718510D01*
X3738204Y-2718510D01*
X3738204Y-2777568D01*
X3513031Y-2777568D02*
G01*
X3513031Y-2718510D01*
X3600405Y-2718510D01*
X3600405Y-2777568D01*
X3375607Y-2777552D02*
G01*
X3375607Y-2718497D01*
X3462979Y-2718497D01*
X3462979Y-2777552D01*
X3237816Y-2777552D02*
G01*
X3237816Y-2718497D01*
X3325190Y-2718497D01*
X3325190Y-2777552D01*
X3100016Y-2777552D02*
G01*
X3100016Y-2718497D01*
X3187389Y-2718497D01*
X3187389Y-2777552D01*
X2962226Y-2777552D02*
G01*
X2962226Y-2718497D01*
X3049598Y-2718497D01*
X3049598Y-2777552D01*
X1722079Y-2777555D02*
G01*
X1722079Y-2718497D01*
X1809453Y-2718497D01*
X1809453Y-2777555D01*
X1696846Y-2486215D02*
G01*
X1696846Y-2777552D01*
X2798811Y-2777552D01*
X2798814Y-2486215D01*
X1697240Y-2486215D01*
X2686262Y-2777568D02*
G01*
X2686262Y-2718510D01*
X2773635Y-2718510D01*
X2773635Y-2777568D01*
X2548473Y-2777568D02*
G01*
X2548473Y-2718510D01*
X2635844Y-2718510D01*
X2635844Y-2777568D01*
X2410671Y-2777568D02*
G01*
X2410671Y-2718510D01*
X2498045Y-2718510D01*
X2498045Y-2777568D01*
X2273247Y-2777552D02*
G01*
X2273247Y-2718497D01*
X2360619Y-2718497D01*
X2360619Y-2777552D01*
X2135456Y-2777552D02*
G01*
X2135456Y-2718497D01*
X2222830Y-2718497D01*
X2222830Y-2777552D01*
X1997656Y-2777552D02*
G01*
X1997656Y-2718497D01*
X2085029Y-2718497D01*
X2085029Y-2777552D01*
X1859866Y-2777552D02*
G01*
X1859866Y-2718497D01*
X1947238Y-2718497D01*
X1947238Y-2777552D01*
X619720Y-2777555D02*
G01*
X619720Y-2718497D01*
X707092Y-2718497D01*
X707092Y-2777555D01*
X594486Y-2486215D02*
G01*
X594486Y-2777552D01*
X1696451Y-2777552D01*
X1696454Y-2486215D01*
X594879Y-2486215D01*
X1583903Y-2777568D02*
G01*
X1583903Y-2718510D01*
X1671274Y-2718510D01*
X1671274Y-2777568D01*
X1446112Y-2777568D02*
G01*
X1446112Y-2718510D01*
X1533485Y-2718510D01*
X1533485Y-2777568D01*
X1308311Y-2777568D02*
G01*
X1308311Y-2718510D01*
X1395685Y-2718510D01*
X1395685Y-2777568D01*
X1170887Y-2777552D02*
G01*
X1170887Y-2718497D01*
X1258260Y-2718497D01*
X1258260Y-2777552D01*
X1033096Y-2777552D02*
G01*
X1033096Y-2718497D01*
X1120469Y-2718497D01*
X1120469Y-2777552D01*
X895297Y-2777552D02*
G01*
X895297Y-2718497D01*
X982669Y-2718497D01*
X982669Y-2777552D01*
X757505Y-2777552D02*
G01*
X757505Y-2718497D01*
X844879Y-2718497D01*
X844879Y-2777552D01*
D10*
X2841819Y-1163919D02*
G01*
X2841819Y-1283715D01*
X2446055Y-1283715D01*
X2446055Y-1163919D01*
X2841819Y-1163919D01*
X2156819Y-1163919D02*
G01*
X2156819Y-1283715D01*
X1761055Y-1283715D01*
X1761055Y-1163919D01*
X2156819Y-1163919D01*
X3539892Y-1331422D02*
G01*
X3420096Y-1331422D01*
X3420096Y-1128573D01*
X3539892Y-1128573D01*
X3539892Y-1331422D01*
X379039Y-1957393D02*
G01*
X498836Y-1957393D01*
X498836Y-2160243D01*
X379039Y-2160243D01*
X379039Y-1957393D01*
X124039Y-2182393D02*
G01*
X243836Y-2182393D01*
X243836Y-2385243D01*
X124039Y-2385243D01*
X124039Y-2182393D01*
D11*
X3460194Y-1962046D02*
G01*
X3455513Y-1962046D01*
X3652938Y-1962046D02*
G01*
X3647682Y-1962046D01*
X3460194Y-2115590D02*
G01*
X3455513Y-2115590D01*
X3652938Y-2115590D02*
G01*
X3647682Y-2115590D01*
X3652938Y-2065817D02*
G01*
X3652938Y-2115590D01*
X3652938Y-1962046D02*
G01*
X3652938Y-2011817D01*
X3455513Y-2115590D02*
G01*
X3455513Y-1962046D01*
X2910194Y-1962046D02*
G01*
X2905513Y-1962046D01*
X3102938Y-1962046D02*
G01*
X3097682Y-1962046D01*
X2910194Y-2115590D02*
G01*
X2905513Y-2115590D01*
X3102938Y-2115590D02*
G01*
X3097682Y-2115590D01*
X3102938Y-2065817D02*
G01*
X3102938Y-2115590D01*
X3102938Y-1962046D02*
G01*
X3102938Y-2011817D01*
X2905513Y-2115590D02*
G01*
X2905513Y-1962046D01*
X2360194Y-1962046D02*
G01*
X2355513Y-1962046D01*
X2552938Y-1962046D02*
G01*
X2547682Y-1962046D01*
X2360194Y-2115590D02*
G01*
X2355513Y-2115590D01*
X2552938Y-2115590D02*
G01*
X2547682Y-2115590D01*
X2552938Y-2065817D02*
G01*
X2552938Y-2115590D01*
X2552938Y-1962046D02*
G01*
X2552938Y-2011817D01*
X2355513Y-2115590D02*
G01*
X2355513Y-1962046D01*
X1810194Y-1962046D02*
G01*
X1805513Y-1962046D01*
X2002938Y-1962046D02*
G01*
X1997682Y-1962046D01*
X1810194Y-2115590D02*
G01*
X1805513Y-2115590D01*
X2002938Y-2115590D02*
G01*
X1997682Y-2115590D01*
X2002938Y-2065817D02*
G01*
X2002938Y-2115590D01*
X2002938Y-1962046D02*
G01*
X2002938Y-2011817D01*
X1805513Y-2115590D02*
G01*
X1805513Y-1962046D01*
X1260194Y-1962046D02*
G01*
X1255513Y-1962046D01*
X1452938Y-1962046D02*
G01*
X1447682Y-1962046D01*
X1260194Y-2115590D02*
G01*
X1255513Y-2115590D01*
X1452938Y-2115590D02*
G01*
X1447682Y-2115590D01*
X1452938Y-2065817D02*
G01*
X1452938Y-2115590D01*
X1452938Y-1962046D02*
G01*
X1452938Y-2011817D01*
X1255513Y-2115590D02*
G01*
X1255513Y-1962046D01*
X710194Y-1962046D02*
G01*
X705513Y-1962046D01*
X902938Y-1962046D02*
G01*
X897682Y-1962046D01*
X710194Y-2115590D02*
G01*
X705513Y-2115590D01*
X902938Y-2115590D02*
G01*
X897682Y-2115590D01*
X902938Y-2065817D02*
G01*
X902938Y-2115590D01*
X902938Y-1962046D02*
G01*
X902938Y-2011817D01*
X705513Y-2115590D02*
G01*
X705513Y-1962046D01*
D15*
X3475333Y-1756100D02*
G01*
X3475333Y-1716739D01*
X3622573Y-1716729D01*
X3622573Y-1757680D01*
X3622557Y-1791532D02*
G01*
X3622557Y-1831682D01*
X3475317Y-1831693D01*
X3475317Y-1790736D01*
X1839363Y-393337D02*
G01*
X1811531Y-365504D01*
X1915637Y-261383D01*
X1944594Y-290338D01*
X1968522Y-314286D02*
G01*
X1996912Y-342678D01*
X1892804Y-446799D01*
X1863843Y-417838D01*
D10*
X3202686Y-2384924D02*
G01*
X3253274Y-2384924D01*
X3253274Y-2312712D01*
X3202686Y-2312712D01*
X3165190Y-2384924D02*
G01*
X3114602Y-2384924D01*
X3114602Y-2312712D01*
X3165190Y-2312712D01*
X2852686Y-2384924D02*
G01*
X2903274Y-2384924D01*
X2903274Y-2312712D01*
X2852686Y-2312712D01*
X2815190Y-2384924D02*
G01*
X2764602Y-2384924D01*
X2764602Y-2312712D01*
X2815190Y-2312712D01*
X3397686Y-2384924D02*
G01*
X3448274Y-2384924D01*
X3448274Y-2312712D01*
X3397686Y-2312712D01*
X3360190Y-2384924D02*
G01*
X3309602Y-2384924D01*
X3309602Y-2312712D01*
X3360190Y-2312712D01*
X3752686Y-2384924D02*
G01*
X3803274Y-2384924D01*
X3803274Y-2312712D01*
X3752686Y-2312712D01*
X3715190Y-2384924D02*
G01*
X3664602Y-2384924D01*
X3664602Y-2312712D01*
X3715190Y-2312712D01*
X2652686Y-2384924D02*
G01*
X2703274Y-2384924D01*
X2703274Y-2312712D01*
X2652686Y-2312712D01*
X2615190Y-2384924D02*
G01*
X2564602Y-2384924D01*
X2564602Y-2312712D01*
X2615190Y-2312712D01*
X2292686Y-2384924D02*
G01*
X2343274Y-2384924D01*
X2343274Y-2312712D01*
X2292686Y-2312712D01*
X2255190Y-2384924D02*
G01*
X2204602Y-2384924D01*
X2204602Y-2312712D01*
X2255190Y-2312712D01*
X2102686Y-2384924D02*
G01*
X2153274Y-2384924D01*
X2153274Y-2312712D01*
X2102686Y-2312712D01*
X2065190Y-2384924D02*
G01*
X2014602Y-2384924D01*
X2014602Y-2312712D01*
X2065190Y-2312712D01*
X1742686Y-2384924D02*
G01*
X1793274Y-2384924D01*
X1793274Y-2312712D01*
X1742686Y-2312712D01*
X1705190Y-2384924D02*
G01*
X1654602Y-2384924D01*
X1654602Y-2312712D01*
X1705190Y-2312712D01*
X1547686Y-2384924D02*
G01*
X1598274Y-2384924D01*
X1598274Y-2312712D01*
X1547686Y-2312712D01*
X1510190Y-2384924D02*
G01*
X1459602Y-2384924D01*
X1459602Y-2312712D01*
X1510190Y-2312712D01*
X1192686Y-2384924D02*
G01*
X1243274Y-2384924D01*
X1243274Y-2312712D01*
X1192686Y-2312712D01*
X1155190Y-2384924D02*
G01*
X1104602Y-2384924D01*
X1104602Y-2312712D01*
X1155190Y-2312712D01*
X647685Y-2384924D02*
G01*
X698274Y-2384924D01*
X698274Y-2312712D01*
X647685Y-2312712D01*
X610189Y-2384924D02*
G01*
X559601Y-2384924D01*
X559601Y-2312712D01*
X610189Y-2312712D01*
X997686Y-2384924D02*
G01*
X1048274Y-2384924D01*
X1048274Y-2312712D01*
X997686Y-2312712D01*
X960190Y-2384924D02*
G01*
X909602Y-2384924D01*
X909602Y-2312712D01*
X960190Y-2312712D01*
X3137929Y-1855598D02*
G01*
X3137929Y-1893348D01*
X3189946Y-1893348D01*
X3189946Y-1855598D01*
X3137929Y-1822037D02*
G01*
X3137929Y-1784286D01*
X3189946Y-1784286D01*
X3189946Y-1822037D01*
X3692929Y-1860598D02*
G01*
X3692929Y-1898348D01*
X3744946Y-1898348D01*
X3744946Y-1860598D01*
X3692929Y-1827037D02*
G01*
X3692929Y-1789286D01*
X3744946Y-1789286D01*
X3744946Y-1827037D01*
X3625717Y-2454825D02*
G01*
X3663468Y-2454825D01*
X3663468Y-2402809D01*
X3625717Y-2402809D01*
X3592157Y-2454825D02*
G01*
X3554407Y-2454825D01*
X3554407Y-2402809D01*
X3592157Y-2402809D01*
X3477157Y-2402809D02*
G01*
X3439407Y-2402809D01*
X3439407Y-2454825D01*
X3477157Y-2454825D01*
X3510717Y-2402809D02*
G01*
X3548468Y-2402809D01*
X3548468Y-2454825D01*
X3510717Y-2454825D01*
X3080717Y-2454825D02*
G01*
X3118468Y-2454825D01*
X3118468Y-2402809D01*
X3080717Y-2402809D01*
X3047157Y-2454825D02*
G01*
X3009407Y-2454825D01*
X3009407Y-2402809D01*
X3047157Y-2402809D01*
X2932157Y-2402809D02*
G01*
X2894407Y-2402809D01*
X2894407Y-2454825D01*
X2932157Y-2454825D01*
X2965717Y-2402809D02*
G01*
X3003468Y-2402809D01*
X3003468Y-2454825D01*
X2965717Y-2454825D01*
X2587929Y-1855598D02*
G01*
X2587929Y-1893348D01*
X2639946Y-1893348D01*
X2639946Y-1855598D01*
X2587929Y-1822037D02*
G01*
X2587929Y-1784286D01*
X2639946Y-1784286D01*
X2639946Y-1822037D01*
X2037929Y-1855598D02*
G01*
X2037929Y-1893348D01*
X2089946Y-1893348D01*
X2089946Y-1855598D01*
X2037929Y-1822037D02*
G01*
X2037929Y-1784286D01*
X2089946Y-1784286D01*
X2089946Y-1822037D01*
X1487929Y-1855598D02*
G01*
X1487929Y-1893348D01*
X1539946Y-1893348D01*
X1539946Y-1855598D01*
X1487929Y-1822037D02*
G01*
X1487929Y-1784286D01*
X1539946Y-1784286D01*
X1539946Y-1822037D01*
X932929Y-1855598D02*
G01*
X932929Y-1893348D01*
X984945Y-1893348D01*
X984945Y-1855598D01*
X932929Y-1822037D02*
G01*
X932929Y-1784286D01*
X984945Y-1784286D01*
X984945Y-1822037D01*
X1090717Y-1524825D02*
G01*
X1128468Y-1524825D01*
X1128468Y-1472809D01*
X1090717Y-1472809D01*
X1057157Y-1524825D02*
G01*
X1019407Y-1524825D01*
X1019407Y-1472809D01*
X1057157Y-1472809D01*
X2377157Y-2402809D02*
G01*
X2339407Y-2402809D01*
X2339407Y-2454825D01*
X2377157Y-2454825D01*
X2410717Y-2402809D02*
G01*
X2448468Y-2402809D01*
X2448468Y-2454825D01*
X2410717Y-2454825D01*
X2525717Y-2454825D02*
G01*
X2563468Y-2454825D01*
X2563468Y-2402809D01*
X2525717Y-2402809D01*
X2492157Y-2454825D02*
G01*
X2454407Y-2454825D01*
X2454407Y-2402809D01*
X2492157Y-2402809D01*
X1827157Y-2402809D02*
G01*
X1789407Y-2402809D01*
X1789407Y-2454825D01*
X1827157Y-2454825D01*
X1860717Y-2402809D02*
G01*
X1898468Y-2402809D01*
X1898468Y-2454825D01*
X1860717Y-2454825D01*
X1975717Y-2454825D02*
G01*
X2013468Y-2454825D01*
X2013468Y-2402809D01*
X1975717Y-2402809D01*
X1942157Y-2454825D02*
G01*
X1904407Y-2454825D01*
X1904407Y-2402809D01*
X1942157Y-2402809D01*
X1277157Y-2402809D02*
G01*
X1239407Y-2402809D01*
X1239407Y-2454825D01*
X1277157Y-2454825D01*
X1310717Y-2402809D02*
G01*
X1348468Y-2402809D01*
X1348468Y-2454825D01*
X1310717Y-2454825D01*
X1425717Y-2454825D02*
G01*
X1463468Y-2454825D01*
X1463468Y-2402809D01*
X1425717Y-2402809D01*
X1392157Y-2454825D02*
G01*
X1354407Y-2454825D01*
X1354407Y-2402809D01*
X1392157Y-2402809D01*
X732157Y-2402809D02*
G01*
X694407Y-2402809D01*
X694407Y-2454825D01*
X732157Y-2454825D01*
X765717Y-2402809D02*
G01*
X803468Y-2402809D01*
X803468Y-2454825D01*
X765717Y-2454825D01*
X880717Y-2454825D02*
G01*
X918468Y-2454825D01*
X918468Y-2402809D01*
X880717Y-2402809D01*
X847157Y-2454825D02*
G01*
X809407Y-2454825D01*
X809407Y-2402809D01*
X847157Y-2402809D01*
X2555717Y-1054825D02*
G01*
X2593468Y-1054825D01*
X2593468Y-1002809D01*
X2555717Y-1002809D01*
X2522157Y-1054825D02*
G01*
X2484407Y-1054825D01*
X2484407Y-1002809D01*
X2522157Y-1002809D01*
X1870717Y-1034825D02*
G01*
X1908468Y-1034825D01*
X1908468Y-982809D01*
X1870717Y-982809D01*
X1837157Y-1034825D02*
G01*
X1799407Y-1034825D01*
X1799407Y-982809D01*
X1837157Y-982809D01*
X2252157Y-1832809D02*
G01*
X2214407Y-1832809D01*
X2214407Y-1884825D01*
X2252157Y-1884825D01*
X2285717Y-1832809D02*
G01*
X2323468Y-1832809D01*
X2323468Y-1884825D01*
X2285717Y-1884825D01*
X2272929Y-1785598D02*
G01*
X2272929Y-1823348D01*
X2324946Y-1823348D01*
X2324946Y-1785598D01*
X2272929Y-1752037D02*
G01*
X2272929Y-1714286D01*
X2324946Y-1714286D01*
X2324946Y-1752037D01*
X2272929Y-1670598D02*
G01*
X2272929Y-1708348D01*
X2324946Y-1708348D01*
X2324946Y-1670598D01*
X2272929Y-1637037D02*
G01*
X2272929Y-1599286D01*
X2324946Y-1599286D01*
X2324946Y-1637037D01*
X1702157Y-1832809D02*
G01*
X1664407Y-1832809D01*
X1664407Y-1884825D01*
X1702157Y-1884825D01*
X1735717Y-1832809D02*
G01*
X1773468Y-1832809D01*
X1773468Y-1884825D01*
X1735717Y-1884825D01*
X1722929Y-1785598D02*
G01*
X1722929Y-1823348D01*
X1774946Y-1823348D01*
X1774946Y-1785598D01*
X1722929Y-1752037D02*
G01*
X1722929Y-1714286D01*
X1774946Y-1714286D01*
X1774946Y-1752037D01*
X1722929Y-1670598D02*
G01*
X1722929Y-1708348D01*
X1774946Y-1708348D01*
X1774946Y-1670598D01*
X1722929Y-1637037D02*
G01*
X1722929Y-1599286D01*
X1774946Y-1599286D01*
X1774946Y-1637037D01*
X1157157Y-1832809D02*
G01*
X1119407Y-1832809D01*
X1119407Y-1884825D01*
X1157157Y-1884825D01*
X1190717Y-1832809D02*
G01*
X1228468Y-1832809D01*
X1228468Y-1884825D01*
X1190717Y-1884825D01*
X1177929Y-1785598D02*
G01*
X1177929Y-1823348D01*
X1229946Y-1823348D01*
X1229946Y-1785598D01*
X1177929Y-1752037D02*
G01*
X1177929Y-1714286D01*
X1229946Y-1714286D01*
X1229946Y-1752037D01*
X1177929Y-1670598D02*
G01*
X1177929Y-1708348D01*
X1229946Y-1708348D01*
X1229946Y-1670598D01*
X1177929Y-1637037D02*
G01*
X1177929Y-1599286D01*
X1229946Y-1599286D01*
X1229946Y-1637037D01*
X3352157Y-1832809D02*
G01*
X3314407Y-1832809D01*
X3314407Y-1884825D01*
X3352157Y-1884825D01*
X3385717Y-1832809D02*
G01*
X3423468Y-1832809D01*
X3423468Y-1884825D01*
X3385717Y-1884825D01*
X3372929Y-1785598D02*
G01*
X3372929Y-1823348D01*
X3424946Y-1823348D01*
X3424946Y-1785598D01*
X3372929Y-1752037D02*
G01*
X3372929Y-1714286D01*
X3424946Y-1714286D01*
X3424946Y-1752037D01*
X3372929Y-1670598D02*
G01*
X3372929Y-1708348D01*
X3424946Y-1708348D01*
X3424946Y-1670598D01*
X3372929Y-1637037D02*
G01*
X3372929Y-1599286D01*
X3424946Y-1599286D01*
X3424946Y-1637037D01*
X2822929Y-1670598D02*
G01*
X2822929Y-1708348D01*
X2874946Y-1708348D01*
X2874946Y-1670598D01*
X2822929Y-1637037D02*
G01*
X2822929Y-1599286D01*
X2874946Y-1599286D01*
X2874946Y-1637037D01*
X2822929Y-1785598D02*
G01*
X2822929Y-1823348D01*
X2874946Y-1823348D01*
X2874946Y-1785598D01*
X2822929Y-1752037D02*
G01*
X2822929Y-1714286D01*
X2874946Y-1714286D01*
X2874946Y-1752037D01*
X2802157Y-1832809D02*
G01*
X2764407Y-1832809D01*
X2764407Y-1884825D01*
X2802157Y-1884825D01*
X2835717Y-1832809D02*
G01*
X2873468Y-1832809D01*
X2873468Y-1884825D01*
X2835717Y-1884825D01*
X2947929Y-820598D02*
G01*
X2947929Y-858348D01*
X2999946Y-858348D01*
X2999946Y-820598D01*
X2947929Y-787037D02*
G01*
X2947929Y-749286D01*
X2999946Y-749286D01*
X2999946Y-787037D01*
X3059946Y-787037D02*
G01*
X3059946Y-749286D01*
X3007929Y-749286D01*
X3007929Y-787037D01*
X3059946Y-820598D02*
G01*
X3059946Y-858348D01*
X3007929Y-858348D01*
X3007929Y-820598D01*
X3067929Y-820598D02*
G01*
X3067929Y-858348D01*
X3119946Y-858348D01*
X3119946Y-820598D01*
X3067929Y-787037D02*
G01*
X3067929Y-749286D01*
X3119946Y-749286D01*
X3119946Y-787037D01*
X602157Y-1832809D02*
G01*
X564407Y-1832809D01*
X564407Y-1884825D01*
X602157Y-1884825D01*
X635718Y-1832809D02*
G01*
X673469Y-1832809D01*
X673469Y-1884825D01*
X635718Y-1884825D01*
X622930Y-1785598D02*
G01*
X622930Y-1823348D01*
X674945Y-1823348D01*
X674945Y-1785598D01*
X622930Y-1752037D02*
G01*
X622930Y-1714286D01*
X674945Y-1714286D01*
X674945Y-1752037D01*
X622930Y-1670598D02*
G01*
X622930Y-1708348D01*
X674945Y-1708348D01*
X674945Y-1670598D01*
X622930Y-1637037D02*
G01*
X622930Y-1599286D01*
X674945Y-1599286D01*
X674945Y-1637037D01*
X436332Y-1926188D02*
G01*
X491543Y-1926188D01*
X436332Y-1841448D02*
G01*
X491543Y-1841448D01*
D11*
X1894495Y-174000D02*
G01*
X1894495Y-105999D01*
X1894495Y-105999D02*
G01*
X1836495Y-105999D01*
X1894495Y-174000D02*
G01*
X1836495Y-174000D01*
X1813495Y-105999D02*
G01*
X1767496Y-105999D01*
X1812496Y-174000D02*
G01*
X1767496Y-174000D01*
X1767496Y-174000D02*
G01*
X1753495Y-160000D01*
X1753495Y-120000D01*
X1767496Y-105999D01*
D17*
X1827996Y-155999D02*
G01*
X1827996Y-125000D01*
X1827996Y-140313D02*
G01*
X1821091Y-140313D01*
D14*
X608937Y-983818D02*
G01*
X608937Y-1013818D01*
X498937Y-983818D02*
G01*
X498937Y-1013818D01*
X538937Y-1023818D02*
G01*
X508937Y-1023818D01*
X538937Y-973818D02*
G01*
X508937Y-973818D01*
X568937Y-1023818D02*
G01*
X598937Y-1023818D01*
X568937Y-973818D02*
G01*
X598937Y-973818D01*
D11*
X692127Y-1033188D02*
G01*
X692127Y-954448D01*
X656694Y-954448D02*
G01*
X691828Y-954448D01*
X656694Y-954448D02*
G01*
X656694Y-959717D01*
X656694Y-1033188D02*
G01*
X656694Y-1027917D01*
X656694Y-1033188D02*
G01*
X691828Y-1033188D01*
D10*
X3614025Y-2327408D02*
G01*
X3614025Y-2270227D01*
X3573410Y-2270227D01*
X3493851Y-2327408D02*
G01*
X3493851Y-2270227D01*
X3534466Y-2270227D01*
X3571867Y-2327408D02*
G01*
X3536009Y-2327408D01*
X3064025Y-2327408D02*
G01*
X3064025Y-2270227D01*
X3023410Y-2270227D01*
X2943851Y-2327408D02*
G01*
X2943851Y-2270227D01*
X2984466Y-2270227D01*
X3021867Y-2327408D02*
G01*
X2986009Y-2327408D01*
X2514025Y-2327408D02*
G01*
X2514025Y-2270227D01*
X2473410Y-2270227D01*
X2393851Y-2327408D02*
G01*
X2393851Y-2270227D01*
X2434466Y-2270227D01*
X2471867Y-2327408D02*
G01*
X2436009Y-2327408D01*
X1964025Y-2327408D02*
G01*
X1964025Y-2270227D01*
X1923410Y-2270227D01*
X1843851Y-2327408D02*
G01*
X1843851Y-2270227D01*
X1884466Y-2270227D01*
X1921867Y-2327408D02*
G01*
X1886009Y-2327408D01*
X1414025Y-2327408D02*
G01*
X1414025Y-2270227D01*
X1373410Y-2270227D01*
X1293851Y-2327408D02*
G01*
X1293851Y-2270227D01*
X1334466Y-2270227D01*
X1371867Y-2327408D02*
G01*
X1336009Y-2327408D01*
X864025Y-2327408D02*
G01*
X864025Y-2270227D01*
X823410Y-2270227D01*
X743850Y-2327408D02*
G01*
X743850Y-2270227D01*
X784466Y-2270227D01*
X821867Y-2327408D02*
G01*
X786009Y-2327408D01*
D11*
X2228937Y-1736817D02*
G01*
X2244938Y-1759818D01*
X2244938Y-1759818D02*
G01*
X2212938Y-1759818D01*
X2212938Y-1759818D02*
G01*
X2228937Y-1736817D01*
X2262403Y-1690817D02*
G01*
X2262403Y-1796817D01*
X2195473Y-1796817D02*
G01*
X2195473Y-1690817D01*
X2248937Y-1733818D02*
G01*
X2208937Y-1733818D01*
X1678937Y-1736817D02*
G01*
X1694938Y-1759818D01*
X1694938Y-1759818D02*
G01*
X1662938Y-1759818D01*
X1662938Y-1759818D02*
G01*
X1678937Y-1736817D01*
X1712403Y-1690817D02*
G01*
X1712403Y-1796817D01*
X1645473Y-1796817D02*
G01*
X1645473Y-1690817D01*
X1698937Y-1733818D02*
G01*
X1658937Y-1733818D01*
X1133937Y-1736817D02*
G01*
X1149938Y-1759818D01*
X1149938Y-1759818D02*
G01*
X1117938Y-1759818D01*
X1117938Y-1759818D02*
G01*
X1133937Y-1736817D01*
X1167403Y-1690817D02*
G01*
X1167403Y-1796817D01*
X1100473Y-1796817D02*
G01*
X1100473Y-1690817D01*
X1153937Y-1733818D02*
G01*
X1113937Y-1733818D01*
X3328937Y-1736817D02*
G01*
X3344938Y-1759818D01*
X3344938Y-1759818D02*
G01*
X3312938Y-1759818D01*
X3312938Y-1759818D02*
G01*
X3328937Y-1736817D01*
X3362403Y-1690817D02*
G01*
X3362403Y-1796817D01*
X3295473Y-1796817D02*
G01*
X3295473Y-1690817D01*
X3348937Y-1733818D02*
G01*
X3308937Y-1733818D01*
X2778937Y-1736817D02*
G01*
X2794938Y-1759818D01*
X2794938Y-1759818D02*
G01*
X2762938Y-1759818D01*
X2762938Y-1759818D02*
G01*
X2778937Y-1736817D01*
X2812403Y-1690817D02*
G01*
X2812403Y-1796817D01*
X2745473Y-1796817D02*
G01*
X2745473Y-1690817D01*
X2798937Y-1733818D02*
G01*
X2758937Y-1733818D01*
X2833937Y-796817D02*
G01*
X2849938Y-819818D01*
X2849938Y-819818D02*
G01*
X2817938Y-819818D01*
X2817938Y-819818D02*
G01*
X2833937Y-796817D01*
X2867403Y-750817D02*
G01*
X2867403Y-856817D01*
X2800473Y-856817D02*
G01*
X2800473Y-750817D01*
X2853937Y-793818D02*
G01*
X2813937Y-793818D01*
X578937Y-1736817D02*
G01*
X594938Y-1759818D01*
X594938Y-1759818D02*
G01*
X562937Y-1759818D01*
X562937Y-1759818D02*
G01*
X578937Y-1736817D01*
X612402Y-1690817D02*
G01*
X612402Y-1796817D01*
X545473Y-1796817D02*
G01*
X545473Y-1690817D01*
X598937Y-1733818D02*
G01*
X558937Y-1733818D01*
X3368263Y-742557D02*
G01*
X3368263Y-780700D01*
X3368263Y-742557D02*
G01*
X3651728Y-742557D01*
X3368263Y-949295D02*
G01*
X3368263Y-987438D01*
X3569996Y-864998D02*
G01*
X3489996Y-864998D01*
X3509996Y-884998D02*
G01*
X3509996Y-844998D01*
X3509996Y-864998D02*
G01*
X3509996Y-884998D01*
X3549996Y-844998D02*
G01*
X3509996Y-864998D01*
X3549996Y-884998D02*
G01*
X3549996Y-844998D01*
X3509996Y-864998D02*
G01*
X3549996Y-884998D01*
X3368263Y-987438D02*
G01*
X3651728Y-987438D01*
X3651728Y-742557D02*
G01*
X3651728Y-780700D01*
X3651728Y-949295D02*
G01*
X3651728Y-987438D01*
X3509524Y-864998D02*
G01*
X3469524Y-844998D01*
X3469524Y-844998D02*
G01*
X3469524Y-884998D01*
X3469524Y-884998D02*
G01*
X3509524Y-864998D01*
X3509524Y-864998D02*
G01*
X3509524Y-844998D01*
X3509524Y-844998D02*
G01*
X3509524Y-884998D01*
X3449524Y-864998D02*
G01*
X3529524Y-864998D01*
D18*
X616938Y-865318D02*
G01*
X740938Y-865318D01*
X615938Y-802318D02*
G01*
X741938Y-802318D01*
X666201Y-865318D02*
G01*
X666349Y-802318D01*
X1970937Y-817318D02*
G01*
X1846938Y-817318D01*
X1971938Y-880318D02*
G01*
X1845937Y-880318D01*
X1921674Y-817318D02*
G01*
X1921526Y-880318D01*
D10*
X728362Y-1147510D02*
G01*
X728362Y-1203022D01*
X799512Y-1203022D02*
G01*
X799512Y-1147510D01*
X793513Y-1141511D02*
G01*
X734362Y-1141511D01*
X728362Y-1290124D02*
G01*
X728362Y-1234612D01*
X799512Y-1234612D02*
G01*
X799512Y-1290124D01*
X793513Y-1296125D02*
G01*
X734362Y-1296125D01*
X799512Y-1450124D02*
G01*
X799512Y-1394612D01*
X728362Y-1394612D02*
G01*
X728362Y-1450124D01*
X734362Y-1456125D02*
G01*
X793513Y-1456125D01*
X799512Y-1307510D02*
G01*
X799512Y-1363022D01*
X728362Y-1363022D02*
G01*
X728362Y-1307510D01*
X734362Y-1301511D02*
G01*
X793513Y-1301511D01*
X3203362Y-1787510D02*
G01*
X3203362Y-1843022D01*
X3274512Y-1843022D02*
G01*
X3274512Y-1787510D01*
X3268513Y-1781511D02*
G01*
X3209363Y-1781511D01*
X3203362Y-1930124D02*
G01*
X3203362Y-1874612D01*
X3274512Y-1874612D02*
G01*
X3274512Y-1930124D01*
X3268513Y-1936125D02*
G01*
X3209363Y-1936125D01*
X3753362Y-1787510D02*
G01*
X3753362Y-1843022D01*
X3824512Y-1843022D02*
G01*
X3824512Y-1787510D01*
X3818513Y-1781511D02*
G01*
X3759363Y-1781511D01*
X3753362Y-1930124D02*
G01*
X3753362Y-1874612D01*
X3824512Y-1874612D02*
G01*
X3824512Y-1930124D01*
X3818513Y-1936125D02*
G01*
X3759363Y-1936125D01*
X2653362Y-1787510D02*
G01*
X2653362Y-1843022D01*
X2724512Y-1843022D02*
G01*
X2724512Y-1787510D01*
X2718513Y-1781511D02*
G01*
X2659363Y-1781511D01*
X2653362Y-1930124D02*
G01*
X2653362Y-1874612D01*
X2724512Y-1874612D02*
G01*
X2724512Y-1930124D01*
X2718513Y-1936125D02*
G01*
X2659363Y-1936125D01*
X2103362Y-1787510D02*
G01*
X2103362Y-1843022D01*
X2174512Y-1843022D02*
G01*
X2174512Y-1787510D01*
X2168513Y-1781511D02*
G01*
X2109363Y-1781511D01*
X2103362Y-1930124D02*
G01*
X2103362Y-1874612D01*
X2174512Y-1874612D02*
G01*
X2174512Y-1930124D01*
X2168513Y-1936125D02*
G01*
X2109363Y-1936125D01*
X1553362Y-1787510D02*
G01*
X1553362Y-1843022D01*
X1624512Y-1843022D02*
G01*
X1624512Y-1787510D01*
X1618513Y-1781511D02*
G01*
X1559363Y-1781511D01*
X1553362Y-1930124D02*
G01*
X1553362Y-1874612D01*
X1624512Y-1874612D02*
G01*
X1624512Y-1930124D01*
X1618513Y-1936125D02*
G01*
X1559363Y-1936125D01*
X998362Y-1787510D02*
G01*
X998362Y-1843022D01*
X1069512Y-1843022D02*
G01*
X1069512Y-1787510D01*
X1063513Y-1781511D02*
G01*
X1004363Y-1781511D01*
X998362Y-1930124D02*
G01*
X998362Y-1874612D01*
X1069512Y-1874612D02*
G01*
X1069512Y-1930124D01*
X1063513Y-1936125D02*
G01*
X1004363Y-1936125D01*
D11*
X2154212Y-1639556D02*
G01*
X2154212Y-1608060D01*
X2197903Y-1651756D02*
G01*
X2166409Y-1651756D01*
X2197903Y-1595864D02*
G01*
X2166409Y-1595864D01*
X2220577Y-1651984D02*
G01*
X2252073Y-1651984D01*
X2264270Y-1639787D02*
G01*
X2264270Y-1608292D01*
X2220577Y-1596095D02*
G01*
X2252073Y-1596095D01*
X1604212Y-1639556D02*
G01*
X1604212Y-1608060D01*
X1647903Y-1651756D02*
G01*
X1616409Y-1651756D01*
X1647903Y-1595864D02*
G01*
X1616409Y-1595864D01*
X1670577Y-1651984D02*
G01*
X1702073Y-1651984D01*
X1714270Y-1639787D02*
G01*
X1714270Y-1608292D01*
X1670577Y-1596095D02*
G01*
X1702073Y-1596095D01*
X1059212Y-1639556D02*
G01*
X1059212Y-1608060D01*
X1102903Y-1651756D02*
G01*
X1071409Y-1651756D01*
X1102903Y-1595864D02*
G01*
X1071409Y-1595864D01*
X1125577Y-1651984D02*
G01*
X1157073Y-1651984D01*
X1169270Y-1639787D02*
G01*
X1169270Y-1608292D01*
X1125577Y-1596095D02*
G01*
X1157073Y-1596095D01*
X3254212Y-1639556D02*
G01*
X3254212Y-1608060D01*
X3297903Y-1651756D02*
G01*
X3266409Y-1651756D01*
X3297903Y-1595864D02*
G01*
X3266409Y-1595864D01*
X3320577Y-1651984D02*
G01*
X3352073Y-1651984D01*
X3364270Y-1639787D02*
G01*
X3364270Y-1608292D01*
X3320577Y-1596095D02*
G01*
X3352073Y-1596095D01*
X2704212Y-1639556D02*
G01*
X2704212Y-1608060D01*
X2747903Y-1651756D02*
G01*
X2716409Y-1651756D01*
X2747903Y-1595864D02*
G01*
X2716409Y-1595864D01*
X2770577Y-1651984D02*
G01*
X2802073Y-1651984D01*
X2814270Y-1639787D02*
G01*
X2814270Y-1608292D01*
X2770577Y-1596095D02*
G01*
X2802073Y-1596095D01*
X738663Y-893078D02*
G01*
X738663Y-924576D01*
X694971Y-880880D02*
G01*
X726466Y-880880D01*
X694971Y-936772D02*
G01*
X726466Y-936772D01*
X672298Y-880650D02*
G01*
X640803Y-880650D01*
X628604Y-892849D02*
G01*
X628604Y-924344D01*
X672298Y-936541D02*
G01*
X640803Y-936541D01*
X1308662Y-723078D02*
G01*
X1308662Y-754576D01*
X1264971Y-710880D02*
G01*
X1296467Y-710880D01*
X1264971Y-766772D02*
G01*
X1296467Y-766772D01*
X1242299Y-710650D02*
G01*
X1210802Y-710650D01*
X1198604Y-722849D02*
G01*
X1198604Y-754344D01*
X1242299Y-766541D02*
G01*
X1210802Y-766541D01*
X2406504Y-353991D02*
G01*
X2428777Y-376264D01*
X2366985Y-376260D02*
G01*
X2389255Y-353989D01*
X2406507Y-415781D02*
G01*
X2428777Y-393512D01*
X2350790Y-392130D02*
G01*
X2328519Y-414402D01*
X2328519Y-431653D02*
G01*
X2350789Y-453922D01*
X2390311Y-431651D02*
G01*
X2368040Y-453921D01*
X3228662Y-2243078D02*
G01*
X3228662Y-2274576D01*
X3184971Y-2230880D02*
G01*
X3216467Y-2230880D01*
X3184971Y-2286772D02*
G01*
X3216467Y-2286772D01*
X3162299Y-2230650D02*
G01*
X3130802Y-2230650D01*
X3118604Y-2242849D02*
G01*
X3118604Y-2274344D01*
X3162299Y-2286541D02*
G01*
X3130802Y-2286541D01*
X2898662Y-2243078D02*
G01*
X2898662Y-2274576D01*
X2854971Y-2230880D02*
G01*
X2886467Y-2230880D01*
X2854971Y-2286772D02*
G01*
X2886467Y-2286772D01*
X2832299Y-2230650D02*
G01*
X2800802Y-2230650D01*
X2788604Y-2242849D02*
G01*
X2788604Y-2274344D01*
X2832299Y-2286541D02*
G01*
X2800802Y-2286541D01*
X3778662Y-2243078D02*
G01*
X3778662Y-2274576D01*
X3734971Y-2230880D02*
G01*
X3766467Y-2230880D01*
X3734971Y-2286772D02*
G01*
X3766467Y-2286772D01*
X3712299Y-2230650D02*
G01*
X3680802Y-2230650D01*
X3668604Y-2242849D02*
G01*
X3668604Y-2274344D01*
X3712299Y-2286541D02*
G01*
X3680802Y-2286541D01*
X3443662Y-2243078D02*
G01*
X3443662Y-2274576D01*
X3399971Y-2230880D02*
G01*
X3431467Y-2230880D01*
X3399971Y-2286772D02*
G01*
X3431467Y-2286772D01*
X3377299Y-2230650D02*
G01*
X3345802Y-2230650D01*
X3333604Y-2242849D02*
G01*
X3333604Y-2274344D01*
X3377299Y-2286541D02*
G01*
X3345802Y-2286541D01*
X2338662Y-2243078D02*
G01*
X2338662Y-2274576D01*
X2294971Y-2230880D02*
G01*
X2326467Y-2230880D01*
X2294971Y-2286772D02*
G01*
X2326467Y-2286772D01*
X2272299Y-2230650D02*
G01*
X2240802Y-2230650D01*
X2228604Y-2242849D02*
G01*
X2228604Y-2274344D01*
X2272299Y-2286541D02*
G01*
X2240802Y-2286541D01*
X2673662Y-2243078D02*
G01*
X2673662Y-2274576D01*
X2629971Y-2230880D02*
G01*
X2661467Y-2230880D01*
X2629971Y-2286772D02*
G01*
X2661467Y-2286772D01*
X2607299Y-2230650D02*
G01*
X2575802Y-2230650D01*
X2563604Y-2242849D02*
G01*
X2563604Y-2274344D01*
X2607299Y-2286541D02*
G01*
X2575802Y-2286541D01*
X1788662Y-2243078D02*
G01*
X1788662Y-2274576D01*
X1744971Y-2230880D02*
G01*
X1776467Y-2230880D01*
X1744971Y-2286772D02*
G01*
X1776467Y-2286772D01*
X1722299Y-2230650D02*
G01*
X1690802Y-2230650D01*
X1678604Y-2242849D02*
G01*
X1678604Y-2274344D01*
X1722299Y-2286541D02*
G01*
X1690802Y-2286541D01*
X2128662Y-2243078D02*
G01*
X2128662Y-2274576D01*
X2084971Y-2230880D02*
G01*
X2116467Y-2230880D01*
X2084971Y-2286772D02*
G01*
X2116467Y-2286772D01*
X2062299Y-2230650D02*
G01*
X2030802Y-2230650D01*
X2018604Y-2242849D02*
G01*
X2018604Y-2274344D01*
X2062299Y-2286541D02*
G01*
X2030802Y-2286541D01*
X1238662Y-2243078D02*
G01*
X1238662Y-2274576D01*
X1194971Y-2230880D02*
G01*
X1226467Y-2230880D01*
X1194971Y-2286772D02*
G01*
X1226467Y-2286772D01*
X1172299Y-2230650D02*
G01*
X1140802Y-2230650D01*
X1128604Y-2242849D02*
G01*
X1128604Y-2274344D01*
X1172299Y-2286541D02*
G01*
X1140802Y-2286541D01*
X1573662Y-2243078D02*
G01*
X1573662Y-2274576D01*
X1529971Y-2230880D02*
G01*
X1561467Y-2230880D01*
X1529971Y-2286772D02*
G01*
X1561467Y-2286772D01*
X1507299Y-2230650D02*
G01*
X1475802Y-2230650D01*
X1463604Y-2242849D02*
G01*
X1463604Y-2274344D01*
X1507299Y-2286541D02*
G01*
X1475802Y-2286541D01*
X698663Y-2243078D02*
G01*
X698663Y-2274576D01*
X654971Y-2230880D02*
G01*
X686466Y-2230880D01*
X654971Y-2286772D02*
G01*
X686466Y-2286772D01*
X632298Y-2230650D02*
G01*
X600803Y-2230650D01*
X588604Y-2242849D02*
G01*
X588604Y-2274344D01*
X632298Y-2286541D02*
G01*
X600803Y-2286541D01*
X1023662Y-2243078D02*
G01*
X1023662Y-2274576D01*
X979971Y-2230880D02*
G01*
X1011467Y-2230880D01*
X979971Y-2286772D02*
G01*
X1011467Y-2286772D01*
X957299Y-2230650D02*
G01*
X925802Y-2230650D01*
X913604Y-2242849D02*
G01*
X913604Y-2274344D01*
X957299Y-2286541D02*
G01*
X925802Y-2286541D01*
X504212Y-1639556D02*
G01*
X504212Y-1608060D01*
X547903Y-1651756D02*
G01*
X516408Y-1651756D01*
X547903Y-1595864D02*
G01*
X516408Y-1595864D01*
X570576Y-1651984D02*
G01*
X602073Y-1651984D01*
X614270Y-1639787D02*
G01*
X614270Y-1608292D01*
X570576Y-1596095D02*
G01*
X602073Y-1596095D01*
X3254254Y-1170273D02*
G01*
X3285751Y-1170273D01*
X3242055Y-1213964D02*
G01*
X3242055Y-1182469D01*
X3297947Y-1213964D02*
G01*
X3297947Y-1182469D01*
X3241826Y-1236637D02*
G01*
X3241826Y-1268132D01*
X3254023Y-1280331D02*
G01*
X3285519Y-1280331D01*
X3297716Y-1236637D02*
G01*
X3297716Y-1268132D01*
X313663Y-2413078D02*
G01*
X313663Y-2444576D01*
X269971Y-2400880D02*
G01*
X301466Y-2400880D01*
X269971Y-2456772D02*
G01*
X301466Y-2456772D01*
X247298Y-2400650D02*
G01*
X215803Y-2400650D01*
X203604Y-2412849D02*
G01*
X203604Y-2444344D01*
X247298Y-2456541D02*
G01*
X215803Y-2456541D01*
X568663Y-2188078D02*
G01*
X568663Y-2219576D01*
X524971Y-2175880D02*
G01*
X556466Y-2175880D01*
X524971Y-2231772D02*
G01*
X556466Y-2231772D01*
X502298Y-2175650D02*
G01*
X470803Y-2175650D01*
X458604Y-2187849D02*
G01*
X458604Y-2219344D01*
X502298Y-2231541D02*
G01*
X470803Y-2231541D01*
X2598199Y-1904092D02*
G01*
X2629696Y-1904092D01*
X2586000Y-1947784D02*
G01*
X2586000Y-1916289D01*
X2641891Y-1947784D02*
G01*
X2641891Y-1916289D01*
X2585771Y-1970457D02*
G01*
X2585771Y-2001952D01*
X2597969Y-2014151D02*
G01*
X2629463Y-2014151D01*
X2641661Y-1970457D02*
G01*
X2641661Y-2001952D01*
X2048199Y-1904092D02*
G01*
X2079696Y-1904092D01*
X2036000Y-1947784D02*
G01*
X2036000Y-1916289D01*
X2091891Y-1947784D02*
G01*
X2091891Y-1916289D01*
X2035771Y-1970457D02*
G01*
X2035771Y-2001952D01*
X2047969Y-2014151D02*
G01*
X2079463Y-2014151D01*
X2091661Y-1970457D02*
G01*
X2091661Y-2001952D01*
X1498199Y-1904092D02*
G01*
X1529696Y-1904092D01*
X1486000Y-1947784D02*
G01*
X1486000Y-1916289D01*
X1541891Y-1947784D02*
G01*
X1541891Y-1916289D01*
X1485771Y-1970457D02*
G01*
X1485771Y-2001952D01*
X1497969Y-2014151D02*
G01*
X1529463Y-2014151D01*
X1541661Y-1970457D02*
G01*
X1541661Y-2001952D01*
X943199Y-1904092D02*
G01*
X974696Y-1904092D01*
X931000Y-1947784D02*
G01*
X931000Y-1916289D01*
X986891Y-1947784D02*
G01*
X986891Y-1916289D01*
X930771Y-1970457D02*
G01*
X930771Y-2001952D01*
X942969Y-2014151D02*
G01*
X974463Y-2014151D01*
X986661Y-1970457D02*
G01*
X986661Y-2001952D01*
X1124212Y-959556D02*
G01*
X1124212Y-928060D01*
X1167903Y-971756D02*
G01*
X1136409Y-971756D01*
X1167903Y-915864D02*
G01*
X1136409Y-915864D01*
X1190577Y-971984D02*
G01*
X1222073Y-971984D01*
X1234270Y-959787D02*
G01*
X1234270Y-928292D01*
X1190577Y-916095D02*
G01*
X1222073Y-916095D01*
X1003662Y-828078D02*
G01*
X1003662Y-859576D01*
X959971Y-815880D02*
G01*
X991467Y-815880D01*
X959971Y-871772D02*
G01*
X991467Y-871772D01*
X937299Y-815650D02*
G01*
X905802Y-815650D01*
X893604Y-827849D02*
G01*
X893604Y-859344D01*
X937299Y-871541D02*
G01*
X905802Y-871541D01*
X1963662Y-753078D02*
G01*
X1963662Y-784576D01*
X1919971Y-740880D02*
G01*
X1951467Y-740880D01*
X1919971Y-796772D02*
G01*
X1951467Y-796772D01*
X1897299Y-740650D02*
G01*
X1865802Y-740650D01*
X1853604Y-752849D02*
G01*
X1853604Y-784344D01*
X1897299Y-796541D02*
G01*
X1865802Y-796541D01*
X2451504Y-398991D02*
G01*
X2473777Y-421264D01*
X2411985Y-421260D02*
G01*
X2434255Y-398989D01*
X2451507Y-460781D02*
G01*
X2473777Y-438512D01*
X2395790Y-437130D02*
G01*
X2373519Y-459402D01*
X2373519Y-476653D02*
G01*
X2395789Y-498922D01*
X2435311Y-476651D02*
G01*
X2413040Y-498921D01*
X2924677Y-858542D02*
G01*
X2893180Y-858542D01*
X2936876Y-814852D02*
G01*
X2936876Y-846347D01*
X2880983Y-814852D02*
G01*
X2880983Y-846347D01*
X2937105Y-792179D02*
G01*
X2937105Y-760682D01*
X2924907Y-748485D02*
G01*
X2893411Y-748485D01*
X2881215Y-792179D02*
G01*
X2881215Y-760682D01*
G75*
G01*
X3595328Y-715968D02*
G02*
X3583130Y-728166I-12198J0D01*
G75*
G01*
X3583130Y-672274D02*
G02*
X3595328Y-684473I0J-12198D01*
G75*
G01*
X3497466Y-727937D02*
G02*
X3485268Y-715738I0J12198D01*
G75*
G01*
X3485268Y-684243D02*
G02*
X3497466Y-672045I12198J0D01*
G75*
G01*
X3808926Y-469956D02*
G02*
X3742586Y-628540I-236153J5621D01*
G75*
G01*
X3198926Y-468066D02*
G03*
X3265266Y-626650I236153J5621D01*
G75*
G01*
X3697969Y-2014153D02*
G02*
X3685771Y-2001955I0J12198D01*
G75*
G01*
X3741663Y-2001955D02*
G02*
X3729464Y-2014153I-12198J0D01*
G75*
G01*
X3686000Y-1916291D02*
G02*
X3698199Y-1904093I12198J0D01*
G75*
G01*
X3729694Y-1904093D02*
G02*
X3741892Y-1916291I0J-12198D01*
G75*
G01*
X3147969Y-2014153D02*
G02*
X3135771Y-2001955I0J12198D01*
G75*
G01*
X3191663Y-2001955D02*
G02*
X3179464Y-2014153I-12198J0D01*
G75*
G01*
X3136000Y-1916291D02*
G02*
X3148199Y-1904093I12198J0D01*
G75*
G01*
X3179694Y-1904093D02*
G02*
X3191892Y-1916291I0J-12198D01*
D19*
G75*
G01*
X534881Y-1464218D02*
G03*
X534781Y-1464218I-50J7900D01*
D11*
G75*
G01*
X934292Y-798818D02*
G03*
X883938Y-798818I-25177J0D01*
D20*
G75*
G01*
X1946149Y-602303D02*
G03*
X1946220Y-602374I-4141J-4212D01*
D21*
G75*
G01*
X2046700Y-587878D02*
G03*
X2046770Y-587949I-5572J-5564D01*
D11*
G75*
G01*
X3652938Y-2065818D02*
G02*
X3652938Y-2011818I29683J27000D01*
G75*
G01*
X3102938Y-2065818D02*
G02*
X3102938Y-2011818I29683J27000D01*
G75*
G01*
X2552938Y-2065818D02*
G02*
X2552938Y-2011818I29683J27000D01*
G75*
G01*
X2002938Y-2065818D02*
G02*
X2002938Y-2011818I29683J27000D01*
G75*
G01*
X1452938Y-2065818D02*
G02*
X1452938Y-2011818I29683J27000D01*
G75*
G01*
X902938Y-2065818D02*
G02*
X902938Y-2011818I29683J27000D01*
D14*
G75*
G01*
X552688Y-1001318D02*
G02*
X558938Y-983818I5012J8076D01*
G75*
G01*
X552723Y-1001318D02*
G02*
X548938Y-1018818I-2978J-8515D01*
D10*
G75*
G01*
X799513Y-1147511D02*
G03*
X793513Y-1141511I-6000J0D01*
G75*
G01*
X734363Y-1141511D02*
G03*
X728363Y-1147511I0J-6000D01*
G75*
G01*
X799513Y-1290125D02*
G02*
X793513Y-1296125I-6000J0D01*
G75*
G01*
X734363Y-1296125D02*
G02*
X728363Y-1290125I0J6000D01*
G75*
G01*
X728363Y-1450125D02*
G03*
X734363Y-1456125I6000J0D01*
G75*
G01*
X793513Y-1456125D02*
G03*
X799513Y-1450125I0J6000D01*
G75*
G01*
X728363Y-1307511D02*
G02*
X734363Y-1301511I6000J0D01*
G75*
G01*
X793513Y-1301511D02*
G02*
X799513Y-1307511I0J-6000D01*
G75*
G01*
X3274513Y-1787511D02*
G03*
X3268513Y-1781511I-6000J0D01*
G75*
G01*
X3209363Y-1781511D02*
G03*
X3203363Y-1787511I0J-6000D01*
G75*
G01*
X3274513Y-1930125D02*
G02*
X3268513Y-1936125I-6000J0D01*
G75*
G01*
X3209363Y-1936125D02*
G02*
X3203363Y-1930125I0J6000D01*
G75*
G01*
X3824513Y-1787511D02*
G03*
X3818513Y-1781511I-6000J0D01*
G75*
G01*
X3759363Y-1781511D02*
G03*
X3753363Y-1787511I0J-6000D01*
G75*
G01*
X3824513Y-1930125D02*
G02*
X3818513Y-1936125I-6000J0D01*
G75*
G01*
X3759363Y-1936125D02*
G02*
X3753363Y-1930125I0J6000D01*
G75*
G01*
X2724513Y-1787511D02*
G03*
X2718513Y-1781511I-6000J0D01*
G75*
G01*
X2659363Y-1781511D02*
G03*
X2653363Y-1787511I0J-6000D01*
G75*
G01*
X2724513Y-1930125D02*
G02*
X2718513Y-1936125I-6000J0D01*
G75*
G01*
X2659363Y-1936125D02*
G02*
X2653363Y-1930125I0J6000D01*
G75*
G01*
X2174513Y-1787511D02*
G03*
X2168513Y-1781511I-6000J0D01*
G75*
G01*
X2109363Y-1781511D02*
G03*
X2103363Y-1787511I0J-6000D01*
G75*
G01*
X2174513Y-1930125D02*
G02*
X2168513Y-1936125I-6000J0D01*
G75*
G01*
X2109363Y-1936125D02*
G02*
X2103363Y-1930125I0J6000D01*
G75*
G01*
X1624513Y-1787511D02*
G03*
X1618513Y-1781511I-6000J0D01*
G75*
G01*
X1559363Y-1781511D02*
G03*
X1553363Y-1787511I0J-6000D01*
G75*
G01*
X1624513Y-1930125D02*
G02*
X1618513Y-1936125I-6000J0D01*
G75*
G01*
X1559363Y-1936125D02*
G02*
X1553363Y-1930125I0J6000D01*
G75*
G01*
X1069513Y-1787511D02*
G03*
X1063513Y-1781511I-6000J0D01*
G75*
G01*
X1004363Y-1781511D02*
G03*
X998363Y-1787511I0J-6000D01*
G75*
G01*
X1069513Y-1930125D02*
G02*
X1063513Y-1936125I-6000J0D01*
G75*
G01*
X1004363Y-1936125D02*
G02*
X998363Y-1930125I0J6000D01*
D11*
G75*
G01*
X2264273Y-1639787D02*
G02*
X2252075Y-1651985I-12198J0D01*
G75*
G01*
X2252075Y-1596093D02*
G02*
X2264273Y-1608292I0J-12198D01*
G75*
G01*
X2166411Y-1651756D02*
G02*
X2154213Y-1639557I0J12198D01*
G75*
G01*
X2154213Y-1608062D02*
G02*
X2166411Y-1595864I12198J0D01*
G75*
G01*
X1714273Y-1639787D02*
G02*
X1702075Y-1651985I-12198J0D01*
G75*
G01*
X1702075Y-1596093D02*
G02*
X1714273Y-1608292I0J-12198D01*
G75*
G01*
X1616411Y-1651756D02*
G02*
X1604213Y-1639557I0J12198D01*
G75*
G01*
X1604213Y-1608062D02*
G02*
X1616411Y-1595864I12198J0D01*
G75*
G01*
X1169273Y-1639787D02*
G02*
X1157075Y-1651985I-12198J0D01*
G75*
G01*
X1157075Y-1596093D02*
G02*
X1169273Y-1608292I0J-12198D01*
G75*
G01*
X1071411Y-1651756D02*
G02*
X1059213Y-1639557I0J12198D01*
G75*
G01*
X1059213Y-1608062D02*
G02*
X1071411Y-1595864I12198J0D01*
G75*
G01*
X3364273Y-1639787D02*
G02*
X3352075Y-1651985I-12198J0D01*
G75*
G01*
X3352075Y-1596093D02*
G02*
X3364273Y-1608292I0J-12198D01*
G75*
G01*
X3266411Y-1651756D02*
G02*
X3254213Y-1639557I0J12198D01*
G75*
G01*
X3254213Y-1608062D02*
G02*
X3266411Y-1595864I12198J0D01*
G75*
G01*
X2814273Y-1639787D02*
G02*
X2802075Y-1651985I-12198J0D01*
G75*
G01*
X2802075Y-1596093D02*
G02*
X2814273Y-1608292I0J-12198D01*
G75*
G01*
X2716411Y-1651756D02*
G02*
X2704213Y-1639557I0J12198D01*
G75*
G01*
X2704213Y-1608062D02*
G02*
X2716411Y-1595864I12198J0D01*
G75*
G01*
X628603Y-892849D02*
G02*
X640801Y-880651I12198J0D01*
G75*
G01*
X640801Y-936543D02*
G02*
X628603Y-924344I0J12198D01*
G75*
G01*
X726465Y-880880D02*
G02*
X738663Y-893079I0J-12198D01*
G75*
G01*
X738663Y-924574D02*
G02*
X726465Y-936772I-12198J0D01*
G75*
G01*
X1198603Y-722849D02*
G02*
X1210801Y-710651I12198J0D01*
G75*
G01*
X1210801Y-766543D02*
G02*
X1198603Y-754344I0J12198D01*
G75*
G01*
X1296465Y-710880D02*
G02*
X1308663Y-723079I0J-12198D01*
G75*
G01*
X1308663Y-754574D02*
G02*
X1296465Y-766772I-12198J0D01*
G75*
G01*
X2328518Y-431654D02*
G02*
X2328518Y-414403I8625J8625D01*
G75*
G01*
X2368040Y-453925D02*
G02*
X2350789Y-453924I-8625J8626D01*
G75*
G01*
X2389254Y-353992D02*
G02*
X2406505Y-353992I8625J-8625D01*
G75*
G01*
X2428776Y-376263D02*
G02*
X2428776Y-393513I-8626J-8625D01*
G75*
G01*
X3118603Y-2242849D02*
G02*
X3130801Y-2230651I12198J0D01*
G75*
G01*
X3130801Y-2286543D02*
G02*
X3118603Y-2274344I0J12198D01*
G75*
G01*
X3216465Y-2230880D02*
G02*
X3228663Y-2243079I0J-12198D01*
G75*
G01*
X3228663Y-2274574D02*
G02*
X3216465Y-2286772I-12198J0D01*
G75*
G01*
X2788603Y-2242849D02*
G02*
X2800801Y-2230651I12198J0D01*
G75*
G01*
X2800801Y-2286543D02*
G02*
X2788603Y-2274344I0J12198D01*
G75*
G01*
X2886465Y-2230880D02*
G02*
X2898663Y-2243079I0J-12198D01*
G75*
G01*
X2898663Y-2274574D02*
G02*
X2886465Y-2286772I-12198J0D01*
G75*
G01*
X3668603Y-2242849D02*
G02*
X3680801Y-2230651I12198J0D01*
G75*
G01*
X3680801Y-2286543D02*
G02*
X3668603Y-2274344I0J12198D01*
G75*
G01*
X3766465Y-2230880D02*
G02*
X3778663Y-2243079I0J-12198D01*
G75*
G01*
X3778663Y-2274574D02*
G02*
X3766465Y-2286772I-12198J0D01*
G75*
G01*
X3333603Y-2242849D02*
G02*
X3345801Y-2230651I12198J0D01*
G75*
G01*
X3345801Y-2286543D02*
G02*
X3333603Y-2274344I0J12198D01*
G75*
G01*
X3431465Y-2230880D02*
G02*
X3443663Y-2243079I0J-12198D01*
G75*
G01*
X3443663Y-2274574D02*
G02*
X3431465Y-2286772I-12198J0D01*
G75*
G01*
X2228603Y-2242849D02*
G02*
X2240801Y-2230651I12198J0D01*
G75*
G01*
X2240801Y-2286543D02*
G02*
X2228603Y-2274344I0J12198D01*
G75*
G01*
X2326465Y-2230880D02*
G02*
X2338663Y-2243079I0J-12198D01*
G75*
G01*
X2338663Y-2274574D02*
G02*
X2326465Y-2286772I-12198J0D01*
G75*
G01*
X2563603Y-2242849D02*
G02*
X2575801Y-2230651I12198J0D01*
G75*
G01*
X2575801Y-2286543D02*
G02*
X2563603Y-2274344I0J12198D01*
G75*
G01*
X2661465Y-2230880D02*
G02*
X2673663Y-2243079I0J-12198D01*
G75*
G01*
X2673663Y-2274574D02*
G02*
X2661465Y-2286772I-12198J0D01*
G75*
G01*
X1678603Y-2242849D02*
G02*
X1690801Y-2230651I12198J0D01*
G75*
G01*
X1690801Y-2286543D02*
G02*
X1678603Y-2274344I0J12198D01*
G75*
G01*
X1776465Y-2230880D02*
G02*
X1788663Y-2243079I0J-12198D01*
G75*
G01*
X1788663Y-2274574D02*
G02*
X1776465Y-2286772I-12198J0D01*
G75*
G01*
X2018603Y-2242849D02*
G02*
X2030801Y-2230651I12198J0D01*
G75*
G01*
X2030801Y-2286543D02*
G02*
X2018603Y-2274344I0J12198D01*
G75*
G01*
X2116465Y-2230880D02*
G02*
X2128663Y-2243079I0J-12198D01*
G75*
G01*
X2128663Y-2274574D02*
G02*
X2116465Y-2286772I-12198J0D01*
G75*
G01*
X1128603Y-2242849D02*
G02*
X1140801Y-2230651I12198J0D01*
G75*
G01*
X1140801Y-2286543D02*
G02*
X1128603Y-2274344I0J12198D01*
G75*
G01*
X1226465Y-2230880D02*
G02*
X1238663Y-2243079I0J-12198D01*
G75*
G01*
X1238663Y-2274574D02*
G02*
X1226465Y-2286772I-12198J0D01*
G75*
G01*
X1463603Y-2242849D02*
G02*
X1475801Y-2230651I12198J0D01*
G75*
G01*
X1475801Y-2286543D02*
G02*
X1463603Y-2274344I0J12198D01*
G75*
G01*
X1561465Y-2230880D02*
G02*
X1573663Y-2243079I0J-12198D01*
G75*
G01*
X1573663Y-2274574D02*
G02*
X1561465Y-2286772I-12198J0D01*
G75*
G01*
X588603Y-2242849D02*
G02*
X600801Y-2230651I12198J0D01*
G75*
G01*
X600801Y-2286543D02*
G02*
X588603Y-2274344I0J12198D01*
G75*
G01*
X686465Y-2230880D02*
G02*
X698663Y-2243079I0J-12198D01*
G75*
G01*
X698663Y-2274574D02*
G02*
X686465Y-2286772I-12198J0D01*
G75*
G01*
X913603Y-2242849D02*
G02*
X925801Y-2230651I12198J0D01*
G75*
G01*
X925801Y-2286543D02*
G02*
X913603Y-2274344I0J12198D01*
G75*
G01*
X1011465Y-2230880D02*
G02*
X1023663Y-2243079I0J-12198D01*
G75*
G01*
X1023663Y-2274574D02*
G02*
X1011465Y-2286772I-12198J0D01*
G75*
G01*
X614273Y-1639787D02*
G02*
X602075Y-1651985I-12198J0D01*
G75*
G01*
X602075Y-1596093D02*
G02*
X614273Y-1608292I0J-12198D01*
G75*
G01*
X516411Y-1651756D02*
G02*
X504213Y-1639557I0J12198D01*
G75*
G01*
X504213Y-1608062D02*
G02*
X516411Y-1595864I12198J0D01*
G75*
G01*
X3254024Y-1280333D02*
G02*
X3241826Y-1268135I0J12198D01*
G75*
G01*
X3297718Y-1268135D02*
G02*
X3285519Y-1280333I-12198J0D01*
G75*
G01*
X3242055Y-1182471D02*
G02*
X3254254Y-1170273I12198J0D01*
G75*
G01*
X3285749Y-1170273D02*
G02*
X3297947Y-1182471I0J-12198D01*
G75*
G01*
X203603Y-2412849D02*
G02*
X215801Y-2400651I12198J0D01*
G75*
G01*
X215801Y-2456543D02*
G02*
X203603Y-2444344I0J12198D01*
G75*
G01*
X301465Y-2400880D02*
G02*
X313663Y-2413079I0J-12198D01*
G75*
G01*
X313663Y-2444574D02*
G02*
X301465Y-2456772I-12198J0D01*
G75*
G01*
X458603Y-2187849D02*
G02*
X470801Y-2175651I12198J0D01*
G75*
G01*
X470801Y-2231543D02*
G02*
X458603Y-2219344I0J12198D01*
G75*
G01*
X556465Y-2175880D02*
G02*
X568663Y-2188079I0J-12198D01*
G75*
G01*
X568663Y-2219574D02*
G02*
X556465Y-2231772I-12198J0D01*
G75*
G01*
X2597969Y-2014153D02*
G02*
X2585771Y-2001955I0J12198D01*
G75*
G01*
X2641663Y-2001955D02*
G02*
X2629464Y-2014153I-12198J0D01*
G75*
G01*
X2586000Y-1916291D02*
G02*
X2598199Y-1904093I12198J0D01*
G75*
G01*
X2629694Y-1904093D02*
G02*
X2641892Y-1916291I0J-12198D01*
G75*
G01*
X2047969Y-2014153D02*
G02*
X2035771Y-2001955I0J12198D01*
G75*
G01*
X2091663Y-2001955D02*
G02*
X2079464Y-2014153I-12198J0D01*
G75*
G01*
X2036000Y-1916291D02*
G02*
X2048199Y-1904093I12198J0D01*
G75*
G01*
X2079694Y-1904093D02*
G02*
X2091892Y-1916291I0J-12198D01*
G75*
G01*
X1497969Y-2014153D02*
G02*
X1485771Y-2001955I0J12198D01*
G75*
G01*
X1541663Y-2001955D02*
G02*
X1529464Y-2014153I-12198J0D01*
G75*
G01*
X1486000Y-1916291D02*
G02*
X1498199Y-1904093I12198J0D01*
G75*
G01*
X1529694Y-1904093D02*
G02*
X1541892Y-1916291I0J-12198D01*
G75*
G01*
X942969Y-2014153D02*
G02*
X930771Y-2001955I0J12198D01*
G75*
G01*
X986663Y-2001955D02*
G02*
X974464Y-2014153I-12198J0D01*
G75*
G01*
X931000Y-1916291D02*
G02*
X943199Y-1904093I12198J0D01*
G75*
G01*
X974694Y-1904093D02*
G02*
X986892Y-1916291I0J-12198D01*
G75*
G01*
X1234273Y-959787D02*
G02*
X1222075Y-971985I-12198J0D01*
G75*
G01*
X1222075Y-916093D02*
G02*
X1234273Y-928292I0J-12198D01*
G75*
G01*
X1136411Y-971756D02*
G02*
X1124213Y-959557I0J12198D01*
G75*
G01*
X1124213Y-928062D02*
G02*
X1136411Y-915864I12198J0D01*
G75*
G01*
X893603Y-827849D02*
G02*
X905801Y-815651I12198J0D01*
G75*
G01*
X905801Y-871543D02*
G02*
X893603Y-859344I0J12198D01*
G75*
G01*
X991465Y-815880D02*
G02*
X1003663Y-828079I0J-12198D01*
G75*
G01*
X1003663Y-859574D02*
G02*
X991465Y-871772I-12198J0D01*
G75*
G01*
X1853603Y-752849D02*
G02*
X1865801Y-740651I12198J0D01*
G75*
G01*
X1865801Y-796543D02*
G02*
X1853603Y-784344I0J12198D01*
G75*
G01*
X1951465Y-740880D02*
G02*
X1963663Y-753079I0J-12198D01*
G75*
G01*
X1963663Y-784574D02*
G02*
X1951465Y-796772I-12198J0D01*
G75*
G01*
X2373518Y-476654D02*
G02*
X2373518Y-459403I8625J8625D01*
G75*
G01*
X2413040Y-498925D02*
G02*
X2395789Y-498924I-8625J8626D01*
G75*
G01*
X2434254Y-398992D02*
G02*
X2451505Y-398992I8625J-8625D01*
G75*
G01*
X2473776Y-421263D02*
G02*
X2473776Y-438513I-8626J-8625D01*
G75*
G01*
X2924907Y-748483D02*
G02*
X2937105Y-760681I0J-12198D01*
G75*
G01*
X2881213Y-760681D02*
G02*
X2893412Y-748483I12198J0D01*
G75*
G01*
X2936876Y-846345D02*
G02*
X2924677Y-858543I-12198J0D01*
G75*
G01*
X2893182Y-858543D02*
G02*
X2880984Y-846345I0J12198D01*
D20*
G75*
G01
X3654600Y-1292880D02*
G03X3654600Y-1292880I-5910J0D01*
G75*
G01
X1050880Y-790130D02*
G03X1050880Y-790130I-5910J0D01*
G75*
G01
X1609850Y-1122680D02*
G03X1609850Y-1122680I-5910J0D01*
G75*
G01
X1638960Y-1037050D02*
G03X1638960Y-1037050I-5910J0D01*
G75*
G01
X2824850Y-1193540D02*
G03X2824850Y-1193540I-5910J0D01*
G75*
G01
X2854850Y-1118820D02*
G03X2854850Y-1118820I-5910J0D01*
G75*
G01
X2139850Y-1193540D02*
G03X2139850Y-1193540I-5910J0D01*
G75*
G01
X2169850Y-1118820D02*
G03X2169850Y-1118820I-5910J0D01*
G75*
G01
X3516180Y-1305000D02*
G03X3516180Y-1305000I-5910J0D01*
G75*
G01
X3591510Y-1335210D02*
G03X3591510Y-1335210I-5910J0D01*
G75*
G01
X414570Y-1983820D02*
G03X414570Y-1983820I-5910J0D01*
G75*
G01
X339240Y-1953610D02*
G03X339240Y-1953610I-5910J0D01*
G75*
G01
X159570Y-2208820D02*
G03X159570Y-2208820I-5910J0D01*
G75*
G01
X84240Y-2178610D02*
G03X84240Y-2178610I-5910J0D01*
D11*
G75*
G01
X3672210Y-1920710D02*
G03X3672210Y-1920710I-10000J0D01*
G75*
G01
X3122210Y-1920710D02*
G03X3122210Y-1920710I-10000J0D01*
G75*
G01
X2572210Y-1920710D02*
G03X2572210Y-1920710I-10000J0D01*
G75*
G01
X2022210Y-1920710D02*
G03X2022210Y-1920710I-10000J0D01*
G75*
G01
X1472210Y-1920710D02*
G03X1472210Y-1920710I-10000J0D01*
G75*
G01
X922210Y-1920710D02*
G03X922210Y-1920710I-10000J0D01*
D20*
G75*
G01
X430780Y-1833530D02*
G03X430780Y-1833530I-5910J0D01*
M02*
