G04 Layer: BottomLayer*
G04 EasyEDA v6.5.22, 2023-02-21 10:28:47*
G04 bf72e243e8a245ba8743e2d89751b4a0,10*
G04 Gerber Generator version 0.2*
G04 Scale: 100 percent, Rotated: No, Reflected: No *
G04 Dimensions in inches *
G04 leading zeros omitted , absolute positions ,3 integer and 6 decimal *
%FSLAX36Y36*%
%MOIN*%

%ADD10C,0.0100*%
%ADD11C,0.0300*%
%ADD12C,0.0512*%
%ADD13C,0.0709*%
%ADD14R,0.0709X0.0709*%
%ADD15O,0.047244X0.08661400000000001*%
%ADD16C,0.1496*%
%ADD17C,0.0669*%
%ADD18C,0.1417*%
%ADD19C,0.0827*%
%ADD20R,0.0866X0.0866*%
%ADD21C,0.0866*%
%ADD22C,0.0240*%
%ADD23C,0.0240*%
%ADD24C,0.0121*%

%LPD*%
G36*
X14200Y-2745700D02*
G01*
X12660Y-2745400D01*
X11379Y-2744520D01*
X10500Y-2743240D01*
X10200Y-2741700D01*
X10200Y-14200D01*
X10500Y-12660D01*
X11379Y-11379D01*
X12660Y-10500D01*
X14200Y-10200D01*
X3922799Y-10200D01*
X3924340Y-10500D01*
X3925620Y-11379D01*
X3926500Y-12660D01*
X3926800Y-14200D01*
X3926800Y-2741700D01*
X3926500Y-2743240D01*
X3925620Y-2744520D01*
X3924340Y-2745400D01*
X3922799Y-2745700D01*
G37*

%LPC*%
G36*
X1140300Y-214840D02*
G01*
X1146940Y-214480D01*
X1153500Y-213359D01*
X1159920Y-211520D01*
X1166060Y-208960D01*
X1171900Y-205740D01*
X1177320Y-201880D01*
X1182300Y-197440D01*
X1186740Y-192480D01*
X1190600Y-187040D01*
X1193820Y-181220D01*
X1196360Y-175060D01*
X1198200Y-168660D01*
X1199320Y-162100D01*
X1199700Y-155440D01*
X1199320Y-148780D01*
X1198200Y-142220D01*
X1196360Y-135820D01*
X1193820Y-129660D01*
X1190600Y-123840D01*
X1186740Y-118400D01*
X1182300Y-113440D01*
X1177320Y-109000D01*
X1171900Y-105140D01*
X1166060Y-101920D01*
X1159920Y-99360D01*
X1153500Y-97520D01*
X1146940Y-96400D01*
X1140300Y-96039D01*
X1133640Y-96400D01*
X1127080Y-97520D01*
X1120660Y-99360D01*
X1114520Y-101920D01*
X1108680Y-105140D01*
X1103260Y-109000D01*
X1098280Y-113440D01*
X1093840Y-118400D01*
X1089980Y-123840D01*
X1086760Y-129660D01*
X1084220Y-135820D01*
X1082380Y-142220D01*
X1081260Y-148780D01*
X1080880Y-155440D01*
X1081260Y-162100D01*
X1082380Y-168660D01*
X1084220Y-175060D01*
X1086760Y-181220D01*
X1089980Y-187040D01*
X1093840Y-192480D01*
X1098280Y-197440D01*
X1103260Y-201880D01*
X1108680Y-205740D01*
X1114520Y-208960D01*
X1120660Y-211520D01*
X1127080Y-213359D01*
X1133640Y-214480D01*
G37*
G36*
X1722660Y-2693260D02*
G01*
X1808820Y-2693260D01*
X1811320Y-2692980D01*
X1813460Y-2692240D01*
X1815400Y-2691019D01*
X1817000Y-2689400D01*
X1818220Y-2687480D01*
X1818959Y-2685320D01*
X1819259Y-2682840D01*
X1819259Y-2596680D01*
X1818959Y-2594180D01*
X1818220Y-2592040D01*
X1817000Y-2590100D01*
X1815400Y-2588500D01*
X1813460Y-2587280D01*
X1811320Y-2586540D01*
X1808820Y-2586259D01*
X1722660Y-2586259D01*
X1720180Y-2586540D01*
X1718020Y-2587280D01*
X1716100Y-2588500D01*
X1714480Y-2590100D01*
X1713260Y-2592040D01*
X1712520Y-2594180D01*
X1712240Y-2596680D01*
X1712240Y-2682840D01*
X1712520Y-2685320D01*
X1713260Y-2687480D01*
X1714480Y-2689400D01*
X1716100Y-2691019D01*
X1718020Y-2692240D01*
X1720180Y-2692980D01*
G37*
G36*
X2825020Y-2693260D02*
G01*
X2911180Y-2693260D01*
X2913680Y-2692980D01*
X2915820Y-2692240D01*
X2917760Y-2691019D01*
X2919360Y-2689400D01*
X2920580Y-2687480D01*
X2921320Y-2685320D01*
X2921620Y-2682840D01*
X2921620Y-2596680D01*
X2921320Y-2594180D01*
X2920580Y-2592040D01*
X2919360Y-2590100D01*
X2917760Y-2588500D01*
X2915820Y-2587280D01*
X2913680Y-2586540D01*
X2911180Y-2586259D01*
X2825020Y-2586259D01*
X2822540Y-2586540D01*
X2820380Y-2587280D01*
X2818460Y-2588500D01*
X2816840Y-2590100D01*
X2815620Y-2592040D01*
X2814880Y-2594180D01*
X2814600Y-2596680D01*
X2814600Y-2682840D01*
X2814880Y-2685320D01*
X2815620Y-2687480D01*
X2816840Y-2689400D01*
X2818460Y-2691019D01*
X2820380Y-2692240D01*
X2822540Y-2692980D01*
G37*
G36*
X1487040Y-2693159D02*
G01*
X1493260Y-2693159D01*
X1499440Y-2692440D01*
X1505480Y-2691019D01*
X1511339Y-2688880D01*
X1516900Y-2686100D01*
X1522100Y-2682679D01*
X1526860Y-2678680D01*
X1531120Y-2674140D01*
X1534840Y-2669160D01*
X1537960Y-2663759D01*
X1540420Y-2658060D01*
X1542200Y-2652100D01*
X1543280Y-2645960D01*
X1543640Y-2639760D01*
X1543280Y-2633540D01*
X1542200Y-2627420D01*
X1540420Y-2621460D01*
X1537960Y-2615740D01*
X1534840Y-2610360D01*
X1531120Y-2605360D01*
X1526860Y-2600840D01*
X1522100Y-2596840D01*
X1516900Y-2593420D01*
X1511339Y-2590640D01*
X1505480Y-2588500D01*
X1499440Y-2587080D01*
X1493260Y-2586340D01*
X1487040Y-2586340D01*
X1480860Y-2587080D01*
X1474800Y-2588500D01*
X1468959Y-2590640D01*
X1463400Y-2593420D01*
X1458200Y-2596840D01*
X1453420Y-2600840D01*
X1449160Y-2605360D01*
X1445440Y-2610360D01*
X1442340Y-2615740D01*
X1439880Y-2621460D01*
X1438080Y-2627420D01*
X1437000Y-2633540D01*
X1436639Y-2639760D01*
X1437000Y-2645960D01*
X1438080Y-2652100D01*
X1439880Y-2658060D01*
X1442340Y-2663759D01*
X1445440Y-2669160D01*
X1449160Y-2674140D01*
X1453420Y-2678680D01*
X1458200Y-2682679D01*
X1463400Y-2686100D01*
X1468959Y-2688880D01*
X1474800Y-2691019D01*
X1480860Y-2692440D01*
G37*
G36*
X2038220Y-2693159D02*
G01*
X2044440Y-2693159D01*
X2050620Y-2692440D01*
X2056680Y-2691019D01*
X2062520Y-2688880D01*
X2068080Y-2686100D01*
X2073280Y-2682679D01*
X2078040Y-2678680D01*
X2082320Y-2674140D01*
X2086040Y-2669160D01*
X2089139Y-2663759D01*
X2091600Y-2658060D01*
X2093400Y-2652100D01*
X2094480Y-2645960D01*
X2094840Y-2639760D01*
X2094480Y-2633540D01*
X2093400Y-2627420D01*
X2091600Y-2621460D01*
X2089139Y-2615740D01*
X2086040Y-2610360D01*
X2082320Y-2605360D01*
X2078040Y-2600840D01*
X2073280Y-2596840D01*
X2068080Y-2593420D01*
X2062520Y-2590640D01*
X2056680Y-2588500D01*
X2050620Y-2587080D01*
X2044440Y-2586340D01*
X2038220Y-2586340D01*
X2032040Y-2587080D01*
X2025980Y-2588500D01*
X2020140Y-2590640D01*
X2014580Y-2593420D01*
X2009379Y-2596840D01*
X2004620Y-2600840D01*
X2000340Y-2605360D01*
X1996639Y-2610360D01*
X1993520Y-2615740D01*
X1991060Y-2621460D01*
X1989280Y-2627420D01*
X1988200Y-2633540D01*
X1987840Y-2639760D01*
X1988200Y-2645960D01*
X1989280Y-2652100D01*
X1991060Y-2658060D01*
X1993520Y-2663759D01*
X1996639Y-2669160D01*
X2000340Y-2674140D01*
X2004620Y-2678680D01*
X2009379Y-2682679D01*
X2014580Y-2686100D01*
X2020140Y-2688880D01*
X2025980Y-2691019D01*
X2032040Y-2692440D01*
G37*
G36*
X1211460Y-2693159D02*
G01*
X1217680Y-2693159D01*
X1223860Y-2692440D01*
X1229900Y-2691019D01*
X1235760Y-2688880D01*
X1241320Y-2686100D01*
X1246520Y-2682679D01*
X1251280Y-2678680D01*
X1255540Y-2674140D01*
X1259260Y-2669160D01*
X1262380Y-2663759D01*
X1264840Y-2658060D01*
X1266620Y-2652100D01*
X1267700Y-2645960D01*
X1268060Y-2639760D01*
X1267700Y-2633540D01*
X1266620Y-2627420D01*
X1264840Y-2621460D01*
X1262380Y-2615740D01*
X1259260Y-2610360D01*
X1255540Y-2605360D01*
X1251280Y-2600840D01*
X1246520Y-2596840D01*
X1241320Y-2593420D01*
X1235760Y-2590640D01*
X1229900Y-2588500D01*
X1223860Y-2587080D01*
X1217680Y-2586340D01*
X1211460Y-2586340D01*
X1205280Y-2587080D01*
X1199220Y-2588500D01*
X1193380Y-2590640D01*
X1187820Y-2593420D01*
X1182620Y-2596840D01*
X1177840Y-2600840D01*
X1173580Y-2605360D01*
X1169860Y-2610360D01*
X1166760Y-2615740D01*
X1164280Y-2621460D01*
X1162500Y-2627420D01*
X1161420Y-2633540D01*
X1161060Y-2639760D01*
X1161420Y-2645960D01*
X1162500Y-2652100D01*
X1164280Y-2658060D01*
X1166760Y-2663759D01*
X1169860Y-2669160D01*
X1173580Y-2674140D01*
X1177840Y-2678680D01*
X1182620Y-2682679D01*
X1187820Y-2686100D01*
X1193380Y-2688880D01*
X1199220Y-2691019D01*
X1205280Y-2692440D01*
G37*
G36*
X3416180Y-2693159D02*
G01*
X3422400Y-2693159D01*
X3428580Y-2692440D01*
X3434620Y-2691019D01*
X3440480Y-2688880D01*
X3446040Y-2686100D01*
X3451240Y-2682679D01*
X3456000Y-2678680D01*
X3460260Y-2674140D01*
X3463980Y-2669160D01*
X3467100Y-2663759D01*
X3469560Y-2658060D01*
X3471340Y-2652100D01*
X3472420Y-2645960D01*
X3472780Y-2639760D01*
X3472420Y-2633540D01*
X3471340Y-2627420D01*
X3469560Y-2621460D01*
X3467100Y-2615740D01*
X3463980Y-2610360D01*
X3460260Y-2605360D01*
X3456000Y-2600840D01*
X3451240Y-2596840D01*
X3446040Y-2593420D01*
X3440480Y-2590640D01*
X3434620Y-2588500D01*
X3428580Y-2587080D01*
X3422400Y-2586340D01*
X3416180Y-2586340D01*
X3410000Y-2587080D01*
X3403940Y-2588500D01*
X3398100Y-2590640D01*
X3392540Y-2593420D01*
X3387340Y-2596840D01*
X3382559Y-2600840D01*
X3378300Y-2605360D01*
X3374580Y-2610360D01*
X3371480Y-2615740D01*
X3369000Y-2621460D01*
X3367220Y-2627420D01*
X3366139Y-2633540D01*
X3365779Y-2639760D01*
X3366139Y-2645960D01*
X3367220Y-2652100D01*
X3369000Y-2658060D01*
X3371480Y-2663759D01*
X3374580Y-2669160D01*
X3378300Y-2674140D01*
X3382559Y-2678680D01*
X3387340Y-2682679D01*
X3392540Y-2686100D01*
X3398100Y-2688880D01*
X3403940Y-2691019D01*
X3410000Y-2692440D01*
G37*
G36*
X3140580Y-2693159D02*
G01*
X3146800Y-2693159D01*
X3152980Y-2692440D01*
X3159040Y-2691019D01*
X3164880Y-2688880D01*
X3170440Y-2686100D01*
X3175640Y-2682679D01*
X3180400Y-2678680D01*
X3184680Y-2674140D01*
X3188399Y-2669160D01*
X3191500Y-2663759D01*
X3193960Y-2658060D01*
X3195760Y-2652100D01*
X3196840Y-2645960D01*
X3197200Y-2639760D01*
X3196840Y-2633540D01*
X3195760Y-2627420D01*
X3193960Y-2621460D01*
X3191500Y-2615740D01*
X3188399Y-2610360D01*
X3184680Y-2605360D01*
X3180400Y-2600840D01*
X3175640Y-2596840D01*
X3170440Y-2593420D01*
X3164880Y-2590640D01*
X3159040Y-2588500D01*
X3152980Y-2587080D01*
X3146800Y-2586340D01*
X3140580Y-2586340D01*
X3134400Y-2587080D01*
X3128340Y-2588500D01*
X3122500Y-2590640D01*
X3116940Y-2593420D01*
X3111740Y-2596840D01*
X3106980Y-2600840D01*
X3102700Y-2605360D01*
X3099000Y-2610360D01*
X3095880Y-2615740D01*
X3093420Y-2621460D01*
X3091640Y-2627420D01*
X3090560Y-2633540D01*
X3090200Y-2639760D01*
X3090560Y-2645960D01*
X3091640Y-2652100D01*
X3093420Y-2658060D01*
X3095880Y-2663759D01*
X3099000Y-2669160D01*
X3102700Y-2674140D01*
X3106980Y-2678680D01*
X3111740Y-2682679D01*
X3116940Y-2686100D01*
X3122500Y-2688880D01*
X3128340Y-2691019D01*
X3134400Y-2692440D01*
G37*
G36*
X2589400Y-2693159D02*
G01*
X2595620Y-2693159D01*
X2601800Y-2692440D01*
X2607840Y-2691019D01*
X2613700Y-2688880D01*
X2619260Y-2686100D01*
X2624460Y-2682679D01*
X2629220Y-2678680D01*
X2633480Y-2674140D01*
X2637200Y-2669160D01*
X2640320Y-2663759D01*
X2642780Y-2658060D01*
X2644560Y-2652100D01*
X2645640Y-2645960D01*
X2646000Y-2639760D01*
X2645640Y-2633540D01*
X2644560Y-2627420D01*
X2642780Y-2621460D01*
X2640320Y-2615740D01*
X2637200Y-2610360D01*
X2633480Y-2605360D01*
X2629220Y-2600840D01*
X2624460Y-2596840D01*
X2619260Y-2593420D01*
X2613700Y-2590640D01*
X2607840Y-2588500D01*
X2601800Y-2587080D01*
X2595620Y-2586340D01*
X2589400Y-2586340D01*
X2583220Y-2587080D01*
X2577160Y-2588500D01*
X2571320Y-2590640D01*
X2565760Y-2593420D01*
X2560560Y-2596840D01*
X2555780Y-2600840D01*
X2551520Y-2605360D01*
X2547800Y-2610360D01*
X2544700Y-2615740D01*
X2542240Y-2621460D01*
X2540440Y-2627420D01*
X2539360Y-2633540D01*
X2539000Y-2639760D01*
X2539360Y-2645960D01*
X2540440Y-2652100D01*
X2542240Y-2658060D01*
X2544700Y-2663759D01*
X2547800Y-2669160D01*
X2551520Y-2674140D01*
X2555780Y-2678680D01*
X2560560Y-2682679D01*
X2565760Y-2686100D01*
X2571320Y-2688880D01*
X2577160Y-2691019D01*
X2583220Y-2692440D01*
G37*
G36*
X3691760Y-2693159D02*
G01*
X3697980Y-2693159D01*
X3704160Y-2692440D01*
X3710200Y-2691019D01*
X3716060Y-2688880D01*
X3721620Y-2686100D01*
X3726820Y-2682679D01*
X3731580Y-2678680D01*
X3735840Y-2674140D01*
X3739560Y-2669160D01*
X3742679Y-2663759D01*
X3745140Y-2658060D01*
X3746920Y-2652100D01*
X3748000Y-2645960D01*
X3748360Y-2639760D01*
X3748000Y-2633540D01*
X3746920Y-2627420D01*
X3745140Y-2621460D01*
X3742679Y-2615740D01*
X3739560Y-2610360D01*
X3735840Y-2605360D01*
X3731580Y-2600840D01*
X3726820Y-2596840D01*
X3721620Y-2593420D01*
X3716060Y-2590640D01*
X3710200Y-2588500D01*
X3704160Y-2587080D01*
X3697980Y-2586340D01*
X3691760Y-2586340D01*
X3685580Y-2587080D01*
X3679520Y-2588500D01*
X3673680Y-2590640D01*
X3668120Y-2593420D01*
X3662919Y-2596840D01*
X3658140Y-2600840D01*
X3653880Y-2605360D01*
X3650160Y-2610360D01*
X3647060Y-2615740D01*
X3644600Y-2621460D01*
X3642799Y-2627420D01*
X3641720Y-2633540D01*
X3641360Y-2639760D01*
X3641720Y-2645960D01*
X3642799Y-2652100D01*
X3644600Y-2658060D01*
X3647060Y-2663759D01*
X3650160Y-2669160D01*
X3653880Y-2674140D01*
X3658140Y-2678680D01*
X3662919Y-2682679D01*
X3668120Y-2686100D01*
X3673680Y-2688880D01*
X3679520Y-2691019D01*
X3685580Y-2692440D01*
G37*
G36*
X935860Y-2693159D02*
G01*
X942080Y-2693159D01*
X948259Y-2692440D01*
X954320Y-2691019D01*
X960160Y-2688880D01*
X965720Y-2686100D01*
X970920Y-2682679D01*
X975680Y-2678680D01*
X979960Y-2674140D01*
X983680Y-2669160D01*
X986780Y-2663759D01*
X989240Y-2658060D01*
X991040Y-2652100D01*
X992120Y-2645960D01*
X992480Y-2639760D01*
X992120Y-2633540D01*
X991040Y-2627420D01*
X989240Y-2621460D01*
X986780Y-2615740D01*
X983680Y-2610360D01*
X979960Y-2605360D01*
X975680Y-2600840D01*
X970920Y-2596840D01*
X965720Y-2593420D01*
X960160Y-2590640D01*
X954320Y-2588500D01*
X948259Y-2587080D01*
X942080Y-2586340D01*
X935860Y-2586340D01*
X929680Y-2587080D01*
X923620Y-2588500D01*
X917780Y-2590640D01*
X912220Y-2593420D01*
X907020Y-2596840D01*
X902260Y-2600840D01*
X897980Y-2605360D01*
X894280Y-2610360D01*
X891160Y-2615740D01*
X888700Y-2621460D01*
X886919Y-2627420D01*
X885840Y-2633540D01*
X885480Y-2639760D01*
X885840Y-2645960D01*
X886919Y-2652100D01*
X888700Y-2658060D01*
X891160Y-2663759D01*
X894280Y-2669160D01*
X897980Y-2674140D01*
X902260Y-2678680D01*
X907020Y-2682679D01*
X912220Y-2686100D01*
X917780Y-2688880D01*
X923620Y-2691019D01*
X929680Y-2692440D01*
G37*
G36*
X2313820Y-2693159D02*
G01*
X2320040Y-2693159D01*
X2326220Y-2692440D01*
X2332260Y-2691019D01*
X2338120Y-2688880D01*
X2343680Y-2686100D01*
X2348880Y-2682679D01*
X2353640Y-2678680D01*
X2357900Y-2674140D01*
X2361620Y-2669160D01*
X2364740Y-2663759D01*
X2367200Y-2658060D01*
X2368980Y-2652100D01*
X2370060Y-2645960D01*
X2370420Y-2639760D01*
X2370060Y-2633540D01*
X2368980Y-2627420D01*
X2367200Y-2621460D01*
X2364740Y-2615740D01*
X2361620Y-2610360D01*
X2357900Y-2605360D01*
X2353640Y-2600840D01*
X2348880Y-2596840D01*
X2343680Y-2593420D01*
X2338120Y-2590640D01*
X2332260Y-2588500D01*
X2326220Y-2587080D01*
X2320040Y-2586340D01*
X2313820Y-2586340D01*
X2307640Y-2587080D01*
X2301580Y-2588500D01*
X2295740Y-2590640D01*
X2290180Y-2593420D01*
X2284980Y-2596840D01*
X2280200Y-2600840D01*
X2275940Y-2605360D01*
X2272220Y-2610360D01*
X2269120Y-2615740D01*
X2266640Y-2621460D01*
X2264860Y-2627420D01*
X2263780Y-2633540D01*
X2263420Y-2639760D01*
X2263780Y-2645960D01*
X2264860Y-2652100D01*
X2266640Y-2658060D01*
X2269120Y-2663759D01*
X2272220Y-2669160D01*
X2275940Y-2674140D01*
X2280200Y-2678680D01*
X2284980Y-2682679D01*
X2290180Y-2686100D01*
X2295740Y-2688880D01*
X2301580Y-2691019D01*
X2307640Y-2692440D01*
G37*
G36*
X113740Y-2691259D02*
G01*
X119820Y-2690720D01*
X125780Y-2689460D01*
X131580Y-2687520D01*
X137080Y-2684880D01*
X142240Y-2681620D01*
X146980Y-2677780D01*
X151240Y-2673399D01*
X154940Y-2668540D01*
X158060Y-2663279D01*
X160520Y-2657700D01*
X162300Y-2651860D01*
X163380Y-2645860D01*
X163740Y-2639760D01*
X163380Y-2633660D01*
X162300Y-2627660D01*
X160520Y-2621820D01*
X158060Y-2616220D01*
X154940Y-2610980D01*
X151240Y-2606120D01*
X146980Y-2601740D01*
X142240Y-2597880D01*
X137080Y-2594640D01*
X131580Y-2592000D01*
X125780Y-2590040D01*
X119820Y-2588800D01*
X113740Y-2588240D01*
X107620Y-2588440D01*
X101600Y-2589340D01*
X95700Y-2590940D01*
X90040Y-2593240D01*
X84700Y-2596180D01*
X79740Y-2599740D01*
X75240Y-2603860D01*
X71240Y-2608480D01*
X67840Y-2613560D01*
X65039Y-2618980D01*
X62920Y-2624700D01*
X61480Y-2630640D01*
X60759Y-2636700D01*
X60759Y-2642820D01*
X61480Y-2648880D01*
X62920Y-2654800D01*
X65039Y-2660539D01*
X67840Y-2665960D01*
X71240Y-2671019D01*
X75240Y-2675659D01*
X79740Y-2679780D01*
X84700Y-2683340D01*
X90040Y-2686280D01*
X95700Y-2688580D01*
X101600Y-2690179D01*
X107620Y-2691080D01*
G37*
G36*
X389320Y-2691259D02*
G01*
X395400Y-2690720D01*
X401380Y-2689460D01*
X407160Y-2687520D01*
X412680Y-2684880D01*
X417840Y-2681620D01*
X422580Y-2677780D01*
X426840Y-2673399D01*
X430540Y-2668540D01*
X433640Y-2663279D01*
X436100Y-2657700D01*
X437879Y-2651860D01*
X438960Y-2645860D01*
X439320Y-2639760D01*
X438960Y-2633660D01*
X437879Y-2627660D01*
X436100Y-2621820D01*
X433640Y-2616220D01*
X430540Y-2610980D01*
X426840Y-2606120D01*
X422580Y-2601740D01*
X417840Y-2597880D01*
X412680Y-2594640D01*
X407160Y-2592000D01*
X401380Y-2590040D01*
X395400Y-2588800D01*
X389320Y-2588240D01*
X383220Y-2588440D01*
X377180Y-2589340D01*
X371300Y-2590940D01*
X365640Y-2593240D01*
X360280Y-2596180D01*
X355319Y-2599740D01*
X350820Y-2603860D01*
X346840Y-2608480D01*
X343420Y-2613560D01*
X340640Y-2618980D01*
X338519Y-2624700D01*
X337080Y-2630640D01*
X336360Y-2636700D01*
X336360Y-2642820D01*
X337080Y-2648880D01*
X338519Y-2654800D01*
X340640Y-2660539D01*
X343420Y-2665960D01*
X346840Y-2671019D01*
X350820Y-2675659D01*
X355319Y-2679780D01*
X360280Y-2683340D01*
X365640Y-2686280D01*
X371300Y-2688580D01*
X377180Y-2690179D01*
X383220Y-2691080D01*
G37*
G36*
X228939Y-2506000D02*
G01*
X232800Y-2505660D01*
X236520Y-2504660D01*
X240040Y-2503040D01*
X242200Y-2501580D01*
X246759Y-2499400D01*
X248480Y-2499020D01*
X378740Y-2499020D01*
X381900Y-2498700D01*
X384739Y-2497840D01*
X387380Y-2496440D01*
X389820Y-2494420D01*
X534540Y-2349700D01*
X536560Y-2347260D01*
X537960Y-2344620D01*
X538820Y-2341780D01*
X539140Y-2338620D01*
X539140Y-2086780D01*
X539440Y-2085240D01*
X540320Y-2083940D01*
X639060Y-1985180D01*
X640360Y-1984319D01*
X641900Y-1984019D01*
X728139Y-1984019D01*
X729840Y-1984400D01*
X731200Y-1985440D01*
X732000Y-1986980D01*
X732080Y-1988720D01*
X731420Y-1990320D01*
X729720Y-1992720D01*
X728100Y-1996240D01*
X727099Y-1999960D01*
X726760Y-2003820D01*
X727099Y-2007680D01*
X728100Y-2011399D01*
X729720Y-2014920D01*
X733220Y-2019780D01*
X733520Y-2021320D01*
X733220Y-2022860D01*
X729720Y-2027720D01*
X728100Y-2031240D01*
X727099Y-2034960D01*
X726760Y-2038820D01*
X727099Y-2042680D01*
X728100Y-2046399D01*
X729720Y-2049920D01*
X733220Y-2054780D01*
X733520Y-2056320D01*
X733220Y-2057860D01*
X729720Y-2062720D01*
X728100Y-2066240D01*
X727099Y-2069960D01*
X726760Y-2073820D01*
X727099Y-2077680D01*
X728100Y-2081399D01*
X729720Y-2084920D01*
X731940Y-2088080D01*
X734680Y-2090820D01*
X737840Y-2093040D01*
X741360Y-2094660D01*
X745080Y-2095660D01*
X748940Y-2096000D01*
X752800Y-2095660D01*
X756520Y-2094660D01*
X760040Y-2093040D01*
X763199Y-2090820D01*
X765939Y-2088080D01*
X768160Y-2084920D01*
X769780Y-2081399D01*
X770780Y-2077680D01*
X771120Y-2073820D01*
X770780Y-2069960D01*
X769780Y-2066240D01*
X768160Y-2062720D01*
X764659Y-2057860D01*
X764360Y-2056320D01*
X764659Y-2054780D01*
X768160Y-2049920D01*
X769780Y-2046399D01*
X770780Y-2042680D01*
X771120Y-2038820D01*
X770780Y-2034960D01*
X769780Y-2031240D01*
X768160Y-2027720D01*
X764659Y-2022860D01*
X764360Y-2021320D01*
X764659Y-2019780D01*
X768160Y-2014920D01*
X769780Y-2011399D01*
X770780Y-2007680D01*
X771120Y-2003820D01*
X770780Y-1999960D01*
X769780Y-1996240D01*
X768160Y-1992720D01*
X766460Y-1990320D01*
X765800Y-1988720D01*
X765879Y-1986980D01*
X766680Y-1985440D01*
X768040Y-1984400D01*
X769740Y-1984019D01*
X783139Y-1984019D01*
X784840Y-1984400D01*
X786200Y-1985440D01*
X787000Y-1986980D01*
X787080Y-1988720D01*
X786420Y-1990320D01*
X784720Y-1992720D01*
X783100Y-1996240D01*
X782099Y-1999960D01*
X781760Y-2003820D01*
X782099Y-2007680D01*
X783100Y-2011399D01*
X784720Y-2014920D01*
X788220Y-2019780D01*
X788520Y-2021320D01*
X788220Y-2022860D01*
X784720Y-2027720D01*
X783100Y-2031240D01*
X782099Y-2034960D01*
X781760Y-2038820D01*
X782099Y-2042680D01*
X783100Y-2046399D01*
X784720Y-2049920D01*
X788220Y-2054780D01*
X788520Y-2056320D01*
X788220Y-2057860D01*
X784720Y-2062720D01*
X783100Y-2066240D01*
X782099Y-2069960D01*
X781760Y-2073820D01*
X782099Y-2077680D01*
X783100Y-2081399D01*
X784720Y-2084920D01*
X786940Y-2088080D01*
X789680Y-2090820D01*
X792840Y-2093040D01*
X796360Y-2094660D01*
X800080Y-2095660D01*
X803940Y-2096000D01*
X807800Y-2095660D01*
X811520Y-2094660D01*
X815040Y-2093040D01*
X818199Y-2090820D01*
X820939Y-2088080D01*
X823160Y-2084920D01*
X824780Y-2081399D01*
X825780Y-2077680D01*
X826120Y-2073820D01*
X825780Y-2069960D01*
X824780Y-2066240D01*
X823160Y-2062720D01*
X819659Y-2057860D01*
X819360Y-2056320D01*
X819659Y-2054780D01*
X823160Y-2049920D01*
X824780Y-2046399D01*
X825780Y-2042680D01*
X826120Y-2038820D01*
X825780Y-2034960D01*
X824780Y-2031240D01*
X823160Y-2027720D01*
X819659Y-2022860D01*
X819360Y-2021320D01*
X819659Y-2019780D01*
X823160Y-2014920D01*
X824780Y-2011399D01*
X825780Y-2007680D01*
X826120Y-2003820D01*
X825780Y-1999960D01*
X824780Y-1996240D01*
X823160Y-1992720D01*
X821460Y-1990320D01*
X820800Y-1988720D01*
X820879Y-1986980D01*
X821680Y-1985440D01*
X823040Y-1984400D01*
X824740Y-1984019D01*
X843139Y-1984019D01*
X844840Y-1984400D01*
X846200Y-1985440D01*
X847000Y-1986980D01*
X847080Y-1988720D01*
X846420Y-1990320D01*
X844720Y-1992720D01*
X843100Y-1996240D01*
X842099Y-1999960D01*
X841760Y-2003820D01*
X842099Y-2007680D01*
X843100Y-2011399D01*
X844720Y-2014920D01*
X848220Y-2019780D01*
X848520Y-2021320D01*
X848220Y-2022860D01*
X844720Y-2027720D01*
X843100Y-2031240D01*
X842099Y-2034960D01*
X841760Y-2038820D01*
X842099Y-2042680D01*
X843100Y-2046399D01*
X844720Y-2049920D01*
X848220Y-2054780D01*
X848520Y-2056320D01*
X848220Y-2057860D01*
X844720Y-2062720D01*
X843100Y-2066240D01*
X842099Y-2069960D01*
X841760Y-2073820D01*
X842099Y-2077680D01*
X843100Y-2081399D01*
X844720Y-2084920D01*
X846940Y-2088080D01*
X849680Y-2090820D01*
X852840Y-2093040D01*
X856360Y-2094660D01*
X860080Y-2095660D01*
X863940Y-2096000D01*
X867800Y-2095660D01*
X871520Y-2094660D01*
X875040Y-2093040D01*
X878199Y-2090820D01*
X880939Y-2088080D01*
X883160Y-2084920D01*
X884780Y-2081399D01*
X885780Y-2077680D01*
X886120Y-2073820D01*
X885780Y-2069960D01*
X884780Y-2066240D01*
X883160Y-2062720D01*
X879659Y-2057860D01*
X879360Y-2056320D01*
X879659Y-2054780D01*
X883160Y-2049920D01*
X884780Y-2046399D01*
X885780Y-2042680D01*
X886120Y-2038820D01*
X885780Y-2034960D01*
X884780Y-2031240D01*
X883160Y-2027720D01*
X879659Y-2022860D01*
X879360Y-2021320D01*
X879659Y-2019780D01*
X883160Y-2014920D01*
X884780Y-2011399D01*
X885780Y-2007680D01*
X886120Y-2003820D01*
X885780Y-1999960D01*
X884780Y-1996240D01*
X883160Y-1992720D01*
X881460Y-1990320D01*
X880800Y-1988720D01*
X880879Y-1986980D01*
X881680Y-1985440D01*
X883040Y-1984400D01*
X884740Y-1984019D01*
X1273140Y-1984019D01*
X1274840Y-1984400D01*
X1276200Y-1985440D01*
X1277000Y-1986980D01*
X1277080Y-1988720D01*
X1276420Y-1990320D01*
X1274720Y-1992720D01*
X1273100Y-1996240D01*
X1272100Y-1999960D01*
X1271760Y-2003820D01*
X1272100Y-2007680D01*
X1273100Y-2011399D01*
X1274720Y-2014920D01*
X1278220Y-2019780D01*
X1278520Y-2021320D01*
X1278220Y-2022860D01*
X1274720Y-2027720D01*
X1273100Y-2031240D01*
X1272100Y-2034960D01*
X1271760Y-2038820D01*
X1272100Y-2042680D01*
X1273100Y-2046399D01*
X1274720Y-2049920D01*
X1278220Y-2054780D01*
X1278520Y-2056320D01*
X1278220Y-2057860D01*
X1274720Y-2062720D01*
X1273100Y-2066240D01*
X1272100Y-2069960D01*
X1271760Y-2073820D01*
X1272100Y-2077680D01*
X1273100Y-2081399D01*
X1274720Y-2084920D01*
X1276940Y-2088080D01*
X1279680Y-2090820D01*
X1282840Y-2093040D01*
X1286360Y-2094660D01*
X1290080Y-2095660D01*
X1293940Y-2096000D01*
X1297800Y-2095660D01*
X1301519Y-2094660D01*
X1305040Y-2093040D01*
X1308200Y-2090820D01*
X1310940Y-2088080D01*
X1313160Y-2084920D01*
X1314780Y-2081399D01*
X1315780Y-2077680D01*
X1316120Y-2073820D01*
X1315780Y-2069960D01*
X1314780Y-2066240D01*
X1313160Y-2062720D01*
X1309660Y-2057860D01*
X1309360Y-2056320D01*
X1309660Y-2054780D01*
X1313160Y-2049920D01*
X1314780Y-2046399D01*
X1315780Y-2042680D01*
X1316120Y-2038820D01*
X1315780Y-2034960D01*
X1314780Y-2031240D01*
X1313160Y-2027720D01*
X1309660Y-2022860D01*
X1309360Y-2021320D01*
X1309660Y-2019780D01*
X1313160Y-2014920D01*
X1314780Y-2011399D01*
X1315780Y-2007680D01*
X1316120Y-2003820D01*
X1315780Y-1999960D01*
X1314780Y-1996240D01*
X1313160Y-1992720D01*
X1311459Y-1990320D01*
X1310800Y-1988720D01*
X1310880Y-1986980D01*
X1311680Y-1985440D01*
X1313040Y-1984400D01*
X1314740Y-1984019D01*
X1333140Y-1984019D01*
X1334840Y-1984400D01*
X1336200Y-1985440D01*
X1337000Y-1986980D01*
X1337080Y-1988720D01*
X1336420Y-1990320D01*
X1334720Y-1992720D01*
X1333100Y-1996240D01*
X1332100Y-1999960D01*
X1331759Y-2003820D01*
X1332100Y-2007680D01*
X1333100Y-2011399D01*
X1334720Y-2014920D01*
X1338220Y-2019780D01*
X1338520Y-2021320D01*
X1338220Y-2022860D01*
X1334720Y-2027720D01*
X1333100Y-2031240D01*
X1332100Y-2034960D01*
X1331759Y-2038820D01*
X1332100Y-2042680D01*
X1333100Y-2046399D01*
X1334720Y-2049920D01*
X1338220Y-2054780D01*
X1338520Y-2056320D01*
X1338220Y-2057860D01*
X1334720Y-2062720D01*
X1333100Y-2066240D01*
X1332100Y-2069960D01*
X1331759Y-2073820D01*
X1332100Y-2077680D01*
X1333100Y-2081399D01*
X1334720Y-2084920D01*
X1336940Y-2088080D01*
X1339680Y-2090820D01*
X1342840Y-2093040D01*
X1346360Y-2094660D01*
X1350080Y-2095660D01*
X1353940Y-2096000D01*
X1357800Y-2095660D01*
X1361519Y-2094660D01*
X1365040Y-2093040D01*
X1368200Y-2090820D01*
X1370940Y-2088080D01*
X1373160Y-2084920D01*
X1374780Y-2081399D01*
X1375780Y-2077680D01*
X1376120Y-2073820D01*
X1375780Y-2069960D01*
X1374780Y-2066240D01*
X1373160Y-2062720D01*
X1369660Y-2057860D01*
X1369360Y-2056320D01*
X1369660Y-2054780D01*
X1373160Y-2049920D01*
X1374780Y-2046399D01*
X1375780Y-2042680D01*
X1376120Y-2038820D01*
X1375780Y-2034960D01*
X1374780Y-2031240D01*
X1373160Y-2027720D01*
X1369660Y-2022860D01*
X1369360Y-2021320D01*
X1369660Y-2019780D01*
X1373160Y-2014920D01*
X1374780Y-2011399D01*
X1375780Y-2007680D01*
X1376120Y-2003820D01*
X1375780Y-1999960D01*
X1374780Y-1996240D01*
X1373160Y-1992720D01*
X1371459Y-1990320D01*
X1370800Y-1988720D01*
X1370880Y-1986980D01*
X1371680Y-1985440D01*
X1373040Y-1984400D01*
X1374740Y-1984019D01*
X1388140Y-1984019D01*
X1389840Y-1984400D01*
X1391200Y-1985440D01*
X1392000Y-1986980D01*
X1392080Y-1988720D01*
X1391420Y-1990320D01*
X1389720Y-1992720D01*
X1388100Y-1996240D01*
X1387100Y-1999960D01*
X1386759Y-2003820D01*
X1387100Y-2007680D01*
X1388100Y-2011399D01*
X1389720Y-2014920D01*
X1393220Y-2019780D01*
X1393520Y-2021320D01*
X1393220Y-2022860D01*
X1389720Y-2027720D01*
X1388100Y-2031240D01*
X1387100Y-2034960D01*
X1386759Y-2038820D01*
X1387100Y-2042680D01*
X1388100Y-2046399D01*
X1389720Y-2049920D01*
X1393220Y-2054780D01*
X1393520Y-2056320D01*
X1393220Y-2057860D01*
X1389720Y-2062720D01*
X1388100Y-2066240D01*
X1387100Y-2069960D01*
X1386759Y-2073820D01*
X1387100Y-2077680D01*
X1388100Y-2081399D01*
X1389720Y-2084920D01*
X1391940Y-2088080D01*
X1394680Y-2090820D01*
X1397840Y-2093040D01*
X1401360Y-2094660D01*
X1405080Y-2095660D01*
X1408940Y-2096000D01*
X1412800Y-2095660D01*
X1416519Y-2094660D01*
X1420040Y-2093040D01*
X1423200Y-2090820D01*
X1425940Y-2088080D01*
X1428160Y-2084920D01*
X1429780Y-2081399D01*
X1430780Y-2077680D01*
X1431120Y-2073820D01*
X1430780Y-2069960D01*
X1429780Y-2066240D01*
X1428160Y-2062720D01*
X1424660Y-2057860D01*
X1424360Y-2056320D01*
X1424660Y-2054780D01*
X1428160Y-2049920D01*
X1429780Y-2046399D01*
X1430780Y-2042680D01*
X1431120Y-2038820D01*
X1430780Y-2034960D01*
X1429780Y-2031240D01*
X1428160Y-2027720D01*
X1424660Y-2022860D01*
X1424360Y-2021320D01*
X1424660Y-2019780D01*
X1428160Y-2014920D01*
X1429780Y-2011399D01*
X1430780Y-2007680D01*
X1431120Y-2003820D01*
X1430780Y-1999960D01*
X1429780Y-1996240D01*
X1428160Y-1992720D01*
X1426459Y-1990320D01*
X1425800Y-1988720D01*
X1425880Y-1986980D01*
X1426680Y-1985440D01*
X1428040Y-1984400D01*
X1429740Y-1984019D01*
X1823140Y-1984019D01*
X1824840Y-1984400D01*
X1826200Y-1985440D01*
X1827000Y-1986980D01*
X1827080Y-1988720D01*
X1826420Y-1990320D01*
X1824720Y-1992720D01*
X1823100Y-1996240D01*
X1822100Y-1999960D01*
X1821759Y-2003820D01*
X1822100Y-2007680D01*
X1823100Y-2011399D01*
X1824720Y-2014920D01*
X1828220Y-2019780D01*
X1828520Y-2021320D01*
X1828220Y-2022860D01*
X1824720Y-2027720D01*
X1823100Y-2031240D01*
X1822100Y-2034960D01*
X1821759Y-2038820D01*
X1822100Y-2042680D01*
X1823100Y-2046399D01*
X1824720Y-2049920D01*
X1828220Y-2054780D01*
X1828520Y-2056320D01*
X1828220Y-2057860D01*
X1824720Y-2062720D01*
X1823100Y-2066240D01*
X1822100Y-2069960D01*
X1821759Y-2073820D01*
X1822100Y-2077680D01*
X1823100Y-2081399D01*
X1824720Y-2084920D01*
X1826940Y-2088080D01*
X1829680Y-2090820D01*
X1832840Y-2093040D01*
X1836360Y-2094660D01*
X1840080Y-2095660D01*
X1843940Y-2096000D01*
X1847800Y-2095660D01*
X1851519Y-2094660D01*
X1855040Y-2093040D01*
X1858200Y-2090820D01*
X1860940Y-2088080D01*
X1863160Y-2084920D01*
X1864780Y-2081399D01*
X1865780Y-2077680D01*
X1866120Y-2073820D01*
X1865780Y-2069960D01*
X1864780Y-2066240D01*
X1863160Y-2062720D01*
X1859660Y-2057860D01*
X1859360Y-2056320D01*
X1859660Y-2054780D01*
X1863160Y-2049920D01*
X1864780Y-2046399D01*
X1865780Y-2042680D01*
X1866120Y-2038820D01*
X1865780Y-2034960D01*
X1864780Y-2031240D01*
X1863160Y-2027720D01*
X1859660Y-2022860D01*
X1859360Y-2021320D01*
X1859660Y-2019780D01*
X1863160Y-2014920D01*
X1864780Y-2011399D01*
X1865780Y-2007680D01*
X1866120Y-2003820D01*
X1865780Y-1999960D01*
X1864780Y-1996240D01*
X1863160Y-1992720D01*
X1861459Y-1990320D01*
X1860800Y-1988720D01*
X1860880Y-1986980D01*
X1861680Y-1985440D01*
X1863040Y-1984400D01*
X1864740Y-1984019D01*
X1883140Y-1984019D01*
X1884840Y-1984400D01*
X1886200Y-1985440D01*
X1887000Y-1986980D01*
X1887080Y-1988720D01*
X1886420Y-1990320D01*
X1884720Y-1992720D01*
X1883100Y-1996240D01*
X1882100Y-1999960D01*
X1881759Y-2003820D01*
X1882100Y-2007680D01*
X1883100Y-2011399D01*
X1884720Y-2014920D01*
X1888220Y-2019780D01*
X1888520Y-2021320D01*
X1888220Y-2022860D01*
X1884720Y-2027720D01*
X1883100Y-2031240D01*
X1882100Y-2034960D01*
X1881759Y-2038820D01*
X1882100Y-2042680D01*
X1883100Y-2046399D01*
X1884720Y-2049920D01*
X1888220Y-2054780D01*
X1888520Y-2056320D01*
X1888220Y-2057860D01*
X1884720Y-2062720D01*
X1883100Y-2066240D01*
X1882100Y-2069960D01*
X1881759Y-2073820D01*
X1882100Y-2077680D01*
X1883100Y-2081399D01*
X1884720Y-2084920D01*
X1886940Y-2088080D01*
X1889680Y-2090820D01*
X1892840Y-2093040D01*
X1896360Y-2094660D01*
X1900080Y-2095660D01*
X1903940Y-2096000D01*
X1907800Y-2095660D01*
X1911519Y-2094660D01*
X1915040Y-2093040D01*
X1918200Y-2090820D01*
X1920940Y-2088080D01*
X1923160Y-2084920D01*
X1924780Y-2081399D01*
X1925780Y-2077680D01*
X1926120Y-2073820D01*
X1925780Y-2069960D01*
X1924780Y-2066240D01*
X1923160Y-2062720D01*
X1919660Y-2057860D01*
X1919360Y-2056320D01*
X1919660Y-2054780D01*
X1923160Y-2049920D01*
X1924780Y-2046399D01*
X1925780Y-2042680D01*
X1926120Y-2038820D01*
X1925780Y-2034960D01*
X1924780Y-2031240D01*
X1923160Y-2027720D01*
X1919660Y-2022860D01*
X1919360Y-2021320D01*
X1919660Y-2019780D01*
X1923160Y-2014920D01*
X1924780Y-2011399D01*
X1925780Y-2007680D01*
X1926120Y-2003820D01*
X1925780Y-1999960D01*
X1924780Y-1996240D01*
X1923160Y-1992720D01*
X1921459Y-1990320D01*
X1920800Y-1988720D01*
X1920880Y-1986980D01*
X1921680Y-1985440D01*
X1923040Y-1984400D01*
X1924740Y-1984019D01*
X1938140Y-1984019D01*
X1939840Y-1984400D01*
X1941200Y-1985440D01*
X1942000Y-1986980D01*
X1942080Y-1988720D01*
X1941420Y-1990320D01*
X1939720Y-1992720D01*
X1938100Y-1996240D01*
X1937100Y-1999960D01*
X1936759Y-2003820D01*
X1937100Y-2007680D01*
X1938100Y-2011399D01*
X1939720Y-2014920D01*
X1943220Y-2019780D01*
X1943520Y-2021320D01*
X1943220Y-2022860D01*
X1939720Y-2027720D01*
X1938100Y-2031240D01*
X1937100Y-2034960D01*
X1936759Y-2038820D01*
X1937100Y-2042680D01*
X1938100Y-2046399D01*
X1939720Y-2049920D01*
X1943220Y-2054780D01*
X1943520Y-2056320D01*
X1943220Y-2057860D01*
X1939720Y-2062720D01*
X1938100Y-2066240D01*
X1937100Y-2069960D01*
X1936759Y-2073820D01*
X1937100Y-2077680D01*
X1938100Y-2081399D01*
X1939720Y-2084920D01*
X1941940Y-2088080D01*
X1944680Y-2090820D01*
X1947840Y-2093040D01*
X1951360Y-2094660D01*
X1955080Y-2095660D01*
X1958940Y-2096000D01*
X1962800Y-2095660D01*
X1966519Y-2094660D01*
X1970040Y-2093040D01*
X1973200Y-2090820D01*
X1975940Y-2088080D01*
X1978160Y-2084920D01*
X1979780Y-2081399D01*
X1980780Y-2077680D01*
X1981120Y-2073820D01*
X1980780Y-2069960D01*
X1979780Y-2066240D01*
X1978160Y-2062720D01*
X1974660Y-2057860D01*
X1974360Y-2056320D01*
X1974660Y-2054780D01*
X1978160Y-2049920D01*
X1979780Y-2046399D01*
X1980780Y-2042680D01*
X1981120Y-2038820D01*
X1980780Y-2034960D01*
X1979780Y-2031240D01*
X1978160Y-2027720D01*
X1974660Y-2022860D01*
X1974360Y-2021320D01*
X1974660Y-2019780D01*
X1978160Y-2014920D01*
X1979780Y-2011399D01*
X1980780Y-2007680D01*
X1981120Y-2003820D01*
X1980780Y-1999960D01*
X1979780Y-1996240D01*
X1978160Y-1992720D01*
X1976459Y-1990320D01*
X1975800Y-1988720D01*
X1975880Y-1986980D01*
X1976680Y-1985440D01*
X1978040Y-1984400D01*
X1979740Y-1984019D01*
X2373140Y-1984019D01*
X2374840Y-1984400D01*
X2376200Y-1985440D01*
X2377000Y-1986980D01*
X2377080Y-1988720D01*
X2376420Y-1990320D01*
X2374720Y-1992720D01*
X2373100Y-1996240D01*
X2372100Y-1999960D01*
X2371760Y-2003820D01*
X2372100Y-2007680D01*
X2373100Y-2011399D01*
X2374720Y-2014920D01*
X2378220Y-2019780D01*
X2378520Y-2021320D01*
X2378220Y-2022860D01*
X2374720Y-2027720D01*
X2373100Y-2031240D01*
X2372100Y-2034960D01*
X2371760Y-2038820D01*
X2372100Y-2042680D01*
X2373100Y-2046399D01*
X2374720Y-2049920D01*
X2378220Y-2054780D01*
X2378520Y-2056320D01*
X2378220Y-2057860D01*
X2374720Y-2062720D01*
X2373100Y-2066240D01*
X2372100Y-2069960D01*
X2371760Y-2073820D01*
X2372100Y-2077680D01*
X2373100Y-2081399D01*
X2374720Y-2084920D01*
X2376940Y-2088080D01*
X2379680Y-2090820D01*
X2382840Y-2093040D01*
X2386360Y-2094660D01*
X2390080Y-2095660D01*
X2393940Y-2096000D01*
X2397800Y-2095660D01*
X2401520Y-2094660D01*
X2405040Y-2093040D01*
X2408200Y-2090820D01*
X2410940Y-2088080D01*
X2413160Y-2084920D01*
X2414780Y-2081399D01*
X2415780Y-2077680D01*
X2416120Y-2073820D01*
X2415780Y-2069960D01*
X2414780Y-2066240D01*
X2413160Y-2062720D01*
X2409660Y-2057860D01*
X2409360Y-2056320D01*
X2409660Y-2054780D01*
X2413160Y-2049920D01*
X2414780Y-2046399D01*
X2415780Y-2042680D01*
X2416120Y-2038820D01*
X2415780Y-2034960D01*
X2414780Y-2031240D01*
X2413160Y-2027720D01*
X2409660Y-2022860D01*
X2409360Y-2021320D01*
X2409660Y-2019780D01*
X2413160Y-2014920D01*
X2414780Y-2011399D01*
X2415780Y-2007680D01*
X2416120Y-2003820D01*
X2415780Y-1999960D01*
X2414780Y-1996240D01*
X2413160Y-1992720D01*
X2411460Y-1990320D01*
X2410800Y-1988720D01*
X2410880Y-1986980D01*
X2411680Y-1985440D01*
X2413040Y-1984400D01*
X2414740Y-1984019D01*
X2433140Y-1984019D01*
X2434840Y-1984400D01*
X2436200Y-1985440D01*
X2437000Y-1986980D01*
X2437080Y-1988720D01*
X2436420Y-1990320D01*
X2434720Y-1992720D01*
X2433100Y-1996240D01*
X2432100Y-1999960D01*
X2431760Y-2003820D01*
X2432100Y-2007680D01*
X2433100Y-2011399D01*
X2434720Y-2014920D01*
X2438220Y-2019780D01*
X2438520Y-2021320D01*
X2438220Y-2022860D01*
X2434720Y-2027720D01*
X2433100Y-2031240D01*
X2432100Y-2034960D01*
X2431760Y-2038820D01*
X2432100Y-2042680D01*
X2433100Y-2046399D01*
X2434720Y-2049920D01*
X2438220Y-2054780D01*
X2438520Y-2056320D01*
X2438220Y-2057860D01*
X2434720Y-2062720D01*
X2433100Y-2066240D01*
X2432100Y-2069960D01*
X2431760Y-2073820D01*
X2432100Y-2077680D01*
X2433100Y-2081399D01*
X2434720Y-2084920D01*
X2436940Y-2088080D01*
X2439680Y-2090820D01*
X2442840Y-2093040D01*
X2446360Y-2094660D01*
X2450080Y-2095660D01*
X2453940Y-2096000D01*
X2457800Y-2095660D01*
X2461520Y-2094660D01*
X2465040Y-2093040D01*
X2468200Y-2090820D01*
X2470940Y-2088080D01*
X2473160Y-2084920D01*
X2474780Y-2081399D01*
X2475780Y-2077680D01*
X2476120Y-2073820D01*
X2475780Y-2069960D01*
X2474780Y-2066240D01*
X2473160Y-2062720D01*
X2469660Y-2057860D01*
X2469360Y-2056320D01*
X2469660Y-2054780D01*
X2473160Y-2049920D01*
X2474780Y-2046399D01*
X2475780Y-2042680D01*
X2476120Y-2038820D01*
X2475780Y-2034960D01*
X2474780Y-2031240D01*
X2473160Y-2027720D01*
X2469660Y-2022860D01*
X2469360Y-2021320D01*
X2469660Y-2019780D01*
X2473160Y-2014920D01*
X2474780Y-2011399D01*
X2475780Y-2007680D01*
X2476120Y-2003820D01*
X2475780Y-1999960D01*
X2474780Y-1996240D01*
X2473160Y-1992720D01*
X2471460Y-1990320D01*
X2470800Y-1988720D01*
X2470880Y-1986980D01*
X2471680Y-1985440D01*
X2473040Y-1984400D01*
X2474740Y-1984019D01*
X2488140Y-1984019D01*
X2489840Y-1984400D01*
X2491200Y-1985440D01*
X2492000Y-1986980D01*
X2492080Y-1988720D01*
X2491420Y-1990320D01*
X2489720Y-1992720D01*
X2488100Y-1996240D01*
X2487100Y-1999960D01*
X2486760Y-2003820D01*
X2487100Y-2007680D01*
X2488100Y-2011399D01*
X2489720Y-2014920D01*
X2493220Y-2019780D01*
X2493520Y-2021320D01*
X2493220Y-2022860D01*
X2489720Y-2027720D01*
X2488100Y-2031240D01*
X2487100Y-2034960D01*
X2486760Y-2038820D01*
X2487100Y-2042680D01*
X2488100Y-2046399D01*
X2489720Y-2049920D01*
X2493220Y-2054780D01*
X2493520Y-2056320D01*
X2493220Y-2057860D01*
X2489720Y-2062720D01*
X2488100Y-2066240D01*
X2487100Y-2069960D01*
X2486760Y-2073820D01*
X2487100Y-2077680D01*
X2488100Y-2081399D01*
X2489720Y-2084920D01*
X2491940Y-2088080D01*
X2494680Y-2090820D01*
X2497840Y-2093040D01*
X2501360Y-2094660D01*
X2505080Y-2095660D01*
X2508940Y-2096000D01*
X2512800Y-2095660D01*
X2516520Y-2094660D01*
X2520040Y-2093040D01*
X2523200Y-2090820D01*
X2525940Y-2088080D01*
X2528160Y-2084920D01*
X2529780Y-2081399D01*
X2530780Y-2077680D01*
X2531120Y-2073820D01*
X2530780Y-2069960D01*
X2529780Y-2066240D01*
X2528160Y-2062720D01*
X2524660Y-2057860D01*
X2524360Y-2056320D01*
X2524660Y-2054780D01*
X2528160Y-2049920D01*
X2529780Y-2046399D01*
X2530780Y-2042680D01*
X2531120Y-2038820D01*
X2530780Y-2034960D01*
X2529780Y-2031240D01*
X2528160Y-2027720D01*
X2524660Y-2022860D01*
X2524360Y-2021320D01*
X2524660Y-2019780D01*
X2528160Y-2014920D01*
X2529780Y-2011399D01*
X2530780Y-2007680D01*
X2531120Y-2003820D01*
X2530780Y-1999960D01*
X2529780Y-1996240D01*
X2528160Y-1992720D01*
X2526460Y-1990320D01*
X2525800Y-1988720D01*
X2525880Y-1986980D01*
X2526680Y-1985440D01*
X2528040Y-1984400D01*
X2529740Y-1984019D01*
X2688740Y-1984019D01*
X2691900Y-1983700D01*
X2694740Y-1982840D01*
X2697380Y-1981440D01*
X2699820Y-1979420D01*
X2924540Y-1754700D01*
X2926560Y-1752260D01*
X2927960Y-1749620D01*
X2928820Y-1746780D01*
X2929140Y-1743620D01*
X2929140Y-1099020D01*
X2928820Y-1095860D01*
X2927960Y-1093000D01*
X2926560Y-1090380D01*
X2924540Y-1087940D01*
X2859820Y-1023199D01*
X2857380Y-1021200D01*
X2854740Y-1019800D01*
X2851900Y-1018920D01*
X2848740Y-1018620D01*
X2788480Y-1018620D01*
X2786760Y-1018220D01*
X2782200Y-1016060D01*
X2780040Y-1014599D01*
X2776520Y-1012980D01*
X2772799Y-1011979D01*
X2768940Y-1011640D01*
X2765080Y-1011979D01*
X2761360Y-1012980D01*
X2757840Y-1014599D01*
X2754680Y-1016820D01*
X2751940Y-1019560D01*
X2749720Y-1022720D01*
X2748100Y-1026240D01*
X2747799Y-1027340D01*
X2747000Y-1028880D01*
X2745620Y-1029940D01*
X2743940Y-1030320D01*
X2742240Y-1029940D01*
X2740860Y-1028880D01*
X2740059Y-1027340D01*
X2739780Y-1026300D01*
X2738159Y-1022800D01*
X2736700Y-1020639D01*
X2734520Y-1016060D01*
X2734140Y-1014340D01*
X2734140Y-669620D01*
X2734520Y-667920D01*
X2735560Y-666560D01*
X2737100Y-665759D01*
X2738840Y-665680D01*
X2740440Y-666340D01*
X2742840Y-668040D01*
X2746360Y-669659D01*
X2750080Y-670660D01*
X2753940Y-671000D01*
X2757799Y-670660D01*
X2761520Y-669659D01*
X2765040Y-668040D01*
X2768200Y-665819D01*
X2770940Y-663080D01*
X2773159Y-659920D01*
X2774780Y-656400D01*
X2775779Y-652680D01*
X2776120Y-648820D01*
X2775779Y-644960D01*
X2774780Y-641240D01*
X2773159Y-637720D01*
X2770940Y-634560D01*
X2768200Y-631820D01*
X2765040Y-629600D01*
X2761520Y-627980D01*
X2756760Y-626760D01*
X2752360Y-625200D01*
X2750860Y-624260D01*
X2726280Y-599660D01*
X2725360Y-598260D01*
X2725100Y-596620D01*
X2725299Y-594480D01*
X2725779Y-592680D01*
X2726120Y-588820D01*
X2725779Y-584960D01*
X2724780Y-581240D01*
X2723159Y-577720D01*
X2720940Y-574560D01*
X2718200Y-571820D01*
X2715040Y-569600D01*
X2711520Y-567980D01*
X2707900Y-567000D01*
X2707320Y-566720D01*
X2706320Y-566840D01*
X2703940Y-566640D01*
X2700080Y-566980D01*
X2696360Y-567980D01*
X2692840Y-569600D01*
X2689680Y-571820D01*
X2686940Y-574560D01*
X2684720Y-577720D01*
X2683100Y-581240D01*
X2682100Y-584960D01*
X2681760Y-588820D01*
X2682100Y-592680D01*
X2683100Y-596400D01*
X2684720Y-599920D01*
X2686940Y-603080D01*
X2689680Y-605820D01*
X2691100Y-607000D01*
X2693320Y-609700D01*
X2729380Y-645740D01*
X2730320Y-647240D01*
X2730700Y-648319D01*
X2730920Y-649820D01*
X2730560Y-651320D01*
X2729660Y-652560D01*
X2728380Y-653379D01*
X2726860Y-653660D01*
X2725360Y-653340D01*
X2724100Y-652480D01*
X2663519Y-591900D01*
X2662559Y-590400D01*
X2661000Y-586000D01*
X2659780Y-581240D01*
X2658159Y-577720D01*
X2655940Y-574560D01*
X2653200Y-571820D01*
X2650040Y-569600D01*
X2646520Y-567980D01*
X2642799Y-566980D01*
X2638940Y-566640D01*
X2635080Y-566980D01*
X2631360Y-567980D01*
X2627840Y-569600D01*
X2624680Y-571820D01*
X2621940Y-574560D01*
X2619720Y-577720D01*
X2618100Y-581240D01*
X2617100Y-584960D01*
X2616760Y-588820D01*
X2617100Y-592680D01*
X2618100Y-596400D01*
X2619720Y-599920D01*
X2621940Y-603080D01*
X2624680Y-605820D01*
X2627840Y-608040D01*
X2631360Y-609660D01*
X2636120Y-610880D01*
X2640520Y-612440D01*
X2642020Y-613380D01*
X2702559Y-673940D01*
X2703440Y-675240D01*
X2703740Y-676780D01*
X2703740Y-1014340D01*
X2703360Y-1016060D01*
X2701180Y-1020639D01*
X2699720Y-1022800D01*
X2698100Y-1026300D01*
X2697100Y-1030040D01*
X2696760Y-1033900D01*
X2697100Y-1037740D01*
X2697320Y-1038580D01*
X2697440Y-1040040D01*
X2697020Y-1041440D01*
X2696139Y-1042600D01*
X2694880Y-1043360D01*
X2693460Y-1043620D01*
X2688480Y-1043620D01*
X2686760Y-1043220D01*
X2682200Y-1041060D01*
X2680040Y-1039599D01*
X2676520Y-1037980D01*
X2672799Y-1036979D01*
X2668940Y-1036640D01*
X2665080Y-1036979D01*
X2661360Y-1037980D01*
X2657840Y-1039599D01*
X2654680Y-1041820D01*
X2651940Y-1044560D01*
X2649720Y-1047720D01*
X2648100Y-1051240D01*
X2647100Y-1054960D01*
X2646760Y-1058820D01*
X2647100Y-1062680D01*
X2648100Y-1066400D01*
X2649720Y-1069920D01*
X2651940Y-1073080D01*
X2654680Y-1075820D01*
X2657840Y-1078040D01*
X2661360Y-1079660D01*
X2665080Y-1080660D01*
X2668940Y-1081000D01*
X2672799Y-1080660D01*
X2676520Y-1079660D01*
X2680040Y-1078040D01*
X2682200Y-1076580D01*
X2686760Y-1074400D01*
X2688480Y-1074020D01*
X2830980Y-1074020D01*
X2832520Y-1074320D01*
X2833820Y-1075180D01*
X2872559Y-1113940D01*
X2873440Y-1115240D01*
X2873740Y-1116780D01*
X2873740Y-1207460D01*
X2873440Y-1209000D01*
X2872559Y-1210300D01*
X2871259Y-1211160D01*
X2869740Y-1211460D01*
X2868200Y-1211160D01*
X2866920Y-1210300D01*
X2843519Y-1186900D01*
X2842559Y-1185400D01*
X2841000Y-1181000D01*
X2839780Y-1176240D01*
X2838159Y-1172720D01*
X2835940Y-1169560D01*
X2833200Y-1166820D01*
X2830040Y-1164600D01*
X2826520Y-1162980D01*
X2822799Y-1161980D01*
X2818940Y-1161640D01*
X2815080Y-1161980D01*
X2811360Y-1162980D01*
X2807840Y-1164600D01*
X2804680Y-1166820D01*
X2801940Y-1169560D01*
X2799720Y-1172720D01*
X2798100Y-1176240D01*
X2797100Y-1179960D01*
X2796760Y-1183820D01*
X2797100Y-1187680D01*
X2798100Y-1191400D01*
X2799720Y-1194920D01*
X2801940Y-1198080D01*
X2804680Y-1200820D01*
X2807840Y-1203040D01*
X2811360Y-1204660D01*
X2816120Y-1205880D01*
X2820520Y-1207440D01*
X2822020Y-1208380D01*
X2847559Y-1233940D01*
X2848440Y-1235240D01*
X2848740Y-1236780D01*
X2848740Y-1562980D01*
X2848460Y-1564440D01*
X2847679Y-1565680D01*
X2846500Y-1566579D01*
X2841360Y-1567980D01*
X2837840Y-1569600D01*
X2834680Y-1571819D01*
X2831940Y-1574560D01*
X2829720Y-1577720D01*
X2828100Y-1581240D01*
X2827100Y-1584960D01*
X2826760Y-1588820D01*
X2827100Y-1592680D01*
X2828100Y-1596399D01*
X2829720Y-1599920D01*
X2831940Y-1603080D01*
X2834680Y-1605820D01*
X2837840Y-1608040D01*
X2841360Y-1609660D01*
X2845080Y-1610660D01*
X2848940Y-1611000D01*
X2852799Y-1610660D01*
X2856520Y-1609660D01*
X2860040Y-1608040D01*
X2863200Y-1605820D01*
X2865940Y-1603080D01*
X2866460Y-1602320D01*
X2867679Y-1601180D01*
X2869280Y-1600640D01*
X2870940Y-1600800D01*
X2872400Y-1601639D01*
X2873380Y-1602980D01*
X2873740Y-1604620D01*
X2873740Y-1725860D01*
X2873440Y-1727400D01*
X2872559Y-1728700D01*
X2673820Y-1927440D01*
X2672520Y-1928320D01*
X2670980Y-1928620D01*
X619140Y-1928620D01*
X615980Y-1928920D01*
X613120Y-1929800D01*
X610500Y-1931200D01*
X608060Y-1933200D01*
X478320Y-2062940D01*
X476320Y-2065380D01*
X474920Y-2068000D01*
X474060Y-2070860D01*
X473740Y-2074019D01*
X473740Y-2239280D01*
X473360Y-2241000D01*
X471180Y-2245560D01*
X469720Y-2247720D01*
X468100Y-2251240D01*
X467100Y-2254960D01*
X466760Y-2258820D01*
X467100Y-2262680D01*
X468100Y-2266400D01*
X469720Y-2269920D01*
X471940Y-2273080D01*
X474680Y-2275820D01*
X477840Y-2278040D01*
X481360Y-2279660D01*
X485080Y-2280660D01*
X488940Y-2281000D01*
X492800Y-2280660D01*
X496520Y-2279660D01*
X500040Y-2278040D01*
X502440Y-2276340D01*
X504040Y-2275680D01*
X505780Y-2275760D01*
X507320Y-2276560D01*
X508360Y-2277920D01*
X508740Y-2279620D01*
X508740Y-2330860D01*
X508440Y-2332400D01*
X507560Y-2333700D01*
X373820Y-2467440D01*
X372520Y-2468320D01*
X370980Y-2468620D01*
X248480Y-2468620D01*
X246759Y-2468220D01*
X242200Y-2466060D01*
X240040Y-2464600D01*
X236520Y-2462980D01*
X232800Y-2461980D01*
X228939Y-2461640D01*
X225080Y-2461980D01*
X221360Y-2462980D01*
X217840Y-2464600D01*
X214680Y-2466820D01*
X211940Y-2469560D01*
X209720Y-2472720D01*
X208100Y-2476240D01*
X207100Y-2479960D01*
X206759Y-2483820D01*
X207100Y-2487680D01*
X208100Y-2491400D01*
X209720Y-2494920D01*
X211940Y-2498080D01*
X214680Y-2500820D01*
X217840Y-2503040D01*
X221360Y-2504660D01*
X225080Y-2505660D01*
G37*
G36*
X1616680Y-214840D02*
G01*
X1623320Y-214480D01*
X1629880Y-213359D01*
X1636300Y-211520D01*
X1642440Y-208960D01*
X1648280Y-205740D01*
X1653700Y-201880D01*
X1658680Y-197440D01*
X1663120Y-192480D01*
X1666980Y-187040D01*
X1670200Y-181220D01*
X1672740Y-175060D01*
X1674580Y-168660D01*
X1675700Y-162100D01*
X1676080Y-155440D01*
X1675700Y-148780D01*
X1674580Y-142220D01*
X1672740Y-135820D01*
X1670200Y-129660D01*
X1666980Y-123840D01*
X1663120Y-118400D01*
X1658680Y-113440D01*
X1653700Y-109000D01*
X1648280Y-105140D01*
X1642440Y-101920D01*
X1636300Y-99360D01*
X1629880Y-97520D01*
X1623320Y-96400D01*
X1616680Y-96039D01*
X1610020Y-96400D01*
X1603460Y-97520D01*
X1597040Y-99360D01*
X1590900Y-101920D01*
X1585060Y-105140D01*
X1579640Y-109000D01*
X1574660Y-113440D01*
X1570220Y-118400D01*
X1566360Y-123840D01*
X1563140Y-129660D01*
X1560600Y-135820D01*
X1558760Y-142220D01*
X1557640Y-148780D01*
X1557260Y-155440D01*
X1557640Y-162100D01*
X1558760Y-168660D01*
X1560600Y-175060D01*
X1563140Y-181220D01*
X1566360Y-187040D01*
X1570220Y-192480D01*
X1574660Y-197440D01*
X1579640Y-201880D01*
X1585060Y-205740D01*
X1590900Y-208960D01*
X1597040Y-211520D01*
X1603460Y-213359D01*
X1610020Y-214480D01*
G37*
G36*
X402140Y-569420D02*
G01*
X407740Y-569240D01*
X413260Y-568360D01*
X418620Y-566760D01*
X423740Y-564500D01*
X428519Y-561600D01*
X432900Y-558100D01*
X436780Y-554100D01*
X440140Y-549600D01*
X442879Y-544740D01*
X444980Y-539540D01*
X446400Y-534140D01*
X447100Y-528580D01*
X447100Y-523000D01*
X446400Y-517440D01*
X444980Y-512040D01*
X442879Y-506840D01*
X440140Y-501980D01*
X436780Y-497500D01*
X432900Y-493480D01*
X428280Y-489840D01*
X427080Y-488740D01*
X426440Y-487239D01*
X426440Y-485600D01*
X427080Y-484120D01*
X428519Y-482860D01*
X432900Y-479360D01*
X436780Y-475340D01*
X440140Y-470860D01*
X442879Y-466000D01*
X444980Y-460800D01*
X446400Y-455400D01*
X447100Y-449840D01*
X447100Y-444260D01*
X446400Y-438700D01*
X444980Y-433300D01*
X442879Y-428100D01*
X440140Y-423240D01*
X436780Y-418760D01*
X432900Y-414739D01*
X428519Y-411240D01*
X423740Y-408340D01*
X418620Y-406079D01*
X413260Y-404480D01*
X407740Y-403600D01*
X402140Y-403420D01*
X396580Y-403960D01*
X391120Y-405200D01*
X385880Y-407140D01*
X380920Y-409720D01*
X376320Y-412920D01*
X372180Y-416680D01*
X368560Y-420940D01*
X365500Y-425620D01*
X363080Y-430660D01*
X361320Y-435980D01*
X360240Y-441460D01*
X359880Y-447060D01*
X360240Y-452640D01*
X361320Y-458120D01*
X363080Y-463440D01*
X365500Y-468480D01*
X368560Y-473160D01*
X372180Y-477420D01*
X376320Y-481180D01*
X379140Y-483140D01*
X380200Y-484240D01*
X380760Y-485660D01*
X380760Y-487180D01*
X380200Y-488600D01*
X379140Y-489700D01*
X376320Y-491659D01*
X372180Y-495420D01*
X368560Y-499680D01*
X365500Y-504360D01*
X363080Y-509400D01*
X361320Y-514720D01*
X360240Y-520200D01*
X359880Y-525800D01*
X360240Y-531380D01*
X361320Y-536860D01*
X363080Y-542180D01*
X365500Y-547220D01*
X368560Y-551900D01*
X372180Y-556160D01*
X376320Y-559920D01*
X380920Y-563120D01*
X385880Y-565720D01*
X391120Y-567640D01*
X396580Y-568880D01*
G37*
G36*
X203939Y-2231000D02*
G01*
X207800Y-2230660D01*
X211520Y-2229660D01*
X215040Y-2228040D01*
X217200Y-2226580D01*
X221759Y-2224400D01*
X223480Y-2224020D01*
X233740Y-2224020D01*
X236900Y-2223700D01*
X239740Y-2222840D01*
X242380Y-2221440D01*
X244820Y-2219420D01*
X455860Y-2008380D01*
X457360Y-2007440D01*
X461760Y-2005880D01*
X466520Y-2004660D01*
X470040Y-2003040D01*
X473200Y-2000820D01*
X475940Y-1998080D01*
X478160Y-1994920D01*
X479780Y-1991399D01*
X481000Y-1986639D01*
X482560Y-1982240D01*
X483500Y-1980740D01*
X701740Y-1762520D01*
X702800Y-1761759D01*
X704020Y-1761380D01*
X707200Y-1760960D01*
X708940Y-1761000D01*
X712800Y-1760660D01*
X716520Y-1759660D01*
X720040Y-1758040D01*
X723199Y-1755820D01*
X725939Y-1753080D01*
X728160Y-1749920D01*
X729780Y-1746399D01*
X730780Y-1742680D01*
X731120Y-1738820D01*
X730780Y-1734960D01*
X729780Y-1731240D01*
X728160Y-1727720D01*
X725939Y-1724560D01*
X723199Y-1721819D01*
X720040Y-1719600D01*
X716520Y-1717980D01*
X712800Y-1716980D01*
X708940Y-1716639D01*
X705080Y-1716980D01*
X701360Y-1717980D01*
X697840Y-1719600D01*
X694680Y-1721819D01*
X691940Y-1724560D01*
X689720Y-1727720D01*
X688120Y-1731060D01*
X684659Y-1736480D01*
X684120Y-1737140D01*
X462000Y-1959259D01*
X460520Y-1960200D01*
X456120Y-1961759D01*
X451360Y-1962980D01*
X447840Y-1964600D01*
X444680Y-1966819D01*
X441940Y-1969560D01*
X439720Y-1972720D01*
X438100Y-1976240D01*
X436880Y-1981000D01*
X435319Y-1985400D01*
X434380Y-1986900D01*
X228820Y-2192440D01*
X227520Y-2193320D01*
X225980Y-2193620D01*
X223480Y-2193620D01*
X221759Y-2193220D01*
X217200Y-2191060D01*
X215040Y-2189600D01*
X211520Y-2187980D01*
X207800Y-2186980D01*
X203939Y-2186640D01*
X200080Y-2186980D01*
X196360Y-2187980D01*
X192840Y-2189600D01*
X189680Y-2191820D01*
X186940Y-2194560D01*
X184720Y-2197720D01*
X183100Y-2201240D01*
X182100Y-2204960D01*
X181759Y-2208820D01*
X182100Y-2212680D01*
X183100Y-2216400D01*
X184720Y-2219920D01*
X186940Y-2223080D01*
X189680Y-2225820D01*
X192840Y-2228040D01*
X196360Y-2229660D01*
X200080Y-2230660D01*
G37*
G36*
X803940Y-2231000D02*
G01*
X807800Y-2230660D01*
X811520Y-2229660D01*
X815040Y-2228040D01*
X817200Y-2226580D01*
X821760Y-2224400D01*
X823480Y-2224020D01*
X1334400Y-2224020D01*
X1336120Y-2224400D01*
X1340680Y-2226580D01*
X1342840Y-2228040D01*
X1346360Y-2229660D01*
X1350080Y-2230660D01*
X1353940Y-2231000D01*
X1357800Y-2230660D01*
X1361519Y-2229660D01*
X1365040Y-2228040D01*
X1367200Y-2226580D01*
X1371759Y-2224400D01*
X1373480Y-2224020D01*
X1884400Y-2224020D01*
X1886120Y-2224400D01*
X1890680Y-2226580D01*
X1892840Y-2228040D01*
X1896360Y-2229660D01*
X1900080Y-2230660D01*
X1903940Y-2231000D01*
X1907800Y-2230660D01*
X1911519Y-2229660D01*
X1915040Y-2228040D01*
X1917200Y-2226580D01*
X1921759Y-2224400D01*
X1923480Y-2224020D01*
X2434400Y-2224020D01*
X2436120Y-2224400D01*
X2440680Y-2226580D01*
X2442840Y-2228040D01*
X2446360Y-2229660D01*
X2450080Y-2230660D01*
X2453940Y-2231000D01*
X2457800Y-2230660D01*
X2461520Y-2229660D01*
X2465040Y-2228040D01*
X2467200Y-2226580D01*
X2471760Y-2224400D01*
X2473480Y-2224020D01*
X2984400Y-2224020D01*
X2986120Y-2224400D01*
X2990680Y-2226580D01*
X2992840Y-2228040D01*
X2996360Y-2229660D01*
X3000080Y-2230660D01*
X3003940Y-2231000D01*
X3007799Y-2230660D01*
X3011520Y-2229660D01*
X3015040Y-2228040D01*
X3017200Y-2226580D01*
X3021760Y-2224400D01*
X3023480Y-2224020D01*
X3534400Y-2224020D01*
X3536120Y-2224400D01*
X3540680Y-2226580D01*
X3542840Y-2228040D01*
X3546360Y-2229660D01*
X3550080Y-2230660D01*
X3553940Y-2231000D01*
X3557799Y-2230660D01*
X3561520Y-2229660D01*
X3565040Y-2228040D01*
X3568200Y-2225820D01*
X3570940Y-2223080D01*
X3573159Y-2219920D01*
X3574780Y-2216400D01*
X3575779Y-2212680D01*
X3576120Y-2208820D01*
X3575779Y-2204960D01*
X3574780Y-2201240D01*
X3573159Y-2197720D01*
X3570940Y-2194560D01*
X3568200Y-2191820D01*
X3565040Y-2189600D01*
X3561520Y-2187980D01*
X3557799Y-2186980D01*
X3553940Y-2186640D01*
X3550080Y-2186980D01*
X3546360Y-2187980D01*
X3542840Y-2189600D01*
X3540680Y-2191060D01*
X3536120Y-2193220D01*
X3534400Y-2193620D01*
X3023480Y-2193620D01*
X3021760Y-2193220D01*
X3017200Y-2191060D01*
X3015040Y-2189600D01*
X3011520Y-2187980D01*
X3007799Y-2186980D01*
X3003940Y-2186640D01*
X3000080Y-2186980D01*
X2996360Y-2187980D01*
X2992840Y-2189600D01*
X2990680Y-2191060D01*
X2986120Y-2193220D01*
X2984400Y-2193620D01*
X2473480Y-2193620D01*
X2471760Y-2193220D01*
X2467200Y-2191060D01*
X2465040Y-2189600D01*
X2461520Y-2187980D01*
X2457800Y-2186980D01*
X2453940Y-2186640D01*
X2450080Y-2186980D01*
X2446360Y-2187980D01*
X2442840Y-2189600D01*
X2440680Y-2191060D01*
X2436120Y-2193220D01*
X2434400Y-2193620D01*
X1923480Y-2193620D01*
X1921759Y-2193220D01*
X1917200Y-2191060D01*
X1915040Y-2189600D01*
X1911519Y-2187980D01*
X1907800Y-2186980D01*
X1903940Y-2186640D01*
X1900080Y-2186980D01*
X1896360Y-2187980D01*
X1892840Y-2189600D01*
X1890680Y-2191060D01*
X1886120Y-2193220D01*
X1884400Y-2193620D01*
X1373480Y-2193620D01*
X1371759Y-2193220D01*
X1367200Y-2191060D01*
X1365040Y-2189600D01*
X1361519Y-2187980D01*
X1357800Y-2186980D01*
X1353940Y-2186640D01*
X1350080Y-2186980D01*
X1346360Y-2187980D01*
X1342840Y-2189600D01*
X1340680Y-2191060D01*
X1336120Y-2193220D01*
X1334400Y-2193620D01*
X823480Y-2193620D01*
X821760Y-2193220D01*
X817200Y-2191060D01*
X815040Y-2189600D01*
X811520Y-2187980D01*
X807800Y-2186980D01*
X803940Y-2186640D01*
X800080Y-2186980D01*
X796360Y-2187980D01*
X792840Y-2189600D01*
X790680Y-2191060D01*
X786120Y-2193220D01*
X784400Y-2193620D01*
X781900Y-2193620D01*
X780360Y-2193320D01*
X779060Y-2192440D01*
X715320Y-2128700D01*
X714440Y-2127400D01*
X714140Y-2125860D01*
X714140Y-2113360D01*
X714520Y-2111640D01*
X716700Y-2107080D01*
X718160Y-2104920D01*
X719780Y-2101400D01*
X720780Y-2097680D01*
X721120Y-2093820D01*
X720780Y-2089960D01*
X719780Y-2086240D01*
X718160Y-2082720D01*
X715939Y-2079560D01*
X713199Y-2076819D01*
X710040Y-2074600D01*
X706520Y-2072980D01*
X702800Y-2071980D01*
X698940Y-2071639D01*
X695080Y-2071980D01*
X691360Y-2072980D01*
X687840Y-2074600D01*
X684680Y-2076819D01*
X681940Y-2079560D01*
X679720Y-2082720D01*
X678100Y-2086240D01*
X677099Y-2089960D01*
X676760Y-2093820D01*
X677099Y-2097680D01*
X678100Y-2101400D01*
X679720Y-2104920D01*
X681180Y-2107080D01*
X683360Y-2111640D01*
X683740Y-2113360D01*
X683740Y-2133620D01*
X684060Y-2136780D01*
X684920Y-2139620D01*
X686320Y-2142260D01*
X688319Y-2144700D01*
X763060Y-2219420D01*
X765500Y-2221440D01*
X768120Y-2222840D01*
X770980Y-2223700D01*
X774140Y-2224020D01*
X784400Y-2224020D01*
X786120Y-2224400D01*
X790680Y-2226580D01*
X792840Y-2228040D01*
X796360Y-2229660D01*
X800080Y-2230660D01*
G37*
G36*
X303720Y-569420D02*
G01*
X309300Y-569240D01*
X314840Y-568360D01*
X320200Y-566760D01*
X325300Y-564500D01*
X330100Y-561600D01*
X334460Y-558100D01*
X338360Y-554100D01*
X341700Y-549600D01*
X344440Y-544740D01*
X346540Y-539540D01*
X347960Y-534140D01*
X348680Y-528580D01*
X348680Y-523000D01*
X347960Y-517440D01*
X346540Y-512040D01*
X344440Y-506840D01*
X341700Y-501980D01*
X338360Y-497500D01*
X334460Y-493480D01*
X330100Y-489980D01*
X325300Y-487080D01*
X320200Y-484820D01*
X314840Y-483220D01*
X309300Y-482340D01*
X303720Y-482160D01*
X298140Y-482700D01*
X292700Y-483940D01*
X287440Y-485880D01*
X282480Y-488459D01*
X277900Y-491659D01*
X273760Y-495420D01*
X270140Y-499680D01*
X267080Y-504360D01*
X264660Y-509400D01*
X262880Y-514720D01*
X261820Y-520200D01*
X261460Y-525800D01*
X261820Y-531380D01*
X262880Y-536860D01*
X264660Y-542180D01*
X267080Y-547220D01*
X270140Y-551900D01*
X273760Y-556160D01*
X277900Y-559920D01*
X282480Y-563120D01*
X287440Y-565720D01*
X292700Y-567640D01*
X298140Y-568880D01*
G37*
G36*
X1858940Y-581000D02*
G01*
X1862800Y-580660D01*
X1866519Y-579660D01*
X1870040Y-578040D01*
X1873200Y-575820D01*
X1875940Y-573080D01*
X1878160Y-569920D01*
X1879780Y-566400D01*
X1880780Y-562680D01*
X1881120Y-558820D01*
X1881080Y-557080D01*
X1881500Y-553900D01*
X1881879Y-552660D01*
X1882640Y-551620D01*
X1995860Y-438400D01*
X1997360Y-437440D01*
X2001759Y-435880D01*
X2006519Y-434660D01*
X2010040Y-433040D01*
X2013200Y-430820D01*
X2015940Y-428080D01*
X2018160Y-424920D01*
X2019780Y-421400D01*
X2020780Y-417680D01*
X2021120Y-413820D01*
X2020780Y-409960D01*
X2019780Y-406240D01*
X2018160Y-402720D01*
X2015940Y-399560D01*
X2013200Y-396820D01*
X2010040Y-394600D01*
X2006519Y-392980D01*
X2002800Y-391980D01*
X1998940Y-391640D01*
X1995080Y-391980D01*
X1991360Y-392980D01*
X1987840Y-394600D01*
X1984680Y-396820D01*
X1981940Y-399560D01*
X1979720Y-402720D01*
X1978100Y-406240D01*
X1976879Y-411000D01*
X1975320Y-415400D01*
X1974379Y-416880D01*
X1857260Y-534000D01*
X1856579Y-534540D01*
X1851200Y-538000D01*
X1847840Y-539600D01*
X1844680Y-541820D01*
X1841940Y-544560D01*
X1839720Y-547720D01*
X1838100Y-551240D01*
X1837100Y-554960D01*
X1836759Y-558820D01*
X1837100Y-562680D01*
X1838100Y-566400D01*
X1839720Y-569920D01*
X1841940Y-573080D01*
X1844680Y-575820D01*
X1847840Y-578040D01*
X1851360Y-579660D01*
X1855080Y-580660D01*
G37*
G36*
X3643660Y-636160D02*
G01*
X3651620Y-635960D01*
X3659540Y-635040D01*
X3667340Y-633360D01*
X3674940Y-630980D01*
X3682280Y-627880D01*
X3689300Y-624120D01*
X3695940Y-619700D01*
X3702140Y-614700D01*
X3707840Y-609120D01*
X3712980Y-603060D01*
X3717540Y-596520D01*
X3721480Y-589580D01*
X3724740Y-582320D01*
X3727320Y-574780D01*
X3729160Y-567020D01*
X3730280Y-559140D01*
X3730659Y-551180D01*
X3730280Y-543220D01*
X3729160Y-535320D01*
X3727320Y-527580D01*
X3724740Y-520040D01*
X3721480Y-512760D01*
X3717540Y-505840D01*
X3712980Y-499300D01*
X3707840Y-493220D01*
X3702140Y-487660D01*
X3695940Y-482640D01*
X3689300Y-478240D01*
X3682280Y-474480D01*
X3674940Y-471380D01*
X3667340Y-468980D01*
X3659540Y-467320D01*
X3651620Y-466380D01*
X3643660Y-466200D01*
X3635720Y-466760D01*
X3627860Y-468060D01*
X3620140Y-470100D01*
X3612660Y-472840D01*
X3605480Y-476280D01*
X3598639Y-480360D01*
X3592220Y-485080D01*
X3586259Y-490379D01*
X3580820Y-496200D01*
X3575960Y-502520D01*
X3571720Y-509260D01*
X3568120Y-516360D01*
X3565200Y-523780D01*
X3562980Y-531420D01*
X3561500Y-539260D01*
X3560740Y-547200D01*
X3560740Y-555160D01*
X3561500Y-563100D01*
X3562980Y-570920D01*
X3565200Y-578580D01*
X3568120Y-585980D01*
X3571720Y-593100D01*
X3575960Y-599840D01*
X3580820Y-606140D01*
X3586259Y-611980D01*
X3592220Y-617280D01*
X3598639Y-621980D01*
X3605480Y-626080D01*
X3612660Y-629520D01*
X3620140Y-632260D01*
X3627860Y-634280D01*
X3635720Y-635600D01*
G37*
G36*
X3497000Y-1214200D02*
G01*
X3500860Y-1213860D01*
X3504600Y-1212860D01*
X3508100Y-1211220D01*
X3511259Y-1209020D01*
X3514000Y-1206280D01*
X3516220Y-1203100D01*
X3517860Y-1199600D01*
X3518860Y-1195860D01*
X3519200Y-1192020D01*
X3518860Y-1188160D01*
X3517860Y-1184420D01*
X3516220Y-1180920D01*
X3514000Y-1177740D01*
X3511259Y-1175000D01*
X3508100Y-1172800D01*
X3504600Y-1171160D01*
X3503540Y-1170880D01*
X3502000Y-1170080D01*
X3500940Y-1168700D01*
X3500580Y-1167020D01*
X3500940Y-1165320D01*
X3502000Y-1163940D01*
X3503540Y-1163140D01*
X3504600Y-1162860D01*
X3508100Y-1161220D01*
X3511259Y-1159020D01*
X3514000Y-1156280D01*
X3516220Y-1153100D01*
X3517860Y-1149600D01*
X3518860Y-1145860D01*
X3519200Y-1142020D01*
X3518860Y-1138160D01*
X3517860Y-1134420D01*
X3516220Y-1130920D01*
X3514000Y-1127740D01*
X3511259Y-1125000D01*
X3508100Y-1122800D01*
X3504600Y-1121160D01*
X3503540Y-1120880D01*
X3502000Y-1120080D01*
X3500940Y-1118700D01*
X3500580Y-1117020D01*
X3500940Y-1115320D01*
X3502000Y-1113940D01*
X3503540Y-1113140D01*
X3504600Y-1112860D01*
X3508100Y-1111220D01*
X3511259Y-1109020D01*
X3514000Y-1106280D01*
X3516220Y-1103100D01*
X3517860Y-1099600D01*
X3518140Y-1098540D01*
X3518940Y-1097020D01*
X3520299Y-1095960D01*
X3522000Y-1095580D01*
X3523700Y-1095960D01*
X3525059Y-1097020D01*
X3525860Y-1098540D01*
X3526139Y-1099600D01*
X3527780Y-1103100D01*
X3530000Y-1106280D01*
X3532740Y-1109020D01*
X3535899Y-1111220D01*
X3539400Y-1112860D01*
X3543140Y-1113860D01*
X3547000Y-1114200D01*
X3550860Y-1113860D01*
X3554600Y-1112860D01*
X3558100Y-1111220D01*
X3561259Y-1109020D01*
X3564000Y-1106280D01*
X3566220Y-1103100D01*
X3567860Y-1099600D01*
X3568140Y-1098540D01*
X3568940Y-1097020D01*
X3570299Y-1095960D01*
X3572000Y-1095580D01*
X3573700Y-1095960D01*
X3575059Y-1097020D01*
X3575860Y-1098540D01*
X3576139Y-1099600D01*
X3577780Y-1103100D01*
X3580000Y-1106280D01*
X3582740Y-1109020D01*
X3585899Y-1111220D01*
X3589400Y-1112860D01*
X3593140Y-1113860D01*
X3597000Y-1114200D01*
X3600860Y-1113860D01*
X3604600Y-1112860D01*
X3608100Y-1111220D01*
X3611259Y-1109020D01*
X3614000Y-1106280D01*
X3616220Y-1103100D01*
X3617860Y-1099600D01*
X3618860Y-1095860D01*
X3619200Y-1092020D01*
X3618860Y-1088160D01*
X3617860Y-1084420D01*
X3616220Y-1080920D01*
X3614000Y-1077740D01*
X3611259Y-1075000D01*
X3608100Y-1072800D01*
X3604600Y-1071160D01*
X3603540Y-1070880D01*
X3602000Y-1070080D01*
X3600940Y-1068700D01*
X3600580Y-1067020D01*
X3600940Y-1065320D01*
X3602000Y-1063940D01*
X3603540Y-1063140D01*
X3604600Y-1062860D01*
X3608100Y-1061220D01*
X3611259Y-1059020D01*
X3614000Y-1056280D01*
X3616220Y-1053100D01*
X3617860Y-1049600D01*
X3618860Y-1045860D01*
X3619200Y-1042020D01*
X3618860Y-1038160D01*
X3617860Y-1034419D01*
X3616220Y-1030920D01*
X3614000Y-1027740D01*
X3611259Y-1025000D01*
X3608100Y-1022800D01*
X3604600Y-1021160D01*
X3603540Y-1020879D01*
X3602000Y-1020080D01*
X3600940Y-1018700D01*
X3600580Y-1017020D01*
X3600940Y-1015320D01*
X3602000Y-1013940D01*
X3603540Y-1013139D01*
X3604600Y-1012860D01*
X3608100Y-1011220D01*
X3611259Y-1009020D01*
X3614000Y-1006280D01*
X3616220Y-1003100D01*
X3617860Y-999599D01*
X3618860Y-995860D01*
X3619200Y-992020D01*
X3618860Y-988160D01*
X3617860Y-984419D01*
X3616220Y-980920D01*
X3614000Y-977740D01*
X3611259Y-975000D01*
X3608100Y-972800D01*
X3604600Y-971160D01*
X3600860Y-970160D01*
X3597000Y-969820D01*
X3593140Y-970160D01*
X3589400Y-971160D01*
X3585899Y-972800D01*
X3582740Y-975000D01*
X3580000Y-977740D01*
X3577780Y-980920D01*
X3576139Y-984419D01*
X3575860Y-985480D01*
X3575059Y-987000D01*
X3573700Y-988060D01*
X3572000Y-988439D01*
X3570299Y-988060D01*
X3568940Y-987000D01*
X3568140Y-985480D01*
X3567860Y-984419D01*
X3566220Y-980920D01*
X3564000Y-977740D01*
X3561259Y-975000D01*
X3558100Y-972800D01*
X3554600Y-971160D01*
X3550860Y-970160D01*
X3547000Y-969820D01*
X3543140Y-970160D01*
X3539400Y-971160D01*
X3535899Y-972800D01*
X3532740Y-975000D01*
X3530000Y-977740D01*
X3527780Y-980920D01*
X3526139Y-984419D01*
X3525860Y-985480D01*
X3525059Y-987000D01*
X3523700Y-988060D01*
X3522000Y-988439D01*
X3520299Y-988060D01*
X3518940Y-987000D01*
X3518140Y-985480D01*
X3517860Y-984419D01*
X3516220Y-980920D01*
X3514000Y-977740D01*
X3511259Y-975000D01*
X3508100Y-972800D01*
X3504600Y-971160D01*
X3500860Y-970160D01*
X3497000Y-969820D01*
X3493140Y-970160D01*
X3489400Y-971160D01*
X3485899Y-972800D01*
X3482740Y-975000D01*
X3480000Y-977740D01*
X3477780Y-980920D01*
X3476139Y-984419D01*
X3475860Y-985480D01*
X3475059Y-987000D01*
X3473700Y-988060D01*
X3472000Y-988439D01*
X3470299Y-988060D01*
X3468940Y-987000D01*
X3468140Y-985480D01*
X3467860Y-984419D01*
X3466220Y-980920D01*
X3464000Y-977740D01*
X3461259Y-975000D01*
X3458100Y-972800D01*
X3454600Y-971160D01*
X3450860Y-970160D01*
X3447000Y-969820D01*
X3443140Y-970160D01*
X3439400Y-971160D01*
X3435899Y-972800D01*
X3432740Y-975000D01*
X3430000Y-977740D01*
X3427780Y-980920D01*
X3426139Y-984419D01*
X3425860Y-985480D01*
X3425059Y-987000D01*
X3423700Y-988060D01*
X3422000Y-988439D01*
X3420299Y-988060D01*
X3418940Y-987000D01*
X3418140Y-985480D01*
X3417860Y-984419D01*
X3416220Y-980920D01*
X3414000Y-977740D01*
X3411259Y-975000D01*
X3408100Y-972800D01*
X3404600Y-971160D01*
X3400860Y-970160D01*
X3397000Y-969820D01*
X3393140Y-970160D01*
X3389400Y-971160D01*
X3385899Y-972800D01*
X3382740Y-975000D01*
X3380000Y-977740D01*
X3377780Y-980920D01*
X3376139Y-984419D01*
X3375860Y-985480D01*
X3375059Y-987000D01*
X3373700Y-988060D01*
X3372000Y-988439D01*
X3370299Y-988060D01*
X3368940Y-987000D01*
X3368140Y-985480D01*
X3367860Y-984419D01*
X3366220Y-980920D01*
X3364000Y-977740D01*
X3361259Y-975000D01*
X3358100Y-972800D01*
X3354600Y-971160D01*
X3350860Y-970160D01*
X3347000Y-969820D01*
X3343140Y-970160D01*
X3339400Y-971160D01*
X3335899Y-972800D01*
X3332740Y-975000D01*
X3330000Y-977740D01*
X3327780Y-980920D01*
X3326139Y-984419D01*
X3325860Y-985480D01*
X3325059Y-987000D01*
X3323700Y-988060D01*
X3322000Y-988439D01*
X3320299Y-988060D01*
X3318940Y-987000D01*
X3318140Y-985480D01*
X3317860Y-984419D01*
X3316220Y-980920D01*
X3314000Y-977740D01*
X3311259Y-975000D01*
X3308100Y-972800D01*
X3304600Y-971160D01*
X3300860Y-970160D01*
X3297000Y-969820D01*
X3293140Y-970160D01*
X3289400Y-971160D01*
X3285899Y-972800D01*
X3282740Y-975000D01*
X3280000Y-977740D01*
X3277780Y-980920D01*
X3276139Y-984419D01*
X3275860Y-985480D01*
X3275059Y-987000D01*
X3273700Y-988060D01*
X3272000Y-988439D01*
X3270299Y-988060D01*
X3268940Y-987000D01*
X3268140Y-985480D01*
X3267860Y-984419D01*
X3266220Y-980920D01*
X3264000Y-977740D01*
X3261259Y-975000D01*
X3258100Y-972800D01*
X3254600Y-971160D01*
X3250860Y-970160D01*
X3247000Y-969820D01*
X3243140Y-970160D01*
X3239400Y-971160D01*
X3235899Y-972800D01*
X3232740Y-975000D01*
X3230000Y-977740D01*
X3227780Y-980920D01*
X3226139Y-984419D01*
X3225140Y-988160D01*
X3224800Y-992020D01*
X3225140Y-995860D01*
X3226139Y-999599D01*
X3227780Y-1003100D01*
X3230000Y-1006280D01*
X3232740Y-1009020D01*
X3235899Y-1011220D01*
X3239400Y-1012860D01*
X3240460Y-1013139D01*
X3242000Y-1013940D01*
X3243060Y-1015320D01*
X3243420Y-1017020D01*
X3243060Y-1018700D01*
X3242000Y-1020080D01*
X3240460Y-1020879D01*
X3239400Y-1021160D01*
X3235899Y-1022800D01*
X3232740Y-1025000D01*
X3230000Y-1027740D01*
X3227780Y-1030920D01*
X3226139Y-1034419D01*
X3225140Y-1038160D01*
X3224800Y-1042020D01*
X3225140Y-1045860D01*
X3226139Y-1049600D01*
X3227780Y-1053100D01*
X3230000Y-1056280D01*
X3232740Y-1059020D01*
X3235899Y-1061220D01*
X3239400Y-1062860D01*
X3243140Y-1063860D01*
X3247000Y-1064200D01*
X3250860Y-1063860D01*
X3254600Y-1062860D01*
X3258100Y-1061220D01*
X3261259Y-1059020D01*
X3264000Y-1056280D01*
X3266220Y-1053100D01*
X3267860Y-1049600D01*
X3268140Y-1048540D01*
X3268940Y-1047020D01*
X3270299Y-1045960D01*
X3272000Y-1045580D01*
X3273700Y-1045960D01*
X3275059Y-1047020D01*
X3275860Y-1048540D01*
X3276139Y-1049600D01*
X3277780Y-1053100D01*
X3280000Y-1056280D01*
X3282740Y-1059020D01*
X3285899Y-1061220D01*
X3289400Y-1062860D01*
X3293140Y-1063860D01*
X3297000Y-1064200D01*
X3300860Y-1063860D01*
X3304600Y-1062860D01*
X3308100Y-1061220D01*
X3311259Y-1059020D01*
X3314000Y-1056280D01*
X3316220Y-1053100D01*
X3317860Y-1049600D01*
X3318140Y-1048540D01*
X3318940Y-1047020D01*
X3320299Y-1045960D01*
X3322000Y-1045580D01*
X3323700Y-1045960D01*
X3325059Y-1047020D01*
X3325860Y-1048540D01*
X3326139Y-1049600D01*
X3327780Y-1053100D01*
X3330000Y-1056280D01*
X3332740Y-1059020D01*
X3335899Y-1061220D01*
X3339400Y-1062860D01*
X3340460Y-1063140D01*
X3342000Y-1063940D01*
X3343060Y-1065320D01*
X3343420Y-1067020D01*
X3343060Y-1068700D01*
X3342000Y-1070080D01*
X3340460Y-1070880D01*
X3339400Y-1071160D01*
X3335899Y-1072800D01*
X3332740Y-1075000D01*
X3330000Y-1077740D01*
X3327780Y-1080920D01*
X3326139Y-1084420D01*
X3325140Y-1088160D01*
X3324800Y-1092020D01*
X3325140Y-1095860D01*
X3326139Y-1099600D01*
X3327780Y-1103100D01*
X3330000Y-1106280D01*
X3332740Y-1109020D01*
X3335899Y-1111220D01*
X3339400Y-1112860D01*
X3343140Y-1113860D01*
X3347000Y-1114200D01*
X3350860Y-1113860D01*
X3354600Y-1112860D01*
X3358100Y-1111220D01*
X3361259Y-1109020D01*
X3364000Y-1106280D01*
X3366220Y-1103100D01*
X3367860Y-1099600D01*
X3368140Y-1098540D01*
X3368940Y-1097020D01*
X3370299Y-1095960D01*
X3372000Y-1095580D01*
X3373700Y-1095960D01*
X3375059Y-1097020D01*
X3375860Y-1098540D01*
X3376139Y-1099600D01*
X3377780Y-1103100D01*
X3380000Y-1106280D01*
X3382740Y-1109020D01*
X3385899Y-1111220D01*
X3389400Y-1112860D01*
X3393140Y-1113860D01*
X3397000Y-1114200D01*
X3400860Y-1113860D01*
X3404600Y-1112860D01*
X3408100Y-1111220D01*
X3411259Y-1109020D01*
X3414000Y-1106280D01*
X3416220Y-1103100D01*
X3417860Y-1099600D01*
X3418140Y-1098540D01*
X3418940Y-1097020D01*
X3420299Y-1095960D01*
X3422000Y-1095580D01*
X3423700Y-1095960D01*
X3425059Y-1097020D01*
X3425860Y-1098540D01*
X3426139Y-1099600D01*
X3427780Y-1103100D01*
X3430000Y-1106280D01*
X3432740Y-1109020D01*
X3435899Y-1111220D01*
X3439400Y-1112860D01*
X3443140Y-1113860D01*
X3447000Y-1114200D01*
X3450860Y-1113860D01*
X3454600Y-1112860D01*
X3458100Y-1111220D01*
X3461259Y-1109020D01*
X3464000Y-1106280D01*
X3466220Y-1103100D01*
X3467860Y-1099600D01*
X3468140Y-1098540D01*
X3468940Y-1097020D01*
X3470299Y-1095960D01*
X3472000Y-1095580D01*
X3473700Y-1095960D01*
X3475059Y-1097020D01*
X3475860Y-1098540D01*
X3476139Y-1099600D01*
X3477780Y-1103100D01*
X3480000Y-1106280D01*
X3482740Y-1109020D01*
X3485899Y-1111220D01*
X3489400Y-1112860D01*
X3490460Y-1113140D01*
X3492000Y-1113940D01*
X3493060Y-1115320D01*
X3493420Y-1117020D01*
X3493060Y-1118700D01*
X3492000Y-1120080D01*
X3490460Y-1120880D01*
X3489400Y-1121160D01*
X3485899Y-1122800D01*
X3482740Y-1125000D01*
X3480000Y-1127740D01*
X3477780Y-1130920D01*
X3476139Y-1134420D01*
X3475140Y-1138160D01*
X3474800Y-1142020D01*
X3475140Y-1145860D01*
X3476139Y-1149600D01*
X3477780Y-1153100D01*
X3480000Y-1156280D01*
X3482740Y-1159020D01*
X3485899Y-1161220D01*
X3489400Y-1162860D01*
X3490460Y-1163140D01*
X3492000Y-1163940D01*
X3493060Y-1165320D01*
X3493420Y-1167020D01*
X3493060Y-1168700D01*
X3492000Y-1170080D01*
X3490460Y-1170880D01*
X3489400Y-1171160D01*
X3485899Y-1172800D01*
X3482740Y-1175000D01*
X3480000Y-1177740D01*
X3477780Y-1180920D01*
X3476139Y-1184420D01*
X3475140Y-1188160D01*
X3474800Y-1192020D01*
X3475140Y-1195860D01*
X3476139Y-1199600D01*
X3477780Y-1203100D01*
X3480000Y-1206280D01*
X3482740Y-1209020D01*
X3485899Y-1211220D01*
X3489400Y-1212860D01*
X3493140Y-1213860D01*
G37*
G36*
X2568940Y-1281000D02*
G01*
X2572799Y-1280660D01*
X2576520Y-1279660D01*
X2580040Y-1278040D01*
X2583200Y-1275820D01*
X2585940Y-1273080D01*
X2588159Y-1269920D01*
X2589780Y-1266400D01*
X2590779Y-1262680D01*
X2591120Y-1258820D01*
X2590779Y-1254960D01*
X2589780Y-1251240D01*
X2588159Y-1247720D01*
X2585940Y-1244560D01*
X2583200Y-1241820D01*
X2580040Y-1239600D01*
X2576520Y-1237980D01*
X2571760Y-1236760D01*
X2567360Y-1235200D01*
X2565860Y-1234260D01*
X2523520Y-1191900D01*
X2522560Y-1190400D01*
X2521000Y-1186000D01*
X2519780Y-1181240D01*
X2518160Y-1177720D01*
X2515940Y-1174560D01*
X2513200Y-1171820D01*
X2510040Y-1169600D01*
X2506520Y-1167980D01*
X2502800Y-1166980D01*
X2498940Y-1166640D01*
X2495080Y-1166980D01*
X2491360Y-1167980D01*
X2487840Y-1169600D01*
X2484680Y-1171820D01*
X2481940Y-1174560D01*
X2479720Y-1177720D01*
X2478100Y-1181240D01*
X2477100Y-1184960D01*
X2476760Y-1188820D01*
X2477100Y-1192680D01*
X2478100Y-1196400D01*
X2479720Y-1199920D01*
X2481940Y-1203080D01*
X2484680Y-1205820D01*
X2487840Y-1208040D01*
X2491360Y-1209660D01*
X2496120Y-1210880D01*
X2500520Y-1212440D01*
X2502020Y-1213380D01*
X2544380Y-1255740D01*
X2545320Y-1257240D01*
X2546880Y-1261640D01*
X2548100Y-1266400D01*
X2549720Y-1269920D01*
X2551940Y-1273080D01*
X2554680Y-1275820D01*
X2557840Y-1278040D01*
X2561360Y-1279660D01*
X2565080Y-1280660D01*
G37*
G36*
X2489620Y-1281680D02*
G01*
X2493460Y-1281339D01*
X2497200Y-1280340D01*
X2500700Y-1278700D01*
X2503880Y-1276480D01*
X2506600Y-1273760D01*
X2508820Y-1270580D01*
X2510460Y-1267080D01*
X2511460Y-1263340D01*
X2511800Y-1259500D01*
X2511460Y-1255640D01*
X2510460Y-1251900D01*
X2508820Y-1248400D01*
X2506600Y-1245220D01*
X2503880Y-1242500D01*
X2500700Y-1240280D01*
X2497200Y-1238640D01*
X2492420Y-1237420D01*
X2488020Y-1235860D01*
X2486540Y-1234920D01*
X2430320Y-1178700D01*
X2429440Y-1177400D01*
X2429140Y-1175860D01*
X2429140Y-1108360D01*
X2429520Y-1106640D01*
X2431700Y-1102080D01*
X2433160Y-1099920D01*
X2434780Y-1096400D01*
X2435780Y-1092680D01*
X2436120Y-1088820D01*
X2435780Y-1084960D01*
X2434780Y-1081240D01*
X2433160Y-1077720D01*
X2430940Y-1074560D01*
X2428200Y-1071820D01*
X2425040Y-1069600D01*
X2421520Y-1067980D01*
X2417800Y-1066980D01*
X2413940Y-1066640D01*
X2410080Y-1066980D01*
X2406360Y-1067980D01*
X2402840Y-1069600D01*
X2399680Y-1071820D01*
X2396940Y-1074560D01*
X2394720Y-1077720D01*
X2393100Y-1081240D01*
X2392100Y-1084960D01*
X2391760Y-1088820D01*
X2392100Y-1092680D01*
X2393100Y-1096400D01*
X2394720Y-1099920D01*
X2396180Y-1102080D01*
X2398360Y-1106640D01*
X2398740Y-1108360D01*
X2398740Y-1183620D01*
X2399060Y-1186780D01*
X2399920Y-1189620D01*
X2401320Y-1192240D01*
X2403320Y-1194700D01*
X2465040Y-1256420D01*
X2465980Y-1257900D01*
X2467540Y-1262300D01*
X2468760Y-1267080D01*
X2470400Y-1270580D01*
X2472620Y-1273760D01*
X2475340Y-1276480D01*
X2478520Y-1278700D01*
X2482020Y-1280340D01*
X2485760Y-1281339D01*
G37*
G36*
X2233940Y-1286140D02*
G01*
X2237800Y-1285800D01*
X2241520Y-1284800D01*
X2245040Y-1283160D01*
X2248200Y-1280940D01*
X2250940Y-1278220D01*
X2253160Y-1275040D01*
X2254780Y-1271540D01*
X2255780Y-1267800D01*
X2256120Y-1263960D01*
X2255780Y-1260100D01*
X2254780Y-1256360D01*
X2253160Y-1252860D01*
X2251700Y-1250700D01*
X2249520Y-1246120D01*
X2249140Y-1244400D01*
X2249140Y-1208300D01*
X2249520Y-1206580D01*
X2251700Y-1202020D01*
X2253160Y-1199860D01*
X2254780Y-1196340D01*
X2255780Y-1192620D01*
X2256120Y-1188760D01*
X2255780Y-1184900D01*
X2254780Y-1181180D01*
X2253160Y-1177660D01*
X2250940Y-1174500D01*
X2248200Y-1171760D01*
X2245040Y-1169540D01*
X2241520Y-1167920D01*
X2237800Y-1166920D01*
X2233940Y-1166580D01*
X2230080Y-1166920D01*
X2226360Y-1167920D01*
X2222840Y-1169540D01*
X2219680Y-1171760D01*
X2216940Y-1174500D01*
X2215220Y-1176980D01*
X2214000Y-1178100D01*
X2212440Y-1178640D01*
X2210780Y-1178500D01*
X2209320Y-1177700D01*
X2207420Y-1176020D01*
X2205560Y-1174020D01*
X2203700Y-1172720D01*
X2201360Y-1171800D01*
X2196820Y-1170580D01*
X2195040Y-1169600D01*
X2191520Y-1167980D01*
X2187800Y-1166980D01*
X2183940Y-1166640D01*
X2180080Y-1166980D01*
X2176360Y-1167980D01*
X2172840Y-1169600D01*
X2169680Y-1171820D01*
X2166940Y-1174560D01*
X2164720Y-1177720D01*
X2163100Y-1181240D01*
X2162100Y-1184960D01*
X2161760Y-1188820D01*
X2162100Y-1192680D01*
X2163100Y-1196400D01*
X2164720Y-1199920D01*
X2165740Y-1201760D01*
X2167000Y-1206280D01*
X2167680Y-1208100D01*
X2168580Y-1209840D01*
X2168740Y-1210940D01*
X2168740Y-1244280D01*
X2168360Y-1246000D01*
X2166180Y-1250560D01*
X2164720Y-1252720D01*
X2163100Y-1256240D01*
X2162100Y-1259960D01*
X2161760Y-1263820D01*
X2162100Y-1267680D01*
X2163100Y-1271400D01*
X2164720Y-1274920D01*
X2166940Y-1278080D01*
X2169680Y-1280820D01*
X2172840Y-1283040D01*
X2176360Y-1284660D01*
X2180080Y-1285660D01*
X2183940Y-1286000D01*
X2187800Y-1285660D01*
X2191520Y-1284660D01*
X2195040Y-1283040D01*
X2198200Y-1280820D01*
X2200940Y-1278080D01*
X2203160Y-1274920D01*
X2204780Y-1271400D01*
X2205060Y-1270400D01*
X2205860Y-1268860D01*
X2207240Y-1267800D01*
X2208920Y-1267420D01*
X2210620Y-1267800D01*
X2211980Y-1268860D01*
X2212780Y-1270400D01*
X2213100Y-1271540D01*
X2214720Y-1275040D01*
X2216940Y-1278220D01*
X2219680Y-1280940D01*
X2222840Y-1283160D01*
X2226360Y-1284800D01*
X2230080Y-1285800D01*
G37*
G36*
X1703940Y-1286320D02*
G01*
X1707800Y-1285980D01*
X1711519Y-1284980D01*
X1715040Y-1283340D01*
X1718200Y-1281120D01*
X1720940Y-1278400D01*
X1723160Y-1275220D01*
X1724780Y-1271720D01*
X1725780Y-1267980D01*
X1726120Y-1264140D01*
X1725780Y-1260280D01*
X1724780Y-1256540D01*
X1723160Y-1253040D01*
X1721699Y-1250880D01*
X1719520Y-1246300D01*
X1719139Y-1244580D01*
X1719139Y-1208680D01*
X1719520Y-1206960D01*
X1721699Y-1202380D01*
X1723160Y-1200220D01*
X1724780Y-1196720D01*
X1725780Y-1192980D01*
X1726120Y-1189140D01*
X1725780Y-1185280D01*
X1724780Y-1181540D01*
X1723160Y-1178040D01*
X1720940Y-1174860D01*
X1718200Y-1172140D01*
X1715040Y-1169920D01*
X1711519Y-1168280D01*
X1707800Y-1167280D01*
X1703940Y-1166940D01*
X1700080Y-1167280D01*
X1696360Y-1168280D01*
X1692840Y-1169920D01*
X1689680Y-1172140D01*
X1686940Y-1174860D01*
X1684720Y-1178040D01*
X1683100Y-1181540D01*
X1682100Y-1185280D01*
X1681759Y-1189140D01*
X1682100Y-1192980D01*
X1683100Y-1196720D01*
X1684720Y-1200220D01*
X1686180Y-1202380D01*
X1688360Y-1206960D01*
X1688740Y-1208680D01*
X1688740Y-1244580D01*
X1688360Y-1246300D01*
X1686180Y-1250860D01*
X1684720Y-1253040D01*
X1683100Y-1256540D01*
X1682100Y-1260280D01*
X1681759Y-1264140D01*
X1682100Y-1267980D01*
X1683100Y-1271720D01*
X1684720Y-1275220D01*
X1686940Y-1278400D01*
X1689680Y-1281120D01*
X1692840Y-1283340D01*
X1696360Y-1284980D01*
X1700080Y-1285980D01*
G37*
G36*
X2398940Y-1351000D02*
G01*
X2402800Y-1350660D01*
X2406520Y-1349660D01*
X2410040Y-1348040D01*
X2413200Y-1345820D01*
X2415940Y-1343080D01*
X2418160Y-1339920D01*
X2419780Y-1336399D01*
X2420780Y-1332680D01*
X2421120Y-1328820D01*
X2420780Y-1324960D01*
X2419780Y-1321240D01*
X2418160Y-1317720D01*
X2415940Y-1314560D01*
X2413200Y-1311819D01*
X2410040Y-1309600D01*
X2406520Y-1307980D01*
X2401760Y-1306759D01*
X2397360Y-1305200D01*
X2395860Y-1304259D01*
X2360320Y-1268700D01*
X2359440Y-1267400D01*
X2359140Y-1265860D01*
X2359140Y-1074520D01*
X2359520Y-1072800D01*
X2361700Y-1068220D01*
X2363160Y-1066060D01*
X2364780Y-1062560D01*
X2365780Y-1058820D01*
X2366120Y-1054980D01*
X2365780Y-1051120D01*
X2365240Y-1049060D01*
X2365120Y-1047600D01*
X2365540Y-1046200D01*
X2366420Y-1045040D01*
X2367660Y-1044280D01*
X2369100Y-1044020D01*
X2413740Y-1044020D01*
X2416900Y-1043700D01*
X2419740Y-1042840D01*
X2422380Y-1041440D01*
X2424820Y-1039419D01*
X2489060Y-975180D01*
X2490360Y-974320D01*
X2491900Y-974020D01*
X2554400Y-974020D01*
X2556120Y-974400D01*
X2560680Y-976580D01*
X2562840Y-978040D01*
X2566360Y-979659D01*
X2570080Y-980660D01*
X2573940Y-981000D01*
X2577799Y-980660D01*
X2581520Y-979659D01*
X2585040Y-978040D01*
X2588200Y-975819D01*
X2590940Y-973080D01*
X2593159Y-969920D01*
X2594780Y-966400D01*
X2595779Y-962680D01*
X2596120Y-958820D01*
X2595779Y-954960D01*
X2594780Y-951240D01*
X2593159Y-947720D01*
X2590940Y-944560D01*
X2588200Y-941820D01*
X2585040Y-939599D01*
X2581520Y-937980D01*
X2577799Y-936979D01*
X2573940Y-936640D01*
X2570080Y-936979D01*
X2566360Y-937980D01*
X2562840Y-939599D01*
X2560680Y-941060D01*
X2556120Y-943220D01*
X2554400Y-943620D01*
X2484140Y-943620D01*
X2480980Y-943920D01*
X2478120Y-944800D01*
X2475500Y-946200D01*
X2473060Y-948199D01*
X2408820Y-1012440D01*
X2407520Y-1013319D01*
X2405980Y-1013620D01*
X2369400Y-1013620D01*
X2367680Y-1013220D01*
X2366280Y-1012120D01*
X2365520Y-1010520D01*
X2365500Y-1008740D01*
X2366000Y-1006640D01*
X2367560Y-1002240D01*
X2368520Y-1000740D01*
X2374060Y-995180D01*
X2375360Y-994320D01*
X2376900Y-994020D01*
X2408740Y-994020D01*
X2411900Y-993700D01*
X2414740Y-992840D01*
X2417380Y-991440D01*
X2419820Y-989419D01*
X2469540Y-939700D01*
X2471560Y-937260D01*
X2472960Y-934620D01*
X2473820Y-931780D01*
X2474140Y-928620D01*
X2474140Y-753360D01*
X2474520Y-751640D01*
X2476700Y-747080D01*
X2478160Y-744920D01*
X2479780Y-741400D01*
X2480780Y-737680D01*
X2481120Y-733820D01*
X2480780Y-729960D01*
X2479780Y-726240D01*
X2478160Y-722720D01*
X2475940Y-719560D01*
X2473200Y-716820D01*
X2470040Y-714599D01*
X2466520Y-712980D01*
X2465140Y-712600D01*
X2463660Y-711840D01*
X2462600Y-710560D01*
X2462180Y-708940D01*
X2462440Y-707300D01*
X2463340Y-705900D01*
X2661600Y-507660D01*
X2662900Y-506780D01*
X2664440Y-506480D01*
X2665960Y-506780D01*
X2667260Y-507660D01*
X2668140Y-508960D01*
X2668440Y-510500D01*
X2668399Y-516700D01*
X2669120Y-522360D01*
X2670539Y-527920D01*
X2672660Y-533240D01*
X2675419Y-538260D01*
X2678780Y-542900D01*
X2682700Y-547080D01*
X2687120Y-550720D01*
X2691960Y-553800D01*
X2697140Y-556240D01*
X2702600Y-558000D01*
X2707400Y-558920D01*
X2708240Y-559280D01*
X2709180Y-559140D01*
X2713940Y-559440D01*
X2719660Y-559080D01*
X2725280Y-558000D01*
X2730740Y-556240D01*
X2735920Y-553800D01*
X2740760Y-550720D01*
X2745179Y-547080D01*
X2749100Y-542900D01*
X2752460Y-538260D01*
X2755220Y-533240D01*
X2756700Y-529780D01*
X2767420Y-502299D01*
X2768320Y-500940D01*
X2789060Y-480180D01*
X2790360Y-479320D01*
X2791900Y-479020D01*
X2858740Y-479020D01*
X2861900Y-478700D01*
X2864740Y-477840D01*
X2867380Y-476440D01*
X2869820Y-474420D01*
X2981820Y-362440D01*
X2982980Y-361620D01*
X2984360Y-361280D01*
X3011760Y-359360D01*
X3017480Y-358640D01*
X3023039Y-357220D01*
X3028360Y-355100D01*
X3033380Y-352340D01*
X3038020Y-348980D01*
X3042200Y-345060D01*
X3045840Y-340640D01*
X3048920Y-335800D01*
X3051360Y-330620D01*
X3053120Y-325160D01*
X3054200Y-319540D01*
X3054560Y-313820D01*
X3054200Y-308100D01*
X3053120Y-302480D01*
X3051360Y-297020D01*
X3048920Y-291840D01*
X3045840Y-287000D01*
X3042200Y-282580D01*
X3038020Y-278660D01*
X3033380Y-275300D01*
X3028360Y-272540D01*
X3023039Y-270420D01*
X3017480Y-269000D01*
X3011800Y-268280D01*
X3006080Y-268280D01*
X3000380Y-269000D01*
X2994840Y-270420D01*
X2989520Y-272540D01*
X2984500Y-275300D01*
X2979860Y-278660D01*
X2975680Y-282580D01*
X2972020Y-287000D01*
X2968960Y-291840D01*
X2966520Y-297020D01*
X2964740Y-302480D01*
X2963680Y-308100D01*
X2963380Y-311120D01*
X2961480Y-338380D01*
X2961139Y-339760D01*
X2960320Y-340940D01*
X2859480Y-441800D01*
X2858120Y-442680D01*
X2856520Y-442960D01*
X2854940Y-442580D01*
X2853639Y-441599D01*
X2852840Y-440200D01*
X2852660Y-438579D01*
X2853140Y-437040D01*
X2855220Y-433240D01*
X2857340Y-427920D01*
X2858759Y-422360D01*
X2859480Y-416680D01*
X2859480Y-410959D01*
X2858759Y-405260D01*
X2857340Y-399720D01*
X2855220Y-394400D01*
X2852460Y-389380D01*
X2849100Y-384739D01*
X2845179Y-380560D01*
X2840760Y-376900D01*
X2835920Y-373840D01*
X2830740Y-371400D01*
X2825280Y-369620D01*
X2819660Y-368560D01*
X2813940Y-368200D01*
X2808220Y-368560D01*
X2802600Y-369620D01*
X2797140Y-371400D01*
X2791960Y-373840D01*
X2787120Y-376900D01*
X2782700Y-380560D01*
X2778780Y-384739D01*
X2775419Y-389380D01*
X2772660Y-394400D01*
X2770520Y-399799D01*
X2767160Y-410820D01*
X2766440Y-412180D01*
X2765260Y-413180D01*
X2763780Y-413640D01*
X2762240Y-413500D01*
X2760860Y-412800D01*
X2759860Y-411640D01*
X2759380Y-410160D01*
X2758759Y-405260D01*
X2757340Y-399720D01*
X2755220Y-394400D01*
X2752460Y-389380D01*
X2749100Y-384739D01*
X2745179Y-380560D01*
X2740760Y-376900D01*
X2735920Y-373840D01*
X2730740Y-371400D01*
X2725280Y-369620D01*
X2719660Y-368560D01*
X2713940Y-368200D01*
X2708220Y-368560D01*
X2702600Y-369620D01*
X2697140Y-371400D01*
X2691960Y-373840D01*
X2687120Y-376900D01*
X2683639Y-379700D01*
X2663020Y-397640D01*
X2661800Y-398360D01*
X2660400Y-398620D01*
X2649140Y-398620D01*
X2645980Y-398920D01*
X2643120Y-399799D01*
X2640500Y-401200D01*
X2638060Y-403200D01*
X2487000Y-554260D01*
X2485520Y-555200D01*
X2481120Y-556760D01*
X2476940Y-557820D01*
X2475200Y-557900D01*
X2473600Y-557240D01*
X2472440Y-555960D01*
X2471920Y-554300D01*
X2472140Y-552580D01*
X2473080Y-551120D01*
X2666740Y-357440D01*
X2667840Y-356680D01*
X2669140Y-356300D01*
X2670480Y-356380D01*
X2671720Y-356900D01*
X2674100Y-358420D01*
X2676240Y-359180D01*
X2678720Y-359460D01*
X2749140Y-359460D01*
X2751640Y-359180D01*
X2753780Y-358420D01*
X2755720Y-357200D01*
X2757320Y-355600D01*
X2758540Y-353660D01*
X2759300Y-351520D01*
X2759580Y-349020D01*
X2759580Y-304940D01*
X2759960Y-303240D01*
X2761019Y-301880D01*
X2762559Y-301080D01*
X2764300Y-301020D01*
X2765899Y-301700D01*
X2767060Y-303000D01*
X2767559Y-304660D01*
X2768399Y-316680D01*
X2769120Y-322360D01*
X2770539Y-327920D01*
X2772660Y-333240D01*
X2775419Y-338260D01*
X2778780Y-342900D01*
X2782700Y-347080D01*
X2787120Y-350720D01*
X2791960Y-353800D01*
X2797140Y-356240D01*
X2802600Y-358000D01*
X2808220Y-359080D01*
X2813940Y-359440D01*
X2819660Y-359080D01*
X2825280Y-358000D01*
X2830740Y-356240D01*
X2835920Y-353800D01*
X2840760Y-350720D01*
X2845179Y-347080D01*
X2849100Y-342900D01*
X2852460Y-338260D01*
X2855220Y-333240D01*
X2857340Y-327920D01*
X2858759Y-322360D01*
X2859480Y-316680D01*
X2859480Y-310960D01*
X2858759Y-305260D01*
X2857340Y-299720D01*
X2855220Y-294400D01*
X2852460Y-289380D01*
X2849100Y-284740D01*
X2845179Y-280560D01*
X2840760Y-276900D01*
X2835920Y-273840D01*
X2830740Y-271400D01*
X2825280Y-269620D01*
X2819660Y-268560D01*
X2816640Y-268260D01*
X2789380Y-266360D01*
X2788000Y-266020D01*
X2786820Y-265200D01*
X2774820Y-253200D01*
X2772380Y-251200D01*
X2769740Y-249800D01*
X2766900Y-248920D01*
X2763740Y-248619D01*
X2639140Y-248619D01*
X2635980Y-248920D01*
X2633120Y-249800D01*
X2630500Y-251200D01*
X2628060Y-253200D01*
X2453820Y-427440D01*
X2452520Y-428320D01*
X2450980Y-428620D01*
X2405900Y-428620D01*
X2404360Y-428320D01*
X2403060Y-427440D01*
X2400220Y-424600D01*
X2396840Y-422180D01*
X2393100Y-420360D01*
X2389100Y-419159D01*
X2384980Y-418660D01*
X2380820Y-418820D01*
X2376760Y-419680D01*
X2372880Y-421200D01*
X2369300Y-423320D01*
X2366000Y-426120D01*
X1936200Y-855920D01*
X1934000Y-858400D01*
X1933480Y-859100D01*
X1931740Y-861900D01*
X1931339Y-862680D01*
X1929820Y-866500D01*
X1929000Y-870440D01*
X1928500Y-871700D01*
X1927600Y-872720D01*
X1926420Y-873379D01*
X1925080Y-873620D01*
X1415280Y-873620D01*
X1413760Y-873319D01*
X1412460Y-872440D01*
X1411600Y-871140D01*
X1411279Y-869620D01*
X1411600Y-868080D01*
X1412460Y-866780D01*
X1447700Y-831600D01*
X1449720Y-829140D01*
X1451120Y-826520D01*
X1451980Y-823680D01*
X1452300Y-820520D01*
X1452300Y-384300D01*
X1452520Y-382980D01*
X1453160Y-381820D01*
X1464240Y-367800D01*
X1467400Y-363480D01*
X1469740Y-359080D01*
X1471440Y-354380D01*
X1472480Y-349500D01*
X1472840Y-344520D01*
X1472480Y-339540D01*
X1471440Y-334660D01*
X1469740Y-329980D01*
X1467400Y-325560D01*
X1464460Y-321520D01*
X1461000Y-317940D01*
X1457060Y-314860D01*
X1452740Y-312360D01*
X1448100Y-310500D01*
X1443260Y-309280D01*
X1438300Y-308760D01*
X1433300Y-308940D01*
X1428400Y-309800D01*
X1423640Y-311340D01*
X1419139Y-313560D01*
X1417540Y-314180D01*
X1415820Y-314080D01*
X1414300Y-313280D01*
X1413260Y-311920D01*
X1412900Y-310240D01*
X1412900Y-285800D01*
X1413120Y-284480D01*
X1413760Y-283320D01*
X1424840Y-269300D01*
X1428000Y-264980D01*
X1430340Y-260580D01*
X1432040Y-255880D01*
X1433140Y-250760D01*
X1433760Y-249300D01*
X1434920Y-248200D01*
X1436399Y-247640D01*
X1437980Y-247700D01*
X1439420Y-248359D01*
X1440480Y-249540D01*
X1441000Y-251040D01*
X1441360Y-253460D01*
X1442720Y-258260D01*
X1444760Y-262820D01*
X1447400Y-267060D01*
X1450620Y-270880D01*
X1454319Y-274220D01*
X1458460Y-277020D01*
X1462940Y-279200D01*
X1467700Y-280740D01*
X1472600Y-281600D01*
X1477600Y-281780D01*
X1482560Y-281260D01*
X1487400Y-280060D01*
X1492040Y-278180D01*
X1496360Y-275680D01*
X1500300Y-272620D01*
X1503760Y-269020D01*
X1506699Y-264980D01*
X1509040Y-260580D01*
X1510740Y-255880D01*
X1511780Y-251000D01*
X1512140Y-246020D01*
X1511780Y-241040D01*
X1510740Y-236160D01*
X1509040Y-231480D01*
X1506699Y-227060D01*
X1503760Y-223020D01*
X1500300Y-219440D01*
X1496360Y-216360D01*
X1492040Y-213860D01*
X1487400Y-212000D01*
X1482560Y-210780D01*
X1477600Y-210260D01*
X1472600Y-210440D01*
X1467700Y-211300D01*
X1462940Y-212840D01*
X1458460Y-215040D01*
X1454319Y-217820D01*
X1450620Y-221160D01*
X1447400Y-225000D01*
X1444760Y-229220D01*
X1442720Y-233780D01*
X1441360Y-238580D01*
X1441000Y-241020D01*
X1440480Y-242520D01*
X1439420Y-243680D01*
X1437980Y-244360D01*
X1436399Y-244400D01*
X1434920Y-243840D01*
X1433760Y-242740D01*
X1433140Y-241300D01*
X1432040Y-236160D01*
X1430340Y-231480D01*
X1428000Y-227060D01*
X1425060Y-223020D01*
X1421600Y-219440D01*
X1417660Y-216360D01*
X1413340Y-213860D01*
X1408700Y-212000D01*
X1403860Y-210780D01*
X1398899Y-210260D01*
X1393899Y-210440D01*
X1389000Y-211300D01*
X1384240Y-212840D01*
X1379760Y-215040D01*
X1375620Y-217820D01*
X1371920Y-221160D01*
X1368700Y-225000D01*
X1366060Y-229220D01*
X1364019Y-233780D01*
X1362660Y-238580D01*
X1361960Y-243520D01*
X1361960Y-248520D01*
X1362660Y-253460D01*
X1364019Y-258260D01*
X1366060Y-262820D01*
X1368700Y-267060D01*
X1381639Y-283340D01*
X1382280Y-284520D01*
X1382500Y-285840D01*
X1382500Y-310380D01*
X1382160Y-312000D01*
X1381180Y-313360D01*
X1379740Y-314180D01*
X1378080Y-314360D01*
X1376500Y-313840D01*
X1373940Y-312360D01*
X1369300Y-310500D01*
X1364460Y-309280D01*
X1359500Y-308760D01*
X1354500Y-308940D01*
X1349600Y-309800D01*
X1344840Y-311340D01*
X1340360Y-313540D01*
X1336220Y-316320D01*
X1332520Y-319660D01*
X1329300Y-323500D01*
X1326660Y-327720D01*
X1324620Y-332280D01*
X1323260Y-337080D01*
X1322900Y-339520D01*
X1322380Y-341019D01*
X1321320Y-342180D01*
X1319880Y-342860D01*
X1318300Y-342900D01*
X1316819Y-342340D01*
X1315660Y-341240D01*
X1315040Y-339799D01*
X1313940Y-334660D01*
X1312240Y-329980D01*
X1309900Y-325560D01*
X1306960Y-321520D01*
X1303500Y-317940D01*
X1299560Y-314860D01*
X1295240Y-312360D01*
X1290600Y-310500D01*
X1285760Y-309280D01*
X1280800Y-308760D01*
X1275800Y-308940D01*
X1270900Y-309800D01*
X1266140Y-311340D01*
X1261660Y-313540D01*
X1257520Y-316320D01*
X1253820Y-319660D01*
X1250600Y-323500D01*
X1247960Y-327720D01*
X1245920Y-332280D01*
X1244560Y-337080D01*
X1243860Y-342020D01*
X1243860Y-347020D01*
X1244560Y-351960D01*
X1245920Y-356760D01*
X1247960Y-361320D01*
X1250600Y-365560D01*
X1253820Y-369380D01*
X1257520Y-372720D01*
X1261660Y-375520D01*
X1266140Y-377700D01*
X1270900Y-379240D01*
X1275800Y-380100D01*
X1280800Y-380280D01*
X1285760Y-379760D01*
X1290600Y-378560D01*
X1295240Y-376680D01*
X1299560Y-374180D01*
X1303500Y-371120D01*
X1306960Y-367520D01*
X1309900Y-363480D01*
X1312240Y-359080D01*
X1313940Y-354380D01*
X1315040Y-349260D01*
X1315660Y-347800D01*
X1316819Y-346700D01*
X1318300Y-346140D01*
X1319880Y-346200D01*
X1321320Y-346860D01*
X1322380Y-348040D01*
X1322900Y-349540D01*
X1323260Y-351960D01*
X1324620Y-356760D01*
X1326660Y-361320D01*
X1329300Y-365560D01*
X1342240Y-381840D01*
X1342880Y-383020D01*
X1343100Y-384320D01*
X1343100Y-756540D01*
X1342800Y-758080D01*
X1341920Y-759380D01*
X1273780Y-827440D01*
X1272480Y-828300D01*
X1270960Y-828600D01*
X1089100Y-828600D01*
X1085940Y-828920D01*
X1083100Y-829780D01*
X1080460Y-831180D01*
X1078020Y-833199D01*
X993300Y-917920D01*
X991280Y-920360D01*
X989880Y-923000D01*
X989020Y-925840D01*
X988700Y-929000D01*
X988700Y-949300D01*
X988319Y-951020D01*
X986140Y-955600D01*
X984720Y-957720D01*
X983100Y-961240D01*
X982099Y-964960D01*
X981760Y-968820D01*
X982099Y-972680D01*
X983100Y-976400D01*
X984720Y-979920D01*
X986940Y-983080D01*
X989680Y-985819D01*
X992840Y-988040D01*
X996360Y-989659D01*
X1000080Y-990660D01*
X1003940Y-991000D01*
X1007800Y-990660D01*
X1011520Y-989659D01*
X1015040Y-988040D01*
X1018199Y-985819D01*
X1020939Y-983080D01*
X1023160Y-979920D01*
X1024780Y-976400D01*
X1025080Y-975320D01*
X1025879Y-973800D01*
X1027240Y-972740D01*
X1028940Y-972360D01*
X1030639Y-972740D01*
X1032000Y-973800D01*
X1032800Y-975320D01*
X1033100Y-976400D01*
X1034720Y-979920D01*
X1036940Y-983080D01*
X1039680Y-985819D01*
X1042840Y-988040D01*
X1046360Y-989659D01*
X1050080Y-990660D01*
X1053940Y-991000D01*
X1057800Y-990660D01*
X1061520Y-989659D01*
X1065040Y-988040D01*
X1068200Y-985819D01*
X1070940Y-983080D01*
X1073160Y-979920D01*
X1074780Y-976400D01*
X1075780Y-972680D01*
X1076120Y-968820D01*
X1075780Y-964960D01*
X1074780Y-961240D01*
X1073160Y-957720D01*
X1071680Y-955520D01*
X1069500Y-950980D01*
X1069100Y-949240D01*
X1069100Y-941760D01*
X1069400Y-940220D01*
X1070280Y-938920D01*
X1119020Y-890180D01*
X1120320Y-889300D01*
X1121860Y-889000D01*
X1293700Y-889000D01*
X1296860Y-888680D01*
X1299700Y-887820D01*
X1302340Y-886420D01*
X1304780Y-884400D01*
X1408300Y-780879D01*
X1410320Y-778439D01*
X1411720Y-775800D01*
X1412580Y-772960D01*
X1412900Y-769800D01*
X1412900Y-383080D01*
X1413240Y-381480D01*
X1414180Y-380140D01*
X1415580Y-379300D01*
X1417200Y-379080D01*
X1418779Y-379540D01*
X1420040Y-380580D01*
X1421040Y-381840D01*
X1421680Y-383020D01*
X1421900Y-384340D01*
X1421900Y-812740D01*
X1421600Y-814280D01*
X1420720Y-815580D01*
X1363779Y-872440D01*
X1362480Y-873319D01*
X1360940Y-873620D01*
X1344100Y-873620D01*
X1339800Y-873980D01*
X1335760Y-875000D01*
X1331960Y-876660D01*
X1328460Y-878940D01*
X1325400Y-881760D01*
X1322860Y-885040D01*
X1320880Y-888700D01*
X1319520Y-892640D01*
X1318839Y-896740D01*
X1318839Y-900900D01*
X1319520Y-905000D01*
X1320880Y-908940D01*
X1322860Y-912600D01*
X1325400Y-915879D01*
X1328460Y-918700D01*
X1331960Y-920960D01*
X1335760Y-922640D01*
X1339800Y-923660D01*
X1344100Y-924020D01*
X1953860Y-924020D01*
X1956020Y-923920D01*
X1958080Y-923680D01*
X1960120Y-923240D01*
X1962120Y-922640D01*
X1964060Y-921900D01*
X1965940Y-920980D01*
X1967720Y-919920D01*
X1969420Y-918700D01*
X1971000Y-917360D01*
X1972480Y-915879D01*
X1973820Y-914300D01*
X1975040Y-912600D01*
X1976100Y-910819D01*
X1977020Y-908940D01*
X1977780Y-907000D01*
X1978360Y-905000D01*
X1978800Y-902960D01*
X1979040Y-900900D01*
X1979139Y-898740D01*
X1979139Y-885920D01*
X1979440Y-884380D01*
X1980320Y-883080D01*
X2401640Y-461760D01*
X2402760Y-460439D01*
X2404140Y-459380D01*
X2405820Y-459020D01*
X2458740Y-459020D01*
X2461900Y-458700D01*
X2464740Y-457840D01*
X2467380Y-456440D01*
X2469820Y-454420D01*
X2644060Y-280180D01*
X2645360Y-279320D01*
X2646900Y-279020D01*
X2664300Y-279020D01*
X2665840Y-279320D01*
X2667140Y-280180D01*
X2668000Y-281480D01*
X2668300Y-283020D01*
X2668300Y-307100D01*
X2668100Y-308340D01*
X2667520Y-309460D01*
X2655700Y-325520D01*
X2411920Y-569280D01*
X2410420Y-570220D01*
X2406120Y-571760D01*
X2401360Y-572980D01*
X2397840Y-574600D01*
X2394680Y-576820D01*
X2391940Y-579560D01*
X2389720Y-582720D01*
X2388100Y-586240D01*
X2387100Y-589960D01*
X2386760Y-593820D01*
X2387100Y-597680D01*
X2388100Y-601400D01*
X2389720Y-604920D01*
X2391940Y-608080D01*
X2394680Y-610820D01*
X2397840Y-613040D01*
X2401360Y-614660D01*
X2405080Y-615660D01*
X2408940Y-616000D01*
X2412800Y-615660D01*
X2416520Y-614660D01*
X2420040Y-613040D01*
X2423200Y-610820D01*
X2425940Y-608080D01*
X2428160Y-604920D01*
X2429780Y-601400D01*
X2431000Y-596640D01*
X2432600Y-592140D01*
X2433540Y-590660D01*
X2456240Y-567960D01*
X2457700Y-567020D01*
X2459420Y-566800D01*
X2461080Y-567320D01*
X2462360Y-568480D01*
X2463020Y-570080D01*
X2462940Y-571820D01*
X2462100Y-574960D01*
X2461760Y-578820D01*
X2462100Y-582680D01*
X2463100Y-586400D01*
X2464720Y-589920D01*
X2466940Y-593080D01*
X2469680Y-595820D01*
X2472840Y-598040D01*
X2476360Y-599660D01*
X2480080Y-600660D01*
X2483940Y-601000D01*
X2487800Y-600660D01*
X2491520Y-599660D01*
X2495040Y-598040D01*
X2498200Y-595820D01*
X2500940Y-593080D01*
X2503160Y-589920D01*
X2504780Y-586400D01*
X2506000Y-581640D01*
X2507560Y-577240D01*
X2508520Y-575740D01*
X2654060Y-430180D01*
X2655360Y-429320D01*
X2656900Y-429020D01*
X2660380Y-429020D01*
X2661780Y-429280D01*
X2663020Y-430000D01*
X2678480Y-443459D01*
X2679420Y-444660D01*
X2679840Y-446140D01*
X2679660Y-447680D01*
X2678940Y-449020D01*
X2677740Y-450000D01*
X2675500Y-451200D01*
X2673060Y-453200D01*
X2417000Y-709260D01*
X2415520Y-710200D01*
X2411120Y-711760D01*
X2406360Y-712980D01*
X2402840Y-714599D01*
X2399680Y-716820D01*
X2396940Y-719560D01*
X2394720Y-722740D01*
X2393620Y-723800D01*
X2392200Y-724380D01*
X2390680Y-724380D01*
X2389260Y-723800D01*
X2388160Y-722740D01*
X2385940Y-719560D01*
X2383200Y-716820D01*
X2380040Y-714599D01*
X2376520Y-712980D01*
X2372800Y-711979D01*
X2368940Y-711640D01*
X2365080Y-711979D01*
X2361360Y-712980D01*
X2357840Y-714599D01*
X2354680Y-716820D01*
X2351940Y-719560D01*
X2349720Y-722720D01*
X2348100Y-726240D01*
X2347100Y-729960D01*
X2346760Y-733820D01*
X2347100Y-737680D01*
X2348100Y-741400D01*
X2349720Y-744920D01*
X2351940Y-748080D01*
X2354680Y-750819D01*
X2356100Y-751940D01*
X2357720Y-753740D01*
X2358480Y-754980D01*
X2358740Y-756420D01*
X2358740Y-919280D01*
X2358360Y-921000D01*
X2356180Y-925560D01*
X2354720Y-927720D01*
X2353100Y-931240D01*
X2352100Y-934960D01*
X2351760Y-938820D01*
X2352100Y-942680D01*
X2353100Y-946400D01*
X2354720Y-949920D01*
X2356940Y-953080D01*
X2359680Y-955819D01*
X2360440Y-956340D01*
X2361580Y-957560D01*
X2362120Y-959160D01*
X2361960Y-960819D01*
X2361120Y-962280D01*
X2359780Y-963259D01*
X2358140Y-963620D01*
X1949139Y-963620D01*
X1945980Y-963920D01*
X1943120Y-964800D01*
X1940500Y-966200D01*
X1938060Y-968199D01*
X1883320Y-1022940D01*
X1881320Y-1025380D01*
X1879920Y-1028000D01*
X1879060Y-1030860D01*
X1878740Y-1034020D01*
X1878740Y-1145860D01*
X1878440Y-1147400D01*
X1877560Y-1148700D01*
X1787000Y-1239260D01*
X1785520Y-1240200D01*
X1781120Y-1241760D01*
X1776360Y-1242980D01*
X1772840Y-1244600D01*
X1769680Y-1246820D01*
X1766940Y-1249560D01*
X1764720Y-1252720D01*
X1763100Y-1256240D01*
X1762100Y-1259960D01*
X1761759Y-1263820D01*
X1762100Y-1267680D01*
X1763100Y-1271400D01*
X1764720Y-1274920D01*
X1766940Y-1278080D01*
X1769680Y-1280820D01*
X1772840Y-1283040D01*
X1776360Y-1284660D01*
X1780080Y-1285660D01*
X1783940Y-1286000D01*
X1787800Y-1285660D01*
X1791519Y-1284660D01*
X1795040Y-1283040D01*
X1798200Y-1280820D01*
X1800940Y-1278080D01*
X1803160Y-1274920D01*
X1804780Y-1271400D01*
X1805080Y-1270320D01*
X1805880Y-1268800D01*
X1807240Y-1267740D01*
X1808940Y-1267360D01*
X1810640Y-1267740D01*
X1812000Y-1268800D01*
X1812800Y-1270320D01*
X1813100Y-1271400D01*
X1814720Y-1274920D01*
X1816940Y-1278080D01*
X1819680Y-1280820D01*
X1822840Y-1283040D01*
X1826360Y-1284660D01*
X1830080Y-1285660D01*
X1833940Y-1286000D01*
X1837800Y-1285660D01*
X1841519Y-1284660D01*
X1845040Y-1283040D01*
X1848200Y-1280820D01*
X1850940Y-1278080D01*
X1853160Y-1274920D01*
X1854780Y-1271400D01*
X1855080Y-1270320D01*
X1855880Y-1268800D01*
X1857240Y-1267740D01*
X1858940Y-1267360D01*
X1860640Y-1267740D01*
X1862000Y-1268800D01*
X1862800Y-1270320D01*
X1863100Y-1271400D01*
X1864720Y-1274920D01*
X1866940Y-1278080D01*
X1869680Y-1280820D01*
X1872840Y-1283040D01*
X1876360Y-1284660D01*
X1880080Y-1285660D01*
X1883940Y-1286000D01*
X1887800Y-1285660D01*
X1891519Y-1284660D01*
X1895040Y-1283040D01*
X1898200Y-1280820D01*
X1900940Y-1278080D01*
X1903160Y-1274920D01*
X1904780Y-1271400D01*
X1906000Y-1266640D01*
X1907560Y-1262240D01*
X1908520Y-1260740D01*
X1979540Y-1189700D01*
X1981560Y-1187260D01*
X1982960Y-1184620D01*
X1983820Y-1181780D01*
X1984139Y-1178620D01*
X1984139Y-1086780D01*
X1984440Y-1085240D01*
X1985320Y-1083940D01*
X1999060Y-1070180D01*
X2000360Y-1069320D01*
X2001900Y-1069020D01*
X2239400Y-1069020D01*
X2241120Y-1069400D01*
X2245680Y-1071580D01*
X2247840Y-1073040D01*
X2251360Y-1074660D01*
X2255080Y-1075660D01*
X2258940Y-1076000D01*
X2262800Y-1075660D01*
X2266520Y-1074660D01*
X2270040Y-1073040D01*
X2273200Y-1070820D01*
X2275940Y-1068080D01*
X2278160Y-1064920D01*
X2279780Y-1061400D01*
X2280780Y-1057680D01*
X2281120Y-1053820D01*
X2280780Y-1049960D01*
X2280540Y-1049060D01*
X2280420Y-1047600D01*
X2280840Y-1046200D01*
X2281720Y-1045040D01*
X2282980Y-1044280D01*
X2284400Y-1044020D01*
X2318780Y-1044020D01*
X2320220Y-1044280D01*
X2321460Y-1045040D01*
X2322340Y-1046200D01*
X2322760Y-1047600D01*
X2322640Y-1049060D01*
X2322100Y-1051120D01*
X2321760Y-1054980D01*
X2322100Y-1058820D01*
X2323100Y-1062560D01*
X2324720Y-1066060D01*
X2326180Y-1068220D01*
X2328360Y-1072800D01*
X2328740Y-1074520D01*
X2328740Y-1273620D01*
X2329060Y-1276780D01*
X2329920Y-1279620D01*
X2331320Y-1282260D01*
X2333320Y-1284700D01*
X2374380Y-1325740D01*
X2375320Y-1327240D01*
X2376880Y-1331639D01*
X2378100Y-1336399D01*
X2379720Y-1339920D01*
X2381940Y-1343080D01*
X2384680Y-1345820D01*
X2387840Y-1348040D01*
X2391360Y-1349660D01*
X2395080Y-1350660D01*
G37*
G36*
X3273940Y-1516000D02*
G01*
X3277799Y-1515660D01*
X3281520Y-1514660D01*
X3285040Y-1513040D01*
X3288200Y-1510820D01*
X3290940Y-1508080D01*
X3293159Y-1504920D01*
X3294780Y-1501399D01*
X3295779Y-1497680D01*
X3296120Y-1493820D01*
X3295779Y-1489960D01*
X3294780Y-1486240D01*
X3293159Y-1482720D01*
X3290940Y-1479560D01*
X3288200Y-1476819D01*
X3285040Y-1474600D01*
X3281520Y-1472980D01*
X3277799Y-1471980D01*
X3273940Y-1471639D01*
X3270080Y-1471980D01*
X3266360Y-1472980D01*
X3262840Y-1474600D01*
X3260680Y-1476060D01*
X3257799Y-1477420D01*
X3256220Y-1477820D01*
X3254620Y-1477540D01*
X3253260Y-1476639D01*
X3138639Y-1362020D01*
X3137780Y-1360740D01*
X3137480Y-1359199D01*
X3137780Y-1357660D01*
X3138639Y-1356380D01*
X3139940Y-1355500D01*
X3141480Y-1355200D01*
X3295440Y-1355200D01*
X3297160Y-1355580D01*
X3301740Y-1357760D01*
X3303900Y-1359220D01*
X3307400Y-1360840D01*
X3311139Y-1361840D01*
X3315000Y-1362180D01*
X3318840Y-1361840D01*
X3322580Y-1360840D01*
X3326080Y-1359220D01*
X3329260Y-1357000D01*
X3331980Y-1354259D01*
X3334200Y-1351100D01*
X3335840Y-1347580D01*
X3336840Y-1343860D01*
X3337180Y-1340000D01*
X3336840Y-1336140D01*
X3335840Y-1332420D01*
X3334200Y-1328899D01*
X3331980Y-1325740D01*
X3329260Y-1323000D01*
X3326080Y-1320780D01*
X3322580Y-1319160D01*
X3318840Y-1318160D01*
X3315000Y-1317820D01*
X3311139Y-1318160D01*
X3307400Y-1319160D01*
X3303900Y-1320780D01*
X3301740Y-1322240D01*
X3297160Y-1324420D01*
X3295440Y-1324800D01*
X3103080Y-1324800D01*
X3101540Y-1324500D01*
X3100240Y-1323620D01*
X3009160Y-1232540D01*
X3008340Y-1231340D01*
X3008000Y-1229940D01*
X3007860Y-1226940D01*
X3008140Y-1223820D01*
X3007799Y-1219960D01*
X3006800Y-1216240D01*
X3005160Y-1212720D01*
X3002940Y-1209560D01*
X3000220Y-1206820D01*
X2997040Y-1204600D01*
X2993540Y-1202980D01*
X2989800Y-1201980D01*
X2985960Y-1201640D01*
X2982100Y-1201980D01*
X2978360Y-1202980D01*
X2974860Y-1204600D01*
X2971680Y-1206820D01*
X2968960Y-1209560D01*
X2966740Y-1212720D01*
X2965100Y-1216240D01*
X2964100Y-1219960D01*
X2963759Y-1223820D01*
X2964100Y-1227680D01*
X2965100Y-1231400D01*
X2966740Y-1234920D01*
X2968960Y-1238080D01*
X2971680Y-1240820D01*
X2974860Y-1243040D01*
X2976320Y-1243840D01*
X2982140Y-1248520D01*
X3238060Y-1504420D01*
X3240500Y-1506440D01*
X3243120Y-1507840D01*
X3245980Y-1508700D01*
X3249140Y-1509019D01*
X3254400Y-1509019D01*
X3256120Y-1509400D01*
X3260680Y-1511579D01*
X3262840Y-1513040D01*
X3266360Y-1514660D01*
X3270080Y-1515660D01*
G37*
G36*
X3741940Y-1644019D02*
G01*
X3749040Y-1643480D01*
X3756060Y-1642200D01*
X3762900Y-1640200D01*
X3769500Y-1637520D01*
X3775800Y-1634160D01*
X3781720Y-1630180D01*
X3787180Y-1625620D01*
X3792160Y-1620520D01*
X3796600Y-1614920D01*
X3800419Y-1608899D01*
X3803600Y-1602540D01*
X3806120Y-1595860D01*
X3807940Y-1588959D01*
X3809040Y-1581920D01*
X3809400Y-1574800D01*
X3809040Y-1567680D01*
X3807940Y-1560640D01*
X3806120Y-1553740D01*
X3803600Y-1547060D01*
X3800419Y-1540700D01*
X3796600Y-1534680D01*
X3792160Y-1529079D01*
X3787180Y-1523980D01*
X3781720Y-1519420D01*
X3775800Y-1515440D01*
X3769500Y-1512080D01*
X3762900Y-1509400D01*
X3756060Y-1507400D01*
X3749040Y-1506120D01*
X3741940Y-1505580D01*
X3734800Y-1505760D01*
X3727740Y-1506680D01*
X3720800Y-1508300D01*
X3714060Y-1510660D01*
X3707600Y-1513680D01*
X3701500Y-1517340D01*
X3695779Y-1521620D01*
X3690560Y-1526459D01*
X3685840Y-1531819D01*
X3681720Y-1537640D01*
X3678200Y-1543839D01*
X3675360Y-1550380D01*
X3673180Y-1557160D01*
X3671720Y-1564139D01*
X3671000Y-1571240D01*
X3671000Y-1578360D01*
X3671720Y-1585460D01*
X3673180Y-1592440D01*
X3675360Y-1599220D01*
X3678200Y-1605760D01*
X3681720Y-1611960D01*
X3685840Y-1617780D01*
X3690560Y-1623140D01*
X3695779Y-1627980D01*
X3701500Y-1632260D01*
X3707600Y-1635920D01*
X3714060Y-1638940D01*
X3720800Y-1641300D01*
X3727740Y-1642920D01*
X3734800Y-1643839D01*
G37*
G36*
X2433940Y-1711000D02*
G01*
X2437800Y-1710660D01*
X2441520Y-1709660D01*
X2445040Y-1708040D01*
X2448200Y-1705820D01*
X2450940Y-1703080D01*
X2453160Y-1699920D01*
X2454780Y-1696399D01*
X2455780Y-1692680D01*
X2456120Y-1688820D01*
X2455780Y-1684960D01*
X2454780Y-1681240D01*
X2453160Y-1677720D01*
X2450940Y-1674560D01*
X2448200Y-1671819D01*
X2445040Y-1669600D01*
X2441520Y-1667980D01*
X2437800Y-1666980D01*
X2433940Y-1666639D01*
X2430080Y-1666980D01*
X2426360Y-1667980D01*
X2422840Y-1669600D01*
X2420680Y-1671060D01*
X2416120Y-1673220D01*
X2414400Y-1673620D01*
X2341900Y-1673620D01*
X2340360Y-1673320D01*
X2339060Y-1672440D01*
X2150320Y-1483700D01*
X2149440Y-1482400D01*
X2149140Y-1480860D01*
X2149140Y-1443360D01*
X2149520Y-1441639D01*
X2151700Y-1437080D01*
X2153160Y-1434920D01*
X2154780Y-1431399D01*
X2155780Y-1427680D01*
X2156120Y-1423820D01*
X2155780Y-1419960D01*
X2154780Y-1416240D01*
X2153160Y-1412720D01*
X2150940Y-1409560D01*
X2148200Y-1406819D01*
X2145040Y-1404600D01*
X2141520Y-1402980D01*
X2137800Y-1401980D01*
X2133940Y-1401639D01*
X2130080Y-1401980D01*
X2126360Y-1402980D01*
X2122840Y-1404600D01*
X2119680Y-1406819D01*
X2116940Y-1409560D01*
X2114720Y-1412720D01*
X2113100Y-1416240D01*
X2112100Y-1419960D01*
X2111760Y-1423820D01*
X2112100Y-1427680D01*
X2113100Y-1431399D01*
X2114720Y-1434920D01*
X2116180Y-1437080D01*
X2118360Y-1441639D01*
X2118740Y-1443360D01*
X2118740Y-1488620D01*
X2119060Y-1491780D01*
X2119920Y-1494620D01*
X2121320Y-1497260D01*
X2123320Y-1499700D01*
X2323060Y-1699420D01*
X2325500Y-1701440D01*
X2328120Y-1702840D01*
X2330980Y-1703700D01*
X2334140Y-1704019D01*
X2414400Y-1704019D01*
X2416120Y-1704400D01*
X2420680Y-1706579D01*
X2422840Y-1708040D01*
X2426360Y-1709660D01*
X2430080Y-1710660D01*
G37*
G36*
X60940Y-2168000D02*
G01*
X64800Y-2167660D01*
X68520Y-2166660D01*
X72040Y-2165040D01*
X75200Y-2162820D01*
X77940Y-2160080D01*
X80160Y-2156920D01*
X81780Y-2153400D01*
X82080Y-2152320D01*
X82880Y-2150800D01*
X84240Y-2149740D01*
X85940Y-2149360D01*
X87640Y-2149740D01*
X89000Y-2150800D01*
X89800Y-2152320D01*
X90100Y-2153400D01*
X91720Y-2156920D01*
X93940Y-2160080D01*
X96679Y-2162820D01*
X99840Y-2165040D01*
X103360Y-2166660D01*
X107080Y-2167660D01*
X110940Y-2168000D01*
X114800Y-2167660D01*
X118520Y-2166660D01*
X122040Y-2165040D01*
X125200Y-2162820D01*
X127940Y-2160080D01*
X130160Y-2156920D01*
X131780Y-2153400D01*
X132080Y-2152320D01*
X132880Y-2150800D01*
X134240Y-2149740D01*
X135940Y-2149360D01*
X137640Y-2149740D01*
X139000Y-2150800D01*
X139800Y-2152320D01*
X140100Y-2153400D01*
X141720Y-2156920D01*
X143940Y-2160080D01*
X146680Y-2162820D01*
X149840Y-2165040D01*
X153360Y-2166660D01*
X157080Y-2167660D01*
X160940Y-2168000D01*
X164800Y-2167660D01*
X168520Y-2166660D01*
X172040Y-2165040D01*
X175200Y-2162820D01*
X177940Y-2160080D01*
X180159Y-2156920D01*
X181780Y-2153400D01*
X182780Y-2149680D01*
X183120Y-2145820D01*
X182780Y-2141960D01*
X181780Y-2138240D01*
X180159Y-2134720D01*
X177940Y-2131560D01*
X175200Y-2128820D01*
X172040Y-2126600D01*
X168520Y-2124980D01*
X167440Y-2124680D01*
X165920Y-2123880D01*
X164860Y-2122520D01*
X164480Y-2120820D01*
X164860Y-2119120D01*
X165920Y-2117760D01*
X167440Y-2116960D01*
X168520Y-2116660D01*
X172040Y-2115040D01*
X175200Y-2112820D01*
X177940Y-2110080D01*
X180159Y-2106920D01*
X181780Y-2103400D01*
X182079Y-2102320D01*
X182880Y-2100800D01*
X184240Y-2099740D01*
X185940Y-2099360D01*
X187640Y-2099740D01*
X189000Y-2100800D01*
X189800Y-2102320D01*
X190100Y-2103400D01*
X191720Y-2106920D01*
X193939Y-2110080D01*
X196680Y-2112820D01*
X199840Y-2115040D01*
X203359Y-2116660D01*
X207079Y-2117660D01*
X210940Y-2118000D01*
X214800Y-2117660D01*
X218520Y-2116660D01*
X222040Y-2115040D01*
X225200Y-2112820D01*
X227940Y-2110080D01*
X230159Y-2106920D01*
X231780Y-2103400D01*
X232780Y-2099680D01*
X233120Y-2095820D01*
X232780Y-2091960D01*
X231780Y-2088240D01*
X230159Y-2084720D01*
X227940Y-2081560D01*
X225200Y-2078820D01*
X222040Y-2076600D01*
X218520Y-2074980D01*
X217440Y-2074680D01*
X215920Y-2073880D01*
X214860Y-2072520D01*
X214480Y-2070820D01*
X214860Y-2069120D01*
X215920Y-2067760D01*
X217440Y-2066960D01*
X218520Y-2066660D01*
X222040Y-2065040D01*
X225200Y-2062820D01*
X227940Y-2060080D01*
X230159Y-2056920D01*
X231780Y-2053400D01*
X232079Y-2052320D01*
X232880Y-2050800D01*
X234240Y-2049740D01*
X235940Y-2049360D01*
X237640Y-2049740D01*
X239000Y-2050800D01*
X239800Y-2052320D01*
X240100Y-2053400D01*
X241720Y-2056920D01*
X243939Y-2060080D01*
X246680Y-2062820D01*
X249840Y-2065040D01*
X253359Y-2066660D01*
X257079Y-2067660D01*
X260940Y-2068000D01*
X264800Y-2067660D01*
X268520Y-2066660D01*
X272040Y-2065040D01*
X275200Y-2062820D01*
X277940Y-2060080D01*
X280160Y-2056920D01*
X281780Y-2053400D01*
X282780Y-2049680D01*
X283120Y-2045820D01*
X282780Y-2041960D01*
X281780Y-2038240D01*
X280160Y-2034720D01*
X277940Y-2031560D01*
X275200Y-2028820D01*
X272040Y-2026600D01*
X268520Y-2024980D01*
X267440Y-2024680D01*
X265920Y-2023880D01*
X264860Y-2022520D01*
X264480Y-2020820D01*
X264860Y-2019120D01*
X265920Y-2017760D01*
X267440Y-2016960D01*
X268520Y-2016660D01*
X272040Y-2015040D01*
X275200Y-2012820D01*
X277940Y-2010080D01*
X280160Y-2006920D01*
X281780Y-2003400D01*
X282780Y-1999680D01*
X283120Y-1995820D01*
X282780Y-1991960D01*
X281780Y-1988240D01*
X280160Y-1984720D01*
X277940Y-1981560D01*
X275200Y-1978820D01*
X272040Y-1976600D01*
X268520Y-1974980D01*
X264800Y-1973980D01*
X260940Y-1973640D01*
X257079Y-1973980D01*
X253359Y-1974980D01*
X249840Y-1976600D01*
X246680Y-1978820D01*
X243939Y-1981560D01*
X241720Y-1984720D01*
X240100Y-1988240D01*
X239800Y-1989319D01*
X239000Y-1990840D01*
X237640Y-1991900D01*
X235940Y-1992280D01*
X234240Y-1991900D01*
X232880Y-1990840D01*
X232079Y-1989319D01*
X231780Y-1988240D01*
X230159Y-1984720D01*
X227940Y-1981560D01*
X225200Y-1978820D01*
X222040Y-1976600D01*
X218520Y-1974980D01*
X214800Y-1973980D01*
X210940Y-1973640D01*
X207079Y-1973980D01*
X203359Y-1974980D01*
X199840Y-1976600D01*
X196680Y-1978820D01*
X193939Y-1981560D01*
X191720Y-1984720D01*
X190100Y-1988240D01*
X189800Y-1989319D01*
X189000Y-1990840D01*
X187640Y-1991900D01*
X185940Y-1992280D01*
X184240Y-1991900D01*
X182880Y-1990840D01*
X182079Y-1989319D01*
X181780Y-1988240D01*
X180159Y-1984720D01*
X177940Y-1981560D01*
X175200Y-1978820D01*
X172040Y-1976600D01*
X168520Y-1974980D01*
X164800Y-1973980D01*
X160940Y-1973640D01*
X157080Y-1973980D01*
X153360Y-1974980D01*
X149840Y-1976600D01*
X146680Y-1978820D01*
X143940Y-1981560D01*
X141720Y-1984720D01*
X140100Y-1988240D01*
X139800Y-1989319D01*
X139000Y-1990840D01*
X137640Y-1991900D01*
X135940Y-1992280D01*
X134240Y-1991900D01*
X132880Y-1990840D01*
X132080Y-1989319D01*
X131780Y-1988240D01*
X130160Y-1984720D01*
X127940Y-1981560D01*
X125200Y-1978820D01*
X122040Y-1976600D01*
X118520Y-1974980D01*
X114800Y-1973980D01*
X110940Y-1973640D01*
X107080Y-1973980D01*
X103360Y-1974980D01*
X99840Y-1976600D01*
X96679Y-1978820D01*
X93940Y-1981560D01*
X91720Y-1984720D01*
X90100Y-1988240D01*
X89100Y-1991960D01*
X88760Y-1995820D01*
X89100Y-1999680D01*
X90100Y-2003400D01*
X91720Y-2006920D01*
X93940Y-2010080D01*
X96679Y-2012820D01*
X99840Y-2015040D01*
X103360Y-2016660D01*
X104440Y-2016960D01*
X105960Y-2017760D01*
X107020Y-2019120D01*
X107400Y-2020820D01*
X107020Y-2022520D01*
X105960Y-2023880D01*
X104440Y-2024680D01*
X103360Y-2024980D01*
X99840Y-2026600D01*
X96679Y-2028820D01*
X93940Y-2031560D01*
X91720Y-2034720D01*
X90100Y-2038240D01*
X89800Y-2039319D01*
X89000Y-2040840D01*
X87640Y-2041900D01*
X85940Y-2042280D01*
X84240Y-2041900D01*
X82880Y-2040840D01*
X82080Y-2039319D01*
X81780Y-2038240D01*
X80160Y-2034720D01*
X77940Y-2031560D01*
X75200Y-2028820D01*
X72040Y-2026600D01*
X68520Y-2024980D01*
X64800Y-2023980D01*
X60940Y-2023640D01*
X57080Y-2023980D01*
X53360Y-2024980D01*
X49840Y-2026600D01*
X46680Y-2028820D01*
X43940Y-2031560D01*
X41720Y-2034720D01*
X40100Y-2038240D01*
X39100Y-2041960D01*
X38760Y-2045820D01*
X39100Y-2049680D01*
X40100Y-2053400D01*
X41720Y-2056920D01*
X43940Y-2060080D01*
X46680Y-2062820D01*
X49840Y-2065040D01*
X53360Y-2066660D01*
X54440Y-2066960D01*
X55960Y-2067760D01*
X57020Y-2069120D01*
X57400Y-2070820D01*
X57020Y-2072520D01*
X55960Y-2073880D01*
X54440Y-2074680D01*
X53360Y-2074980D01*
X49840Y-2076600D01*
X46680Y-2078820D01*
X43940Y-2081560D01*
X41720Y-2084720D01*
X40100Y-2088240D01*
X39100Y-2091960D01*
X38760Y-2095820D01*
X39100Y-2099680D01*
X40100Y-2103400D01*
X41720Y-2106920D01*
X43940Y-2110080D01*
X46680Y-2112820D01*
X49840Y-2115040D01*
X53360Y-2116660D01*
X54440Y-2116960D01*
X55960Y-2117760D01*
X57020Y-2119120D01*
X57400Y-2120820D01*
X57020Y-2122520D01*
X55960Y-2123880D01*
X54440Y-2124680D01*
X53360Y-2124980D01*
X49840Y-2126600D01*
X46680Y-2128820D01*
X43940Y-2131560D01*
X41720Y-2134720D01*
X40100Y-2138240D01*
X39100Y-2141960D01*
X38760Y-2145820D01*
X39100Y-2149680D01*
X40100Y-2153400D01*
X41720Y-2156920D01*
X43940Y-2160080D01*
X46680Y-2162820D01*
X49840Y-2165040D01*
X53360Y-2166660D01*
X57080Y-2167660D01*
G37*
G36*
X620300Y-2693260D02*
G01*
X706460Y-2693260D01*
X708960Y-2692980D01*
X711100Y-2692240D01*
X713040Y-2691019D01*
X714640Y-2689400D01*
X715860Y-2687480D01*
X716600Y-2685320D01*
X716900Y-2682840D01*
X716900Y-2596680D01*
X716600Y-2594180D01*
X715860Y-2592040D01*
X714640Y-2590100D01*
X713040Y-2588500D01*
X711100Y-2587280D01*
X708960Y-2586540D01*
X706460Y-2586259D01*
X620300Y-2586259D01*
X617820Y-2586540D01*
X615660Y-2587280D01*
X613740Y-2588500D01*
X612120Y-2590100D01*
X610900Y-2592040D01*
X610160Y-2594180D01*
X609880Y-2596680D01*
X609880Y-2682840D01*
X610160Y-2685320D01*
X610900Y-2687480D01*
X612120Y-2689400D01*
X613740Y-2691019D01*
X615660Y-2692240D01*
X617820Y-2692980D01*
G37*
G36*
X198640Y-1840880D02*
G01*
X205740Y-1840320D01*
X212760Y-1839040D01*
X219600Y-1837060D01*
X226200Y-1834360D01*
X232500Y-1831020D01*
X238420Y-1827040D01*
X243880Y-1822480D01*
X248860Y-1817360D01*
X253299Y-1811780D01*
X257120Y-1805760D01*
X260300Y-1799379D01*
X262820Y-1792700D01*
X264640Y-1785820D01*
X265740Y-1778779D01*
X266100Y-1771660D01*
X265740Y-1764520D01*
X264640Y-1757480D01*
X262820Y-1750600D01*
X260300Y-1743920D01*
X257120Y-1737540D01*
X253299Y-1731519D01*
X248860Y-1725940D01*
X243880Y-1720820D01*
X238420Y-1716260D01*
X232500Y-1712280D01*
X226200Y-1708940D01*
X219600Y-1706240D01*
X212760Y-1704259D01*
X205740Y-1702980D01*
X198640Y-1702420D01*
X191500Y-1702600D01*
X184440Y-1703520D01*
X177500Y-1705160D01*
X170760Y-1707500D01*
X164300Y-1710520D01*
X158200Y-1714199D01*
X152480Y-1718480D01*
X147260Y-1723320D01*
X142540Y-1728680D01*
X138420Y-1734480D01*
X134900Y-1740680D01*
X132060Y-1747220D01*
X129880Y-1754019D01*
X128420Y-1761000D01*
X127700Y-1768080D01*
X127700Y-1775220D01*
X128420Y-1782300D01*
X129880Y-1789280D01*
X132060Y-1796080D01*
X134900Y-1802620D01*
X138420Y-1808820D01*
X142540Y-1814620D01*
X147260Y-1819980D01*
X152480Y-1824820D01*
X158200Y-1829100D01*
X164300Y-1832780D01*
X170760Y-1835800D01*
X177500Y-1838140D01*
X184440Y-1839780D01*
X191500Y-1840700D01*
G37*
G36*
X1273940Y-1891000D02*
G01*
X1277800Y-1890660D01*
X1281519Y-1889660D01*
X1285040Y-1888040D01*
X1287200Y-1886579D01*
X1291759Y-1884400D01*
X1293480Y-1884019D01*
X1334400Y-1884019D01*
X1336120Y-1884400D01*
X1340680Y-1886579D01*
X1342840Y-1888040D01*
X1346360Y-1889660D01*
X1350080Y-1890660D01*
X1353940Y-1891000D01*
X1357800Y-1890660D01*
X1361519Y-1889660D01*
X1365040Y-1888040D01*
X1368200Y-1885820D01*
X1370940Y-1883080D01*
X1373160Y-1879920D01*
X1374780Y-1876399D01*
X1375780Y-1872680D01*
X1376120Y-1868820D01*
X1375780Y-1864960D01*
X1374780Y-1861240D01*
X1373160Y-1857720D01*
X1370940Y-1854560D01*
X1368200Y-1851819D01*
X1365040Y-1849600D01*
X1361519Y-1847980D01*
X1357800Y-1846980D01*
X1353940Y-1846639D01*
X1350080Y-1846980D01*
X1346360Y-1847980D01*
X1342840Y-1849600D01*
X1340680Y-1851060D01*
X1336120Y-1853220D01*
X1334400Y-1853620D01*
X1293480Y-1853620D01*
X1291759Y-1853220D01*
X1287200Y-1851060D01*
X1285040Y-1849600D01*
X1281519Y-1847980D01*
X1277800Y-1846980D01*
X1273940Y-1846639D01*
X1270080Y-1846980D01*
X1266360Y-1847980D01*
X1262840Y-1849600D01*
X1259680Y-1851819D01*
X1256940Y-1854560D01*
X1254720Y-1857720D01*
X1253100Y-1861240D01*
X1252100Y-1864960D01*
X1251760Y-1868820D01*
X1252100Y-1872680D01*
X1253100Y-1876399D01*
X1254720Y-1879920D01*
X1256940Y-1883080D01*
X1259680Y-1885820D01*
X1262840Y-1888040D01*
X1266360Y-1889660D01*
X1270080Y-1890660D01*
G37*
G36*
X3058940Y-2096000D02*
G01*
X3062799Y-2095660D01*
X3066520Y-2094660D01*
X3070040Y-2093040D01*
X3073200Y-2090820D01*
X3075940Y-2088080D01*
X3078159Y-2084920D01*
X3079780Y-2081399D01*
X3080779Y-2077680D01*
X3081120Y-2073820D01*
X3080779Y-2069960D01*
X3079780Y-2066240D01*
X3078159Y-2062720D01*
X3074660Y-2057860D01*
X3074360Y-2056320D01*
X3074660Y-2054780D01*
X3078159Y-2049920D01*
X3079780Y-2046399D01*
X3080779Y-2042680D01*
X3081120Y-2038820D01*
X3080779Y-2034960D01*
X3079780Y-2031240D01*
X3078159Y-2027720D01*
X3074660Y-2022860D01*
X3074360Y-2021320D01*
X3074660Y-2019780D01*
X3078159Y-2014920D01*
X3079780Y-2011399D01*
X3080779Y-2007680D01*
X3081120Y-2003820D01*
X3080779Y-1999960D01*
X3079780Y-1996240D01*
X3078159Y-1992720D01*
X3075940Y-1989560D01*
X3073200Y-1986819D01*
X3070040Y-1984600D01*
X3066520Y-1982980D01*
X3062799Y-1981980D01*
X3058940Y-1981639D01*
X3055080Y-1981980D01*
X3051360Y-1982980D01*
X3047840Y-1984600D01*
X3044680Y-1986819D01*
X3041940Y-1989560D01*
X3039720Y-1992720D01*
X3038100Y-1996240D01*
X3037100Y-1999960D01*
X3036760Y-2003820D01*
X3037100Y-2007680D01*
X3038100Y-2011399D01*
X3039720Y-2014920D01*
X3043220Y-2019780D01*
X3043519Y-2021320D01*
X3043220Y-2022860D01*
X3039720Y-2027720D01*
X3038100Y-2031240D01*
X3037100Y-2034960D01*
X3036760Y-2038820D01*
X3037100Y-2042680D01*
X3038100Y-2046399D01*
X3039720Y-2049920D01*
X3043220Y-2054780D01*
X3043519Y-2056320D01*
X3043220Y-2057860D01*
X3039720Y-2062720D01*
X3038100Y-2066240D01*
X3037100Y-2069960D01*
X3036760Y-2073820D01*
X3037100Y-2077680D01*
X3038100Y-2081399D01*
X3039720Y-2084920D01*
X3041940Y-2088080D01*
X3044680Y-2090820D01*
X3047840Y-2093040D01*
X3051360Y-2094660D01*
X3055080Y-2095660D01*
G37*
G36*
X3493940Y-2096000D02*
G01*
X3497799Y-2095660D01*
X3501520Y-2094660D01*
X3505040Y-2093040D01*
X3508200Y-2090820D01*
X3510940Y-2088080D01*
X3513159Y-2084920D01*
X3514780Y-2081399D01*
X3515779Y-2077680D01*
X3516120Y-2073820D01*
X3515779Y-2069960D01*
X3514780Y-2066240D01*
X3513159Y-2062720D01*
X3509660Y-2057860D01*
X3509360Y-2056320D01*
X3509660Y-2054780D01*
X3513159Y-2049920D01*
X3514780Y-2046399D01*
X3515779Y-2042680D01*
X3516120Y-2038820D01*
X3515779Y-2034960D01*
X3514780Y-2031240D01*
X3513159Y-2027720D01*
X3509660Y-2022860D01*
X3509360Y-2021320D01*
X3509660Y-2019780D01*
X3513159Y-2014920D01*
X3514780Y-2011399D01*
X3515779Y-2007680D01*
X3516120Y-2003820D01*
X3515779Y-1999960D01*
X3514780Y-1996240D01*
X3513159Y-1992720D01*
X3510940Y-1989560D01*
X3508200Y-1986819D01*
X3505040Y-1984600D01*
X3501520Y-1982980D01*
X3497799Y-1981980D01*
X3493940Y-1981639D01*
X3490080Y-1981980D01*
X3486360Y-1982980D01*
X3482840Y-1984600D01*
X3479680Y-1986819D01*
X3476940Y-1989560D01*
X3474720Y-1992720D01*
X3473100Y-1996240D01*
X3472100Y-1999960D01*
X3471760Y-2003820D01*
X3472100Y-2007680D01*
X3473100Y-2011399D01*
X3474720Y-2014920D01*
X3478220Y-2019780D01*
X3478519Y-2021320D01*
X3478220Y-2022860D01*
X3474720Y-2027720D01*
X3473100Y-2031240D01*
X3472100Y-2034960D01*
X3471760Y-2038820D01*
X3472100Y-2042680D01*
X3473100Y-2046399D01*
X3474720Y-2049920D01*
X3478220Y-2054780D01*
X3478519Y-2056320D01*
X3478220Y-2057860D01*
X3474720Y-2062720D01*
X3473100Y-2066240D01*
X3472100Y-2069960D01*
X3471760Y-2073820D01*
X3472100Y-2077680D01*
X3473100Y-2081399D01*
X3474720Y-2084920D01*
X3476940Y-2088080D01*
X3479680Y-2090820D01*
X3482840Y-2093040D01*
X3486360Y-2094660D01*
X3490080Y-2095660D01*
G37*
G36*
X3553940Y-2096000D02*
G01*
X3557799Y-2095660D01*
X3561520Y-2094660D01*
X3565040Y-2093040D01*
X3568200Y-2090820D01*
X3570940Y-2088080D01*
X3573159Y-2084920D01*
X3574780Y-2081399D01*
X3575779Y-2077680D01*
X3576120Y-2073820D01*
X3575779Y-2069960D01*
X3574780Y-2066240D01*
X3573159Y-2062720D01*
X3569660Y-2057860D01*
X3569360Y-2056320D01*
X3569660Y-2054780D01*
X3573159Y-2049920D01*
X3574780Y-2046399D01*
X3575779Y-2042680D01*
X3576120Y-2038820D01*
X3575779Y-2034960D01*
X3574780Y-2031240D01*
X3573159Y-2027720D01*
X3569660Y-2022860D01*
X3569360Y-2021320D01*
X3569660Y-2019780D01*
X3573159Y-2014920D01*
X3574780Y-2011399D01*
X3575779Y-2007680D01*
X3576120Y-2003820D01*
X3575779Y-1999960D01*
X3574780Y-1996240D01*
X3573159Y-1992720D01*
X3570940Y-1989560D01*
X3568200Y-1986819D01*
X3565040Y-1984600D01*
X3561520Y-1982980D01*
X3557799Y-1981980D01*
X3553940Y-1981639D01*
X3550080Y-1981980D01*
X3546360Y-1982980D01*
X3542840Y-1984600D01*
X3539680Y-1986819D01*
X3536940Y-1989560D01*
X3534720Y-1992720D01*
X3533100Y-1996240D01*
X3532100Y-1999960D01*
X3531760Y-2003820D01*
X3532100Y-2007680D01*
X3533100Y-2011399D01*
X3534720Y-2014920D01*
X3538220Y-2019780D01*
X3538519Y-2021320D01*
X3538220Y-2022860D01*
X3534720Y-2027720D01*
X3533100Y-2031240D01*
X3532100Y-2034960D01*
X3531760Y-2038820D01*
X3532100Y-2042680D01*
X3533100Y-2046399D01*
X3534720Y-2049920D01*
X3538220Y-2054780D01*
X3538519Y-2056320D01*
X3538220Y-2057860D01*
X3534720Y-2062720D01*
X3533100Y-2066240D01*
X3532100Y-2069960D01*
X3531760Y-2073820D01*
X3532100Y-2077680D01*
X3533100Y-2081399D01*
X3534720Y-2084920D01*
X3536940Y-2088080D01*
X3539680Y-2090820D01*
X3542840Y-2093040D01*
X3546360Y-2094660D01*
X3550080Y-2095660D01*
G37*
G36*
X3608940Y-2096000D02*
G01*
X3612799Y-2095660D01*
X3616520Y-2094660D01*
X3620040Y-2093040D01*
X3623200Y-2090820D01*
X3625940Y-2088080D01*
X3628159Y-2084920D01*
X3629780Y-2081399D01*
X3630779Y-2077680D01*
X3631120Y-2073820D01*
X3630779Y-2069960D01*
X3629780Y-2066240D01*
X3628159Y-2062720D01*
X3624660Y-2057860D01*
X3624360Y-2056320D01*
X3624660Y-2054780D01*
X3628159Y-2049920D01*
X3629780Y-2046399D01*
X3630779Y-2042680D01*
X3631120Y-2038820D01*
X3630779Y-2034960D01*
X3629780Y-2031240D01*
X3628159Y-2027720D01*
X3624660Y-2022860D01*
X3624360Y-2021320D01*
X3624660Y-2019780D01*
X3628159Y-2014920D01*
X3629780Y-2011399D01*
X3630779Y-2007680D01*
X3631120Y-2003820D01*
X3630779Y-1999960D01*
X3629780Y-1996240D01*
X3628159Y-1992720D01*
X3625940Y-1989560D01*
X3623200Y-1986819D01*
X3620040Y-1984600D01*
X3616520Y-1982980D01*
X3612799Y-1981980D01*
X3608940Y-1981639D01*
X3605080Y-1981980D01*
X3601360Y-1982980D01*
X3597840Y-1984600D01*
X3594680Y-1986819D01*
X3591940Y-1989560D01*
X3589720Y-1992720D01*
X3588100Y-1996240D01*
X3587100Y-1999960D01*
X3586760Y-2003820D01*
X3587100Y-2007680D01*
X3588100Y-2011399D01*
X3589720Y-2014920D01*
X3593220Y-2019780D01*
X3593519Y-2021320D01*
X3593220Y-2022860D01*
X3589720Y-2027720D01*
X3588100Y-2031240D01*
X3587100Y-2034960D01*
X3586760Y-2038820D01*
X3587100Y-2042680D01*
X3588100Y-2046399D01*
X3589720Y-2049920D01*
X3593220Y-2054780D01*
X3593519Y-2056320D01*
X3593220Y-2057860D01*
X3589720Y-2062720D01*
X3588100Y-2066240D01*
X3587100Y-2069960D01*
X3586760Y-2073820D01*
X3587100Y-2077680D01*
X3588100Y-2081399D01*
X3589720Y-2084920D01*
X3591940Y-2088080D01*
X3594680Y-2090820D01*
X3597840Y-2093040D01*
X3601360Y-2094660D01*
X3605080Y-2095660D01*
G37*
G36*
X3003940Y-2096000D02*
G01*
X3007799Y-2095660D01*
X3011520Y-2094660D01*
X3015040Y-2093040D01*
X3018200Y-2090820D01*
X3020940Y-2088080D01*
X3023159Y-2084920D01*
X3024780Y-2081399D01*
X3025779Y-2077680D01*
X3026120Y-2073820D01*
X3025779Y-2069960D01*
X3024780Y-2066240D01*
X3023159Y-2062720D01*
X3019660Y-2057860D01*
X3019360Y-2056320D01*
X3019660Y-2054780D01*
X3023159Y-2049920D01*
X3024780Y-2046399D01*
X3025779Y-2042680D01*
X3026120Y-2038820D01*
X3025779Y-2034960D01*
X3024780Y-2031240D01*
X3023159Y-2027720D01*
X3019660Y-2022860D01*
X3019360Y-2021320D01*
X3019660Y-2019780D01*
X3023159Y-2014920D01*
X3024780Y-2011399D01*
X3025779Y-2007680D01*
X3026120Y-2003820D01*
X3025779Y-1999960D01*
X3024780Y-1996240D01*
X3023159Y-1992720D01*
X3020940Y-1989560D01*
X3018200Y-1986819D01*
X3015040Y-1984600D01*
X3011520Y-1982980D01*
X3007799Y-1981980D01*
X3003940Y-1981639D01*
X3000080Y-1981980D01*
X2996360Y-1982980D01*
X2992840Y-1984600D01*
X2989680Y-1986819D01*
X2986940Y-1989560D01*
X2984720Y-1992720D01*
X2983100Y-1996240D01*
X2982100Y-1999960D01*
X2981760Y-2003820D01*
X2982100Y-2007680D01*
X2983100Y-2011399D01*
X2984720Y-2014920D01*
X2988220Y-2019780D01*
X2988519Y-2021320D01*
X2988220Y-2022860D01*
X2984720Y-2027720D01*
X2983100Y-2031240D01*
X2982100Y-2034960D01*
X2981760Y-2038820D01*
X2982100Y-2042680D01*
X2983100Y-2046399D01*
X2984720Y-2049920D01*
X2988220Y-2054780D01*
X2988519Y-2056320D01*
X2988220Y-2057860D01*
X2984720Y-2062720D01*
X2983100Y-2066240D01*
X2982100Y-2069960D01*
X2981760Y-2073820D01*
X2982100Y-2077680D01*
X2983100Y-2081399D01*
X2984720Y-2084920D01*
X2986940Y-2088080D01*
X2989680Y-2090820D01*
X2992840Y-2093040D01*
X2996360Y-2094660D01*
X3000080Y-2095660D01*
G37*
G36*
X2943940Y-2096000D02*
G01*
X2947799Y-2095660D01*
X2951520Y-2094660D01*
X2955040Y-2093040D01*
X2958200Y-2090820D01*
X2960940Y-2088080D01*
X2963159Y-2084920D01*
X2964780Y-2081399D01*
X2965779Y-2077680D01*
X2966120Y-2073820D01*
X2965779Y-2069960D01*
X2964780Y-2066240D01*
X2963159Y-2062720D01*
X2959660Y-2057860D01*
X2959360Y-2056320D01*
X2959660Y-2054780D01*
X2963159Y-2049920D01*
X2964780Y-2046399D01*
X2965779Y-2042680D01*
X2966120Y-2038820D01*
X2965779Y-2034960D01*
X2964780Y-2031240D01*
X2963159Y-2027720D01*
X2959660Y-2022860D01*
X2959360Y-2021320D01*
X2959660Y-2019780D01*
X2963159Y-2014920D01*
X2964780Y-2011399D01*
X2965779Y-2007680D01*
X2966120Y-2003820D01*
X2965779Y-1999960D01*
X2964780Y-1996240D01*
X2963159Y-1992720D01*
X2960940Y-1989560D01*
X2958200Y-1986819D01*
X2955040Y-1984600D01*
X2951520Y-1982980D01*
X2947799Y-1981980D01*
X2943940Y-1981639D01*
X2940080Y-1981980D01*
X2936360Y-1982980D01*
X2932840Y-1984600D01*
X2929680Y-1986819D01*
X2926940Y-1989560D01*
X2924720Y-1992720D01*
X2923100Y-1996240D01*
X2922100Y-1999960D01*
X2921760Y-2003820D01*
X2922100Y-2007680D01*
X2923100Y-2011399D01*
X2924720Y-2014920D01*
X2928220Y-2019780D01*
X2928519Y-2021320D01*
X2928220Y-2022860D01*
X2924720Y-2027720D01*
X2923100Y-2031240D01*
X2922100Y-2034960D01*
X2921760Y-2038820D01*
X2922100Y-2042680D01*
X2923100Y-2046399D01*
X2924720Y-2049920D01*
X2928220Y-2054780D01*
X2928519Y-2056320D01*
X2928220Y-2057860D01*
X2924720Y-2062720D01*
X2923100Y-2066240D01*
X2922100Y-2069960D01*
X2921760Y-2073820D01*
X2922100Y-2077680D01*
X2923100Y-2081399D01*
X2924720Y-2084920D01*
X2926940Y-2088080D01*
X2929680Y-2090820D01*
X2932840Y-2093040D01*
X2936360Y-2094660D01*
X2940080Y-2095660D01*
G37*
G36*
X1823940Y-1891000D02*
G01*
X1827800Y-1890660D01*
X1831519Y-1889660D01*
X1835040Y-1888040D01*
X1837200Y-1886579D01*
X1841759Y-1884400D01*
X1843480Y-1884019D01*
X1884400Y-1884019D01*
X1886120Y-1884400D01*
X1890680Y-1886579D01*
X1892840Y-1888040D01*
X1896360Y-1889660D01*
X1900080Y-1890660D01*
X1903940Y-1891000D01*
X1907800Y-1890660D01*
X1911519Y-1889660D01*
X1915040Y-1888040D01*
X1918200Y-1885820D01*
X1920940Y-1883080D01*
X1923160Y-1879920D01*
X1924780Y-1876399D01*
X1925780Y-1872680D01*
X1926120Y-1868820D01*
X1925780Y-1864960D01*
X1924780Y-1861240D01*
X1923160Y-1857720D01*
X1920940Y-1854560D01*
X1918200Y-1851819D01*
X1915040Y-1849600D01*
X1911519Y-1847980D01*
X1907800Y-1846980D01*
X1903940Y-1846639D01*
X1900080Y-1846980D01*
X1896360Y-1847980D01*
X1892840Y-1849600D01*
X1890680Y-1851060D01*
X1886120Y-1853220D01*
X1884400Y-1853620D01*
X1843480Y-1853620D01*
X1841759Y-1853220D01*
X1837200Y-1851060D01*
X1835040Y-1849600D01*
X1831519Y-1847980D01*
X1827800Y-1846980D01*
X1823940Y-1846639D01*
X1820080Y-1846980D01*
X1816360Y-1847980D01*
X1812840Y-1849600D01*
X1809680Y-1851819D01*
X1806940Y-1854560D01*
X1804720Y-1857720D01*
X1803100Y-1861240D01*
X1802100Y-1864960D01*
X1801759Y-1868820D01*
X1802100Y-1872680D01*
X1803100Y-1876399D01*
X1804720Y-1879920D01*
X1806940Y-1883080D01*
X1809680Y-1885820D01*
X1812840Y-1888040D01*
X1816360Y-1889660D01*
X1820080Y-1890660D01*
G37*
G36*
X723940Y-1891000D02*
G01*
X727800Y-1890660D01*
X731520Y-1889660D01*
X735040Y-1888040D01*
X737200Y-1886579D01*
X741760Y-1884400D01*
X743480Y-1884019D01*
X784400Y-1884019D01*
X786120Y-1884400D01*
X790680Y-1886579D01*
X792840Y-1888040D01*
X796360Y-1889660D01*
X800080Y-1890660D01*
X803940Y-1891000D01*
X807800Y-1890660D01*
X811520Y-1889660D01*
X815040Y-1888040D01*
X818199Y-1885820D01*
X820939Y-1883080D01*
X823160Y-1879920D01*
X824780Y-1876399D01*
X825780Y-1872680D01*
X826120Y-1868820D01*
X825780Y-1864960D01*
X824780Y-1861240D01*
X823160Y-1857720D01*
X820939Y-1854560D01*
X818199Y-1851819D01*
X815040Y-1849600D01*
X811520Y-1847980D01*
X807800Y-1846980D01*
X803940Y-1846639D01*
X800080Y-1846980D01*
X796360Y-1847980D01*
X792840Y-1849600D01*
X790680Y-1851060D01*
X786120Y-1853220D01*
X784400Y-1853620D01*
X743480Y-1853620D01*
X741760Y-1853220D01*
X737200Y-1851060D01*
X735040Y-1849600D01*
X731520Y-1847980D01*
X727800Y-1846980D01*
X723940Y-1846639D01*
X720080Y-1846980D01*
X716360Y-1847980D01*
X712840Y-1849600D01*
X709680Y-1851819D01*
X706940Y-1854560D01*
X704720Y-1857720D01*
X703100Y-1861240D01*
X702099Y-1864960D01*
X701760Y-1868820D01*
X702099Y-1872680D01*
X703100Y-1876399D01*
X704720Y-1879920D01*
X706940Y-1883080D01*
X709680Y-1885820D01*
X712840Y-1888040D01*
X716360Y-1889660D01*
X720080Y-1890660D01*
G37*
G36*
X2923940Y-1891000D02*
G01*
X2927799Y-1890660D01*
X2931520Y-1889660D01*
X2935040Y-1888040D01*
X2937200Y-1886579D01*
X2941760Y-1884400D01*
X2943480Y-1884019D01*
X2984400Y-1884019D01*
X2986120Y-1884400D01*
X2990680Y-1886579D01*
X2992840Y-1888040D01*
X2996360Y-1889660D01*
X3000080Y-1890660D01*
X3003940Y-1891000D01*
X3007799Y-1890660D01*
X3011520Y-1889660D01*
X3015040Y-1888040D01*
X3018200Y-1885820D01*
X3020940Y-1883080D01*
X3023159Y-1879920D01*
X3024780Y-1876399D01*
X3025779Y-1872680D01*
X3026120Y-1868820D01*
X3025779Y-1864960D01*
X3024780Y-1861240D01*
X3023159Y-1857720D01*
X3020940Y-1854560D01*
X3018200Y-1851819D01*
X3015040Y-1849600D01*
X3011520Y-1847980D01*
X3007799Y-1846980D01*
X3003940Y-1846639D01*
X3000080Y-1846980D01*
X2996360Y-1847980D01*
X2992840Y-1849600D01*
X2990680Y-1851060D01*
X2986120Y-1853220D01*
X2984400Y-1853620D01*
X2943480Y-1853620D01*
X2941760Y-1853220D01*
X2937200Y-1851060D01*
X2935040Y-1849600D01*
X2931520Y-1847980D01*
X2927799Y-1846980D01*
X2923940Y-1846639D01*
X2920080Y-1846980D01*
X2916360Y-1847980D01*
X2912840Y-1849600D01*
X2909680Y-1851819D01*
X2906940Y-1854560D01*
X2904720Y-1857720D01*
X2903100Y-1861240D01*
X2902100Y-1864960D01*
X2901760Y-1868820D01*
X2902100Y-1872680D01*
X2903100Y-1876399D01*
X2904720Y-1879920D01*
X2906940Y-1883080D01*
X2909680Y-1885820D01*
X2912840Y-1888040D01*
X2916360Y-1889660D01*
X2920080Y-1890660D01*
G37*
G36*
X3473940Y-1891000D02*
G01*
X3477799Y-1890660D01*
X3481520Y-1889660D01*
X3485040Y-1888040D01*
X3487200Y-1886579D01*
X3491760Y-1884400D01*
X3493480Y-1884019D01*
X3534400Y-1884019D01*
X3536120Y-1884400D01*
X3540680Y-1886579D01*
X3542840Y-1888040D01*
X3546360Y-1889660D01*
X3550080Y-1890660D01*
X3553940Y-1891000D01*
X3557799Y-1890660D01*
X3561520Y-1889660D01*
X3565040Y-1888040D01*
X3568200Y-1885820D01*
X3570940Y-1883080D01*
X3573159Y-1879920D01*
X3574780Y-1876399D01*
X3575779Y-1872680D01*
X3576120Y-1868820D01*
X3575779Y-1864960D01*
X3574780Y-1861240D01*
X3573159Y-1857720D01*
X3570940Y-1854560D01*
X3568200Y-1851819D01*
X3565040Y-1849600D01*
X3561520Y-1847980D01*
X3557799Y-1846980D01*
X3553940Y-1846639D01*
X3550080Y-1846980D01*
X3546360Y-1847980D01*
X3542840Y-1849600D01*
X3540680Y-1851060D01*
X3536120Y-1853220D01*
X3534400Y-1853620D01*
X3493480Y-1853620D01*
X3491760Y-1853220D01*
X3487200Y-1851060D01*
X3485040Y-1849600D01*
X3481520Y-1847980D01*
X3477799Y-1846980D01*
X3473940Y-1846639D01*
X3470080Y-1846980D01*
X3466360Y-1847980D01*
X3462840Y-1849600D01*
X3459680Y-1851819D01*
X3456940Y-1854560D01*
X3454720Y-1857720D01*
X3453100Y-1861240D01*
X3452100Y-1864960D01*
X3451760Y-1868820D01*
X3452100Y-1872680D01*
X3453100Y-1876399D01*
X3454720Y-1879920D01*
X3456940Y-1883080D01*
X3459680Y-1885820D01*
X3462840Y-1888040D01*
X3466360Y-1889660D01*
X3470080Y-1890660D01*
G37*
G36*
X2373940Y-1891000D02*
G01*
X2377800Y-1890660D01*
X2381520Y-1889660D01*
X2385040Y-1888040D01*
X2387200Y-1886579D01*
X2391760Y-1884400D01*
X2393480Y-1884019D01*
X2434400Y-1884019D01*
X2436120Y-1884400D01*
X2440680Y-1886579D01*
X2442840Y-1888040D01*
X2446360Y-1889660D01*
X2450080Y-1890660D01*
X2453940Y-1891000D01*
X2457800Y-1890660D01*
X2461520Y-1889660D01*
X2465040Y-1888040D01*
X2468200Y-1885820D01*
X2470940Y-1883080D01*
X2473160Y-1879920D01*
X2474780Y-1876399D01*
X2475780Y-1872680D01*
X2476120Y-1868820D01*
X2475780Y-1864960D01*
X2474780Y-1861240D01*
X2473160Y-1857720D01*
X2470940Y-1854560D01*
X2468200Y-1851819D01*
X2465040Y-1849600D01*
X2461520Y-1847980D01*
X2457800Y-1846980D01*
X2453940Y-1846639D01*
X2450080Y-1846980D01*
X2446360Y-1847980D01*
X2442840Y-1849600D01*
X2440680Y-1851060D01*
X2436120Y-1853220D01*
X2434400Y-1853620D01*
X2393480Y-1853620D01*
X2391760Y-1853220D01*
X2387200Y-1851060D01*
X2385040Y-1849600D01*
X2381520Y-1847980D01*
X2377800Y-1846980D01*
X2373940Y-1846639D01*
X2370080Y-1846980D01*
X2366360Y-1847980D01*
X2362840Y-1849600D01*
X2359680Y-1851819D01*
X2356940Y-1854560D01*
X2354720Y-1857720D01*
X2353100Y-1861240D01*
X2352100Y-1864960D01*
X2351760Y-1868820D01*
X2352100Y-1872680D01*
X2353100Y-1876399D01*
X2354720Y-1879920D01*
X2356940Y-1883080D01*
X2359680Y-1885820D01*
X2362840Y-1888040D01*
X2366360Y-1889660D01*
X2370080Y-1890660D01*
G37*
G36*
X378940Y-1906000D02*
G01*
X382800Y-1905660D01*
X386520Y-1904660D01*
X390040Y-1903040D01*
X393200Y-1900820D01*
X395940Y-1898080D01*
X398160Y-1894920D01*
X399780Y-1891399D01*
X400780Y-1887680D01*
X401120Y-1883820D01*
X400780Y-1879960D01*
X399780Y-1876240D01*
X398160Y-1872720D01*
X396700Y-1870560D01*
X394520Y-1866000D01*
X394140Y-1864280D01*
X394140Y-1756780D01*
X394440Y-1755240D01*
X395319Y-1753940D01*
X549060Y-1600180D01*
X550360Y-1599319D01*
X551900Y-1599019D01*
X678139Y-1599019D01*
X679780Y-1599360D01*
X681140Y-1600360D01*
X681960Y-1601819D01*
X682120Y-1603480D01*
X681580Y-1605060D01*
X680440Y-1606300D01*
X679680Y-1606819D01*
X676940Y-1609560D01*
X674720Y-1612720D01*
X673100Y-1616240D01*
X672099Y-1619960D01*
X671760Y-1623820D01*
X672099Y-1627680D01*
X673100Y-1631399D01*
X674720Y-1634920D01*
X676940Y-1638080D01*
X679680Y-1640820D01*
X682840Y-1643040D01*
X686360Y-1644660D01*
X690080Y-1645660D01*
X693940Y-1646000D01*
X697800Y-1645660D01*
X701520Y-1644660D01*
X705040Y-1643040D01*
X707200Y-1641579D01*
X711760Y-1639400D01*
X713480Y-1639019D01*
X960980Y-1639019D01*
X962520Y-1639319D01*
X963820Y-1640180D01*
X1018060Y-1694420D01*
X1020500Y-1696440D01*
X1023120Y-1697840D01*
X1025980Y-1698700D01*
X1029140Y-1699019D01*
X1680980Y-1699019D01*
X1682520Y-1699319D01*
X1683820Y-1700180D01*
X1773060Y-1789420D01*
X1775500Y-1791440D01*
X1778120Y-1792840D01*
X1780980Y-1793700D01*
X1784139Y-1794019D01*
X2543740Y-1794019D01*
X2546900Y-1793700D01*
X2549740Y-1792840D01*
X2552380Y-1791440D01*
X2554820Y-1789420D01*
X2679540Y-1664700D01*
X2681560Y-1662260D01*
X2682960Y-1659620D01*
X2683820Y-1656780D01*
X2684140Y-1653620D01*
X2684140Y-1423360D01*
X2684520Y-1421639D01*
X2686700Y-1417080D01*
X2688159Y-1414920D01*
X2689780Y-1411399D01*
X2690779Y-1407680D01*
X2691120Y-1403820D01*
X2690779Y-1399960D01*
X2689780Y-1396240D01*
X2688159Y-1392720D01*
X2685940Y-1389560D01*
X2683200Y-1386819D01*
X2680040Y-1384600D01*
X2676520Y-1382980D01*
X2672799Y-1381980D01*
X2668940Y-1381639D01*
X2665080Y-1381980D01*
X2661360Y-1382980D01*
X2657840Y-1384600D01*
X2654680Y-1386819D01*
X2651940Y-1389560D01*
X2649720Y-1392720D01*
X2648100Y-1396240D01*
X2647799Y-1397320D01*
X2647000Y-1398839D01*
X2645640Y-1399900D01*
X2643940Y-1400280D01*
X2642240Y-1399900D01*
X2640880Y-1398839D01*
X2640080Y-1397320D01*
X2639780Y-1396240D01*
X2638159Y-1392720D01*
X2635940Y-1389560D01*
X2633200Y-1386819D01*
X2630040Y-1384600D01*
X2626520Y-1382980D01*
X2622799Y-1381980D01*
X2618940Y-1381639D01*
X2615080Y-1381980D01*
X2611360Y-1382980D01*
X2607840Y-1384600D01*
X2604680Y-1386819D01*
X2601940Y-1389560D01*
X2599720Y-1392720D01*
X2598100Y-1396240D01*
X2596880Y-1401000D01*
X2595320Y-1405400D01*
X2594380Y-1406879D01*
X2573820Y-1427440D01*
X2572520Y-1428320D01*
X2570980Y-1428620D01*
X2554140Y-1428620D01*
X2550980Y-1428920D01*
X2548120Y-1429800D01*
X2545500Y-1431200D01*
X2543060Y-1433200D01*
X2368820Y-1607440D01*
X2367520Y-1608320D01*
X2365980Y-1608620D01*
X2363480Y-1608620D01*
X2361760Y-1608220D01*
X2357200Y-1606060D01*
X2355040Y-1604600D01*
X2351520Y-1602980D01*
X2347800Y-1601980D01*
X2343940Y-1601639D01*
X2340080Y-1601980D01*
X2336360Y-1602980D01*
X2332840Y-1604600D01*
X2329680Y-1606819D01*
X2326940Y-1609560D01*
X2324720Y-1612720D01*
X2323100Y-1616240D01*
X2322100Y-1619960D01*
X2321760Y-1623820D01*
X2322100Y-1627680D01*
X2323100Y-1631399D01*
X2324720Y-1634920D01*
X2326940Y-1638080D01*
X2329680Y-1640820D01*
X2332840Y-1643040D01*
X2336360Y-1644660D01*
X2340080Y-1645660D01*
X2343940Y-1646000D01*
X2347800Y-1645660D01*
X2351520Y-1644660D01*
X2355040Y-1643040D01*
X2357200Y-1641579D01*
X2361760Y-1639400D01*
X2363480Y-1639019D01*
X2373740Y-1639019D01*
X2376900Y-1638700D01*
X2379740Y-1637840D01*
X2382380Y-1636440D01*
X2384820Y-1634420D01*
X2559060Y-1460180D01*
X2560360Y-1459319D01*
X2561900Y-1459019D01*
X2578740Y-1459019D01*
X2579840Y-1458899D01*
X2581500Y-1459100D01*
X2582940Y-1459940D01*
X2583920Y-1461320D01*
X2584240Y-1462960D01*
X2583860Y-1464580D01*
X2583100Y-1466240D01*
X2582100Y-1469960D01*
X2581760Y-1473820D01*
X2582100Y-1477680D01*
X2583100Y-1481399D01*
X2584720Y-1484920D01*
X2586180Y-1487080D01*
X2588360Y-1491639D01*
X2588740Y-1493360D01*
X2588740Y-1650860D01*
X2588440Y-1652400D01*
X2587559Y-1653700D01*
X2518820Y-1722440D01*
X2517520Y-1723320D01*
X2515980Y-1723620D01*
X1888500Y-1723620D01*
X1886900Y-1723280D01*
X1885580Y-1722340D01*
X1884720Y-1720940D01*
X1884520Y-1719319D01*
X1884960Y-1717740D01*
X1886020Y-1716500D01*
X1887460Y-1715760D01*
X1891519Y-1714660D01*
X1895040Y-1713040D01*
X1898200Y-1710820D01*
X1900940Y-1708080D01*
X1903160Y-1704920D01*
X1904780Y-1701399D01*
X1905780Y-1697680D01*
X1906120Y-1693820D01*
X1905780Y-1689960D01*
X1904780Y-1686240D01*
X1903160Y-1682720D01*
X1901699Y-1680560D01*
X1899520Y-1676000D01*
X1899139Y-1674280D01*
X1899139Y-1661780D01*
X1899440Y-1660240D01*
X1900320Y-1658940D01*
X2094540Y-1464700D01*
X2096560Y-1462260D01*
X2097960Y-1459620D01*
X2098820Y-1456780D01*
X2099140Y-1453620D01*
X2099140Y-1413360D01*
X2099520Y-1411639D01*
X2101700Y-1407080D01*
X2103160Y-1404920D01*
X2104780Y-1401399D01*
X2105780Y-1397680D01*
X2106120Y-1393820D01*
X2105780Y-1389960D01*
X2104780Y-1386240D01*
X2103160Y-1382720D01*
X2100940Y-1379560D01*
X2098200Y-1376819D01*
X2095040Y-1374600D01*
X2091519Y-1372980D01*
X2087800Y-1371980D01*
X2083940Y-1371639D01*
X2080080Y-1371980D01*
X2076360Y-1372980D01*
X2072840Y-1374600D01*
X2069680Y-1376819D01*
X2066940Y-1379560D01*
X2064720Y-1382720D01*
X2063100Y-1386240D01*
X2062800Y-1387320D01*
X2062000Y-1388839D01*
X2060640Y-1389900D01*
X2058940Y-1390280D01*
X2057240Y-1389900D01*
X2055880Y-1388839D01*
X2055080Y-1387320D01*
X2054780Y-1386240D01*
X2053160Y-1382720D01*
X2050940Y-1379560D01*
X2048200Y-1376819D01*
X2045040Y-1374600D01*
X2041519Y-1372980D01*
X2037800Y-1371980D01*
X2033940Y-1371639D01*
X2030080Y-1371980D01*
X2026360Y-1372980D01*
X2022840Y-1374600D01*
X2019680Y-1376819D01*
X2016940Y-1379560D01*
X2014720Y-1382720D01*
X2013100Y-1386240D01*
X2012800Y-1387320D01*
X2012000Y-1388839D01*
X2010640Y-1389900D01*
X2008940Y-1390280D01*
X2007240Y-1389900D01*
X2005880Y-1388839D01*
X2005080Y-1387320D01*
X2004780Y-1386240D01*
X2003160Y-1382720D01*
X2000940Y-1379560D01*
X1998200Y-1376819D01*
X1995040Y-1374600D01*
X1991519Y-1372980D01*
X1987800Y-1371980D01*
X1983940Y-1371639D01*
X1980080Y-1371980D01*
X1976360Y-1372980D01*
X1972840Y-1374600D01*
X1969680Y-1376819D01*
X1966940Y-1379560D01*
X1964720Y-1382720D01*
X1963100Y-1386240D01*
X1962100Y-1389960D01*
X1961759Y-1393820D01*
X1962100Y-1397680D01*
X1963100Y-1401399D01*
X1964720Y-1404920D01*
X1966180Y-1407080D01*
X1968360Y-1411639D01*
X1968740Y-1413360D01*
X1968740Y-1450860D01*
X1968440Y-1452400D01*
X1967560Y-1453700D01*
X1958820Y-1462440D01*
X1957520Y-1463320D01*
X1955980Y-1463620D01*
X984140Y-1463620D01*
X980980Y-1463920D01*
X978120Y-1464800D01*
X975500Y-1466200D01*
X973060Y-1468200D01*
X887000Y-1554259D01*
X885520Y-1555200D01*
X881120Y-1556759D01*
X876360Y-1557980D01*
X872840Y-1559600D01*
X869680Y-1561819D01*
X866940Y-1564560D01*
X864720Y-1567720D01*
X863100Y-1571240D01*
X862099Y-1574960D01*
X861760Y-1578820D01*
X862099Y-1582680D01*
X863100Y-1586399D01*
X864720Y-1589920D01*
X866940Y-1593080D01*
X869680Y-1595820D01*
X872840Y-1598040D01*
X876360Y-1599660D01*
X880420Y-1600760D01*
X881860Y-1601500D01*
X882920Y-1602740D01*
X883360Y-1604319D01*
X883160Y-1605940D01*
X882300Y-1607340D01*
X880980Y-1608280D01*
X879380Y-1608620D01*
X713480Y-1608620D01*
X711760Y-1608220D01*
X708400Y-1606620D01*
X707180Y-1605720D01*
X706380Y-1604420D01*
X706120Y-1602900D01*
X706460Y-1601399D01*
X707340Y-1600140D01*
X708620Y-1599319D01*
X710120Y-1599019D01*
X738740Y-1599019D01*
X741900Y-1598700D01*
X744740Y-1597840D01*
X747380Y-1596440D01*
X749820Y-1594420D01*
X1264540Y-1079700D01*
X1266560Y-1077260D01*
X1267960Y-1074620D01*
X1268820Y-1071780D01*
X1269140Y-1068620D01*
X1269140Y-968360D01*
X1269520Y-966640D01*
X1271700Y-962080D01*
X1273160Y-959920D01*
X1274780Y-956400D01*
X1275780Y-952680D01*
X1276120Y-948820D01*
X1275780Y-944960D01*
X1274780Y-941240D01*
X1273160Y-937720D01*
X1270940Y-934560D01*
X1268200Y-931820D01*
X1265040Y-929599D01*
X1261520Y-927980D01*
X1257800Y-926979D01*
X1253940Y-926640D01*
X1250080Y-926979D01*
X1246360Y-927980D01*
X1242840Y-929599D01*
X1239680Y-931820D01*
X1236940Y-934560D01*
X1234720Y-937720D01*
X1233100Y-941240D01*
X1232100Y-944960D01*
X1231760Y-948820D01*
X1232100Y-952680D01*
X1233100Y-956400D01*
X1234720Y-959920D01*
X1236180Y-962080D01*
X1238360Y-966640D01*
X1238740Y-968360D01*
X1238740Y-1060860D01*
X1238440Y-1062400D01*
X1237560Y-1063700D01*
X733820Y-1567440D01*
X732520Y-1568320D01*
X730980Y-1568620D01*
X719740Y-1568620D01*
X718100Y-1568260D01*
X716760Y-1567280D01*
X715920Y-1565820D01*
X715759Y-1564160D01*
X716300Y-1562560D01*
X717440Y-1561339D01*
X718199Y-1560820D01*
X720939Y-1558080D01*
X723160Y-1554920D01*
X724780Y-1551399D01*
X725780Y-1547680D01*
X726120Y-1543820D01*
X725780Y-1539960D01*
X724780Y-1536240D01*
X723160Y-1532720D01*
X720939Y-1529560D01*
X718199Y-1526819D01*
X715040Y-1524600D01*
X711520Y-1522980D01*
X710440Y-1522680D01*
X708920Y-1521879D01*
X707860Y-1520520D01*
X707480Y-1518820D01*
X707860Y-1517120D01*
X708920Y-1515760D01*
X710440Y-1514960D01*
X711520Y-1514660D01*
X715040Y-1513040D01*
X718199Y-1510820D01*
X720939Y-1508080D01*
X723160Y-1504920D01*
X724780Y-1501399D01*
X725780Y-1497680D01*
X726120Y-1493820D01*
X725780Y-1489960D01*
X724780Y-1486240D01*
X723160Y-1482720D01*
X720939Y-1479560D01*
X718199Y-1476819D01*
X715040Y-1474600D01*
X711520Y-1472980D01*
X707800Y-1471980D01*
X703940Y-1471639D01*
X700080Y-1471980D01*
X696360Y-1472980D01*
X692840Y-1474600D01*
X689680Y-1476819D01*
X686940Y-1479560D01*
X684720Y-1482720D01*
X683100Y-1486240D01*
X682800Y-1487320D01*
X682000Y-1488839D01*
X680639Y-1489900D01*
X678940Y-1490280D01*
X677240Y-1489900D01*
X675879Y-1488839D01*
X675080Y-1487320D01*
X674780Y-1486240D01*
X673160Y-1482720D01*
X670939Y-1479560D01*
X668199Y-1476819D01*
X665040Y-1474600D01*
X661520Y-1472980D01*
X657800Y-1471980D01*
X653940Y-1471639D01*
X650080Y-1471980D01*
X646360Y-1472980D01*
X642840Y-1474600D01*
X639680Y-1476819D01*
X636940Y-1479560D01*
X634720Y-1482720D01*
X633100Y-1486240D01*
X632800Y-1487320D01*
X632000Y-1488839D01*
X630640Y-1489900D01*
X628940Y-1490280D01*
X627240Y-1489900D01*
X625880Y-1488839D01*
X625080Y-1487320D01*
X624780Y-1486240D01*
X623160Y-1482720D01*
X620940Y-1479560D01*
X618200Y-1476819D01*
X615040Y-1474600D01*
X611520Y-1472980D01*
X607800Y-1471980D01*
X603940Y-1471639D01*
X600080Y-1471980D01*
X596360Y-1472980D01*
X592840Y-1474600D01*
X589680Y-1476819D01*
X586940Y-1479560D01*
X584720Y-1482720D01*
X583100Y-1486240D01*
X582800Y-1487320D01*
X582000Y-1488839D01*
X580640Y-1489900D01*
X578940Y-1490280D01*
X577240Y-1489900D01*
X575880Y-1488839D01*
X575080Y-1487320D01*
X574780Y-1486240D01*
X573160Y-1482720D01*
X570940Y-1479560D01*
X568200Y-1476819D01*
X565040Y-1474600D01*
X561520Y-1472980D01*
X557800Y-1471980D01*
X553940Y-1471639D01*
X550080Y-1471980D01*
X546360Y-1472980D01*
X542840Y-1474600D01*
X539680Y-1476819D01*
X536940Y-1479560D01*
X534720Y-1482720D01*
X533100Y-1486240D01*
X532100Y-1489960D01*
X531760Y-1493820D01*
X532100Y-1497680D01*
X533100Y-1501399D01*
X534720Y-1504920D01*
X536940Y-1508080D01*
X539680Y-1510820D01*
X542840Y-1513040D01*
X546360Y-1514660D01*
X547440Y-1514960D01*
X548960Y-1515760D01*
X550020Y-1517120D01*
X550400Y-1518820D01*
X550020Y-1520520D01*
X548960Y-1521879D01*
X547440Y-1522680D01*
X546360Y-1522980D01*
X542840Y-1524600D01*
X539680Y-1526819D01*
X536940Y-1529560D01*
X534720Y-1532720D01*
X533100Y-1536240D01*
X532100Y-1539960D01*
X531760Y-1543820D01*
X532100Y-1547680D01*
X533100Y-1551399D01*
X534720Y-1554920D01*
X536940Y-1558080D01*
X539680Y-1560820D01*
X541420Y-1562040D01*
X542620Y-1563340D01*
X543120Y-1565040D01*
X542840Y-1566800D01*
X541820Y-1568260D01*
X540280Y-1569139D01*
X538120Y-1569800D01*
X535500Y-1571200D01*
X533060Y-1573200D01*
X368320Y-1737940D01*
X366320Y-1740380D01*
X364920Y-1743000D01*
X364060Y-1745860D01*
X363740Y-1749019D01*
X363740Y-1864280D01*
X363360Y-1866000D01*
X361180Y-1870560D01*
X359720Y-1872720D01*
X358100Y-1876240D01*
X357100Y-1879960D01*
X356760Y-1883820D01*
X357100Y-1887680D01*
X358100Y-1891399D01*
X359720Y-1894920D01*
X361940Y-1898080D01*
X364680Y-1900820D01*
X367840Y-1903040D01*
X371360Y-1904660D01*
X375080Y-1905660D01*
G37*

%LPD*%
G36*
X1821900Y-1723620D02*
G01*
X1820360Y-1723320D01*
X1819060Y-1722440D01*
X1815320Y-1718700D01*
X1814440Y-1717400D01*
X1814139Y-1715860D01*
X1814139Y-1643360D01*
X1814520Y-1641639D01*
X1816699Y-1637080D01*
X1818160Y-1634920D01*
X1819780Y-1631399D01*
X1820780Y-1627680D01*
X1821120Y-1623820D01*
X1820780Y-1619960D01*
X1819780Y-1616240D01*
X1818160Y-1612720D01*
X1815940Y-1609560D01*
X1813200Y-1606819D01*
X1810040Y-1604600D01*
X1806519Y-1602980D01*
X1802800Y-1601980D01*
X1798940Y-1601639D01*
X1795080Y-1601980D01*
X1791360Y-1602980D01*
X1787840Y-1604600D01*
X1784680Y-1606819D01*
X1781940Y-1609560D01*
X1779720Y-1612720D01*
X1778100Y-1616240D01*
X1777100Y-1619960D01*
X1776759Y-1623820D01*
X1777100Y-1627680D01*
X1778100Y-1631399D01*
X1779720Y-1634920D01*
X1781180Y-1637080D01*
X1783360Y-1641639D01*
X1783740Y-1643360D01*
X1783740Y-1712460D01*
X1783440Y-1714000D01*
X1782560Y-1715300D01*
X1781260Y-1716160D01*
X1779740Y-1716459D01*
X1778200Y-1716160D01*
X1776920Y-1715300D01*
X1714820Y-1653200D01*
X1712380Y-1651200D01*
X1709740Y-1649800D01*
X1706900Y-1648920D01*
X1703740Y-1648620D01*
X1271900Y-1648620D01*
X1270360Y-1648320D01*
X1269060Y-1647440D01*
X1265320Y-1643700D01*
X1264440Y-1642400D01*
X1264140Y-1640860D01*
X1264140Y-1638360D01*
X1264520Y-1636639D01*
X1266700Y-1632080D01*
X1268160Y-1629920D01*
X1269780Y-1626399D01*
X1270780Y-1622680D01*
X1271120Y-1618820D01*
X1270780Y-1614960D01*
X1269780Y-1611240D01*
X1268160Y-1607720D01*
X1265940Y-1604560D01*
X1263200Y-1601819D01*
X1260040Y-1599600D01*
X1256520Y-1597980D01*
X1252800Y-1596980D01*
X1248940Y-1596639D01*
X1245080Y-1596980D01*
X1241360Y-1597980D01*
X1237840Y-1599600D01*
X1234680Y-1601819D01*
X1231940Y-1604560D01*
X1229720Y-1607720D01*
X1228100Y-1611240D01*
X1227100Y-1614960D01*
X1226760Y-1618820D01*
X1227100Y-1622680D01*
X1228100Y-1626399D01*
X1229720Y-1629920D01*
X1231180Y-1632080D01*
X1233360Y-1636639D01*
X1233740Y-1638360D01*
X1233740Y-1648620D01*
X1234040Y-1651780D01*
X1234920Y-1654620D01*
X1236320Y-1657260D01*
X1238320Y-1659700D01*
X1240420Y-1661780D01*
X1241280Y-1663080D01*
X1241580Y-1664620D01*
X1241280Y-1666140D01*
X1240420Y-1667440D01*
X1239120Y-1668320D01*
X1237580Y-1668620D01*
X1036900Y-1668620D01*
X1035360Y-1668320D01*
X1034060Y-1667440D01*
X979820Y-1613200D01*
X977380Y-1611200D01*
X974740Y-1609800D01*
X971900Y-1608920D01*
X968740Y-1608620D01*
X888500Y-1608620D01*
X886900Y-1608280D01*
X885580Y-1607340D01*
X884720Y-1605940D01*
X884520Y-1604319D01*
X884960Y-1602740D01*
X886020Y-1601500D01*
X887460Y-1600760D01*
X891520Y-1599660D01*
X895040Y-1598040D01*
X898199Y-1595820D01*
X900939Y-1593080D01*
X903160Y-1589920D01*
X904780Y-1586399D01*
X906000Y-1581639D01*
X907560Y-1577240D01*
X908500Y-1575740D01*
X989060Y-1495180D01*
X990360Y-1494319D01*
X991900Y-1494019D01*
X1372580Y-1494019D01*
X1374120Y-1494319D01*
X1375420Y-1495180D01*
X1376279Y-1496480D01*
X1376579Y-1498020D01*
X1376279Y-1499540D01*
X1375420Y-1500840D01*
X1337000Y-1539259D01*
X1335520Y-1540200D01*
X1331120Y-1541759D01*
X1326360Y-1542980D01*
X1322840Y-1544600D01*
X1319680Y-1546819D01*
X1316940Y-1549560D01*
X1314720Y-1552720D01*
X1313100Y-1556240D01*
X1312100Y-1559960D01*
X1311759Y-1563820D01*
X1312100Y-1567680D01*
X1313100Y-1571399D01*
X1314720Y-1574920D01*
X1316940Y-1578080D01*
X1319680Y-1580820D01*
X1322840Y-1583040D01*
X1326360Y-1584660D01*
X1330080Y-1585660D01*
X1333940Y-1586000D01*
X1337800Y-1585660D01*
X1341519Y-1584660D01*
X1345040Y-1583040D01*
X1348200Y-1580820D01*
X1350940Y-1578080D01*
X1353160Y-1574920D01*
X1354780Y-1571399D01*
X1356000Y-1566639D01*
X1357560Y-1562240D01*
X1358500Y-1560740D01*
X1394060Y-1525180D01*
X1395360Y-1524319D01*
X1396900Y-1524019D01*
X1978740Y-1524019D01*
X1983660Y-1523580D01*
X1985300Y-1524199D01*
X1986500Y-1525480D01*
X1987060Y-1527140D01*
X1986840Y-1528880D01*
X1985900Y-1530360D01*
X1873320Y-1642940D01*
X1871320Y-1645380D01*
X1869920Y-1648000D01*
X1869060Y-1650860D01*
X1868740Y-1654019D01*
X1868740Y-1674280D01*
X1868360Y-1676000D01*
X1866180Y-1680560D01*
X1864720Y-1682720D01*
X1863100Y-1686240D01*
X1862100Y-1689960D01*
X1861759Y-1693820D01*
X1862100Y-1697680D01*
X1863100Y-1701399D01*
X1864720Y-1704920D01*
X1866940Y-1708080D01*
X1869680Y-1710820D01*
X1872840Y-1713040D01*
X1876360Y-1714660D01*
X1880420Y-1715760D01*
X1881860Y-1716500D01*
X1882920Y-1717740D01*
X1883360Y-1719319D01*
X1883160Y-1720940D01*
X1882300Y-1722340D01*
X1880980Y-1723280D01*
X1879379Y-1723620D01*
G37*

%LPD*%
G36*
X1456260Y-361420D02*
G01*
X1417880Y-361480D01*
X1432100Y-379380D01*
X1442100Y-379360D01*
G37*
G36*
X1377460Y-361420D02*
G01*
X1339079Y-361480D01*
X1353300Y-379380D01*
X1363300Y-379360D01*
G37*
G36*
X1416860Y-262920D02*
G01*
X1378480Y-262980D01*
X1392700Y-280880D01*
X1402700Y-280860D01*
G37*
G36*
X2722180Y-479360D02*
G01*
X2747100Y-526300D01*
X2759000Y-495820D01*
X2754100Y-486580D01*
G37*
G36*
X2779940Y-403880D02*
G01*
X2770419Y-435260D01*
X2775899Y-443920D01*
X2808320Y-448800D01*
G37*
G36*
X2690500Y-387239D02*
G01*
X2665700Y-408820D01*
X2665700Y-418820D01*
X2690500Y-440400D01*
G37*
G36*
X2783360Y-276180D02*
G01*
X2776300Y-283240D01*
X2778580Y-316040D01*
X2816160Y-278460D01*
G37*
G36*
X2973580Y-311600D02*
G01*
X2971300Y-344400D01*
X2978360Y-351460D01*
X3011160Y-349180D01*
G37*
G36*
X3266000Y-1484820D02*
G01*
X3257600Y-1488820D01*
X3257600Y-1498820D01*
X3266000Y-1502820D01*
G37*
G36*
X2713940Y-1017560D02*
G01*
X2709940Y-1025960D01*
X2727940Y-1025960D01*
X2723940Y-1017560D01*
G37*
G36*
X2566000Y-949820D02*
G01*
X2557600Y-953820D01*
X2557600Y-963820D01*
X2566000Y-967820D01*
G37*
G36*
X3307060Y-1331000D02*
G01*
X3298660Y-1335000D01*
X3298660Y-1345000D01*
X3307060Y-1349000D01*
G37*
G36*
X2997600Y-1226740D02*
G01*
X2981600Y-1235000D01*
X2988800Y-1240740D01*
X2998120Y-1235920D01*
G37*
G36*
X2997600Y-1226740D02*
G01*
X2981600Y-1235000D01*
X2988800Y-1240740D01*
X2998120Y-1235920D01*
G37*
G36*
X1058900Y-952480D02*
G01*
X1048900Y-952500D01*
X1044920Y-960900D01*
X1062920Y-960860D01*
G37*
G36*
X1008900Y-952480D02*
G01*
X998900Y-952500D01*
X994920Y-960900D01*
X1012920Y-960860D01*
G37*
G36*
X2390920Y-1313740D02*
G01*
X2383860Y-1320800D01*
X2386960Y-1329580D01*
X2399700Y-1316840D01*
G37*
G36*
X2334940Y-1062900D02*
G01*
X2338940Y-1071300D01*
X2348940Y-1071300D01*
X2352940Y-1062900D01*
G37*
G36*
X2351960Y-988740D02*
G01*
X2343180Y-991840D01*
X2355920Y-1004580D01*
X2359020Y-995800D01*
G37*
G36*
X1791960Y-1248740D02*
G01*
X1783180Y-1251840D01*
X1795920Y-1264580D01*
X1799019Y-1255800D01*
G37*
G36*
X2251000Y-1044820D02*
G01*
X2242600Y-1048820D01*
X2242600Y-1058820D01*
X2251000Y-1062820D01*
G37*
G36*
X2404940Y-1096760D02*
G01*
X2408940Y-1105160D01*
X2418940Y-1105160D01*
X2422940Y-1096760D01*
G37*
G36*
X2481600Y-1244400D02*
G01*
X2474520Y-1251460D01*
X2477640Y-1260240D01*
X2490360Y-1247520D01*
G37*
G36*
X2256000Y-994820D02*
G01*
X2247600Y-998820D01*
X2247600Y-1008820D01*
X2256000Y-1012820D01*
G37*
G36*
X2408940Y-879560D02*
G01*
X2404940Y-887960D01*
X2422940Y-887960D01*
X2418940Y-879560D01*
G37*
G36*
X1841960Y-1248740D02*
G01*
X1833180Y-1251840D01*
X1845920Y-1264580D01*
X1849019Y-1255800D01*
G37*
G36*
X2510920Y-1188060D02*
G01*
X2498200Y-1200800D01*
X2506960Y-1203900D01*
X2514020Y-1196840D01*
G37*
G36*
X2560920Y-1243740D02*
G01*
X2553860Y-1250800D01*
X2556960Y-1259580D01*
X2569700Y-1246840D01*
G37*
G36*
X1891960Y-1248740D02*
G01*
X1883180Y-1251840D01*
X1895920Y-1264580D01*
X1899019Y-1255800D01*
G37*
G36*
X2368940Y-922480D02*
G01*
X2364940Y-930879D01*
X2382940Y-930879D01*
X2378940Y-922480D01*
G37*
G36*
X2491960Y-563740D02*
G01*
X2483180Y-566840D01*
X2495920Y-579580D01*
X2499020Y-570800D01*
G37*
G36*
X2416960Y-578740D02*
G01*
X2408180Y-581840D01*
X2420920Y-594580D01*
X2424020Y-585800D01*
G37*
G36*
X2391880Y-434820D02*
G01*
X2391880Y-452819D01*
X2400280Y-448820D01*
X2400280Y-438820D01*
G37*
G36*
X2449940Y-741760D02*
G01*
X2453940Y-750160D01*
X2463940Y-750160D01*
X2467940Y-741760D01*
G37*
G36*
X2404940Y-741760D02*
G01*
X2408940Y-750160D01*
X2418940Y-750160D01*
X2422940Y-741760D01*
G37*
G36*
X2421960Y-718740D02*
G01*
X2413180Y-721840D01*
X2425920Y-734580D01*
X2429020Y-725800D01*
G37*
G36*
X2379940Y-738620D02*
G01*
X2362800Y-744140D01*
X2368940Y-750980D01*
X2378940Y-747760D01*
G37*
G36*
X1981879Y-1019820D02*
G01*
X1981879Y-1037820D01*
X1990280Y-1033820D01*
X1990280Y-1023820D01*
G37*
G36*
X2830920Y-1183060D02*
G01*
X2818200Y-1195800D01*
X2826960Y-1198900D01*
X2834020Y-1191840D01*
G37*
G36*
X2594940Y-1481759D02*
G01*
X2598940Y-1490160D01*
X2608940Y-1490160D01*
X2612940Y-1481759D01*
G37*
G36*
X2629940Y-1456759D02*
G01*
X2633940Y-1465160D01*
X2643940Y-1465160D01*
X2647940Y-1456759D01*
G37*
G36*
X2659940Y-1411759D02*
G01*
X2663940Y-1420160D01*
X2673940Y-1420160D01*
X2677940Y-1411759D01*
G37*
G36*
X2606960Y-1403060D02*
G01*
X2603860Y-1411840D01*
X2610920Y-1418899D01*
X2619700Y-1415800D01*
G37*
G36*
X701880Y-1614820D02*
G01*
X701880Y-1632820D01*
X710280Y-1628820D01*
X710280Y-1618820D01*
G37*
G36*
X891960Y-1563740D02*
G01*
X883180Y-1566840D01*
X895920Y-1579580D01*
X899020Y-1570800D01*
G37*
G36*
X1239940Y-1626759D02*
G01*
X1243940Y-1635160D01*
X1253940Y-1635160D01*
X1257940Y-1626759D01*
G37*
G36*
X1341960Y-1548740D02*
G01*
X1333180Y-1551840D01*
X1345920Y-1564580D01*
X1349019Y-1555800D01*
G37*
G36*
X2124940Y-1431759D02*
G01*
X2128940Y-1440160D01*
X2138940Y-1440160D01*
X2142940Y-1431759D01*
G37*
G36*
X1974940Y-1401759D02*
G01*
X1978940Y-1410160D01*
X1988940Y-1410160D01*
X1992940Y-1401759D01*
G37*
G36*
X2024940Y-1401759D02*
G01*
X2028940Y-1410160D01*
X2038940Y-1410160D01*
X2042940Y-1401759D01*
G37*
G36*
X2074940Y-1401759D02*
G01*
X2078940Y-1410160D01*
X2088940Y-1410160D01*
X2092940Y-1401759D01*
G37*
G36*
X1878940Y-1677480D02*
G01*
X1874940Y-1685880D01*
X1892940Y-1685880D01*
X1888940Y-1677480D01*
G37*
G36*
X1789940Y-1631759D02*
G01*
X1793940Y-1640160D01*
X1803940Y-1640160D01*
X1807940Y-1631759D01*
G37*
G36*
X2426000Y-1679820D02*
G01*
X2417600Y-1683820D01*
X2417600Y-1693820D01*
X2426000Y-1697820D01*
G37*
G36*
X2351880Y-1614820D02*
G01*
X2351880Y-1632820D01*
X2360280Y-1628820D01*
X2360280Y-1618820D01*
G37*
G36*
X2856960Y-1573740D02*
G01*
X2848180Y-1576840D01*
X2860920Y-1589580D01*
X2864020Y-1580800D01*
G37*
G36*
X2228940Y-1247620D02*
G01*
X2224940Y-1256020D01*
X2242940Y-1256020D01*
X2238940Y-1247620D01*
G37*
G36*
X2224940Y-1196700D02*
G01*
X2228940Y-1205100D01*
X2238940Y-1205100D01*
X2242940Y-1196700D01*
G37*
G36*
X1351860Y-889800D02*
G01*
X1351900Y-907800D01*
X1358899Y-903800D01*
X1358899Y-893800D01*
G37*
G36*
X1244940Y-956760D02*
G01*
X1248940Y-965160D01*
X1258940Y-965160D01*
X1262940Y-956760D01*
G37*
G36*
X689940Y-2101760D02*
G01*
X693940Y-2110160D01*
X703940Y-2110160D01*
X707940Y-2101760D01*
G37*
G36*
X2776880Y-1024820D02*
G01*
X2776880Y-1042820D01*
X2785280Y-1038820D01*
X2785280Y-1028820D01*
G37*
G36*
X2676880Y-1049820D02*
G01*
X2676880Y-1067820D01*
X2685280Y-1063820D01*
X2685280Y-1053820D01*
G37*
G36*
X2650920Y-588060D02*
G01*
X2638180Y-600800D01*
X2646960Y-603900D01*
X2654020Y-596840D01*
G37*
G36*
X2650920Y-588060D02*
G01*
X2638200Y-600800D01*
X2646960Y-603900D01*
X2654020Y-596840D01*
G37*
G36*
X2745920Y-633740D02*
G01*
X2738860Y-640800D01*
X2741960Y-649580D01*
X2754700Y-636840D01*
G37*
G36*
X2715059Y-593320D02*
G01*
X2698080Y-599300D01*
X2704120Y-606080D01*
X2714580Y-602400D01*
G37*
G36*
X697420Y-1735500D02*
G01*
X692400Y-1743280D01*
X697920Y-1751920D01*
X707080Y-1750680D01*
G37*
G36*
X2178940Y-1247480D02*
G01*
X2174940Y-1255880D01*
X2192940Y-1255880D01*
X2188940Y-1247480D01*
G37*
G36*
X2174940Y-1196760D02*
G01*
X2176860Y-1203720D01*
X2191020Y-1203720D01*
X2192940Y-1196760D01*
G37*
G36*
X2191820Y-1179780D02*
G01*
X2191940Y-1197780D01*
X2198980Y-1195760D01*
X2198900Y-1181700D01*
G37*
G36*
X1698940Y-1247800D02*
G01*
X1694940Y-1256200D01*
X1712940Y-1256200D01*
X1708940Y-1247800D01*
G37*
G36*
X1694940Y-1197060D02*
G01*
X1698940Y-1205460D01*
X1708940Y-1205460D01*
X1712940Y-1197060D01*
G37*
G36*
X446960Y-1983060D02*
G01*
X443860Y-1991840D01*
X450920Y-1998899D01*
X459680Y-1995800D01*
G37*
G36*
X466960Y-1968740D02*
G01*
X458180Y-1971840D01*
X470920Y-1984560D01*
X474020Y-1975800D01*
G37*
G36*
X483940Y-2242480D02*
G01*
X479940Y-2250880D01*
X497939Y-2250880D01*
X493940Y-2242480D01*
G37*
G36*
X211880Y-2199820D02*
G01*
X211880Y-2217820D01*
X220280Y-2213820D01*
X220280Y-2203820D01*
G37*
G36*
X236880Y-2474820D02*
G01*
X236880Y-2492820D01*
X245280Y-2488820D01*
X245280Y-2478820D01*
G37*
G36*
X373940Y-1867480D02*
G01*
X369940Y-1875880D01*
X387939Y-1875880D01*
X383940Y-1867480D01*
G37*
G36*
X1986960Y-413060D02*
G01*
X1983860Y-421840D01*
X1990920Y-428900D01*
X1999700Y-425800D01*
G37*
G36*
X1863400Y-542280D02*
G01*
X1855620Y-547300D01*
X1870800Y-556960D01*
X1872040Y-547800D01*
G37*
G36*
X3546000Y-2199820D02*
G01*
X3537600Y-2203820D01*
X3537600Y-2213820D01*
X3546000Y-2217820D01*
G37*
G36*
X3011880Y-2199820D02*
G01*
X3011880Y-2217820D01*
X3020280Y-2213820D01*
X3020280Y-2203820D01*
G37*
G36*
X2996000Y-2199820D02*
G01*
X2987600Y-2203820D01*
X2987600Y-2213820D01*
X2996000Y-2217820D01*
G37*
G36*
X2461880Y-2199820D02*
G01*
X2461880Y-2217820D01*
X2470280Y-2213820D01*
X2470280Y-2203820D01*
G37*
G36*
X2446000Y-2199820D02*
G01*
X2437600Y-2203820D01*
X2437600Y-2213820D01*
X2446000Y-2217820D01*
G37*
G36*
X1911879Y-2199820D02*
G01*
X1911879Y-2217820D01*
X1920280Y-2213820D01*
X1920280Y-2203820D01*
G37*
G36*
X1896000Y-2199820D02*
G01*
X1887600Y-2203820D01*
X1887600Y-2213820D01*
X1896000Y-2217820D01*
G37*
G36*
X1361879Y-2199820D02*
G01*
X1361879Y-2217820D01*
X1370280Y-2213820D01*
X1370280Y-2203820D01*
G37*
G36*
X1346000Y-2199820D02*
G01*
X1337600Y-2203820D01*
X1337600Y-2213820D01*
X1346000Y-2217820D01*
G37*
G36*
X811880Y-2199820D02*
G01*
X811880Y-2217820D01*
X820280Y-2213820D01*
X820280Y-2203820D01*
G37*
G36*
X796000Y-2199820D02*
G01*
X787600Y-2203820D01*
X787600Y-2213820D01*
X796000Y-2217820D01*
G37*
G36*
X731880Y-1859820D02*
G01*
X731880Y-1877820D01*
X740280Y-1873820D01*
X740280Y-1863820D01*
G37*
G36*
X796000Y-1859820D02*
G01*
X787600Y-1863820D01*
X787600Y-1873820D01*
X796000Y-1877820D01*
G37*
G36*
X3481880Y-1859820D02*
G01*
X3481880Y-1877820D01*
X3490280Y-1873820D01*
X3490280Y-1863820D01*
G37*
G36*
X3546000Y-1859820D02*
G01*
X3537600Y-1863820D01*
X3537600Y-1873820D01*
X3546000Y-1877820D01*
G37*
G36*
X2931880Y-1859820D02*
G01*
X2931880Y-1877820D01*
X2940280Y-1873820D01*
X2940280Y-1863820D01*
G37*
G36*
X2996000Y-1859820D02*
G01*
X2987600Y-1863820D01*
X2987600Y-1873820D01*
X2996000Y-1877820D01*
G37*
G36*
X2381880Y-1859820D02*
G01*
X2381880Y-1877820D01*
X2390280Y-1873820D01*
X2390280Y-1863820D01*
G37*
G36*
X2446000Y-1859820D02*
G01*
X2437600Y-1863820D01*
X2437600Y-1873820D01*
X2446000Y-1877820D01*
G37*
G36*
X1831879Y-1859820D02*
G01*
X1831879Y-1877820D01*
X1840280Y-1873820D01*
X1840280Y-1863820D01*
G37*
G36*
X1896000Y-1859820D02*
G01*
X1887600Y-1863820D01*
X1887600Y-1873820D01*
X1896000Y-1877820D01*
G37*
G36*
X1281879Y-1859820D02*
G01*
X1281879Y-1877820D01*
X1290280Y-1873820D01*
X1290280Y-1863820D01*
G37*
G36*
X1346000Y-1859820D02*
G01*
X1337600Y-1863820D01*
X1337600Y-1873820D01*
X1346000Y-1877820D01*
G37*
G36*
X2678500Y-311760D02*
G01*
X2663500Y-332180D01*
X2663500Y-346320D01*
X2678500Y-336760D01*
G37*
D10*
X378939Y-1883818D02*
G01*
X378939Y-1748818D01*
X543939Y-1583818D01*
X738939Y-1583818D01*
X3003939Y-2208818D02*
G01*
X3553939Y-2208818D01*
X2453939Y-2208818D02*
G01*
X3003939Y-2208818D01*
X1903939Y-2208818D02*
G01*
X2453939Y-2208818D01*
X1353939Y-2208818D02*
G01*
X1903939Y-2208818D01*
X803939Y-2208818D02*
G01*
X1353939Y-2208818D01*
X803939Y-1868818D02*
G01*
X723939Y-1868818D01*
X1903939Y-1868818D02*
G01*
X1823939Y-1868818D01*
X2453939Y-1868818D02*
G01*
X2373939Y-1868818D01*
X3003939Y-1868818D02*
G01*
X2923939Y-1868818D01*
X3553939Y-1868818D02*
G01*
X3473939Y-1868818D01*
X1273939Y-1868818D02*
G01*
X1353939Y-1868818D01*
X203939Y-2208818D02*
G01*
X233939Y-2208818D01*
X458939Y-1983818D01*
X708939Y-1738818D02*
G01*
X703939Y-1738818D01*
X458939Y-1983818D01*
X698939Y-2093818D02*
G01*
X698939Y-2133818D01*
X773939Y-2208818D01*
X803939Y-2208818D01*
X2333939Y-1688818D02*
G01*
X2433939Y-1688818D01*
X693939Y-1623818D02*
G01*
X968939Y-1623818D01*
X1028939Y-1683818D01*
X1688939Y-1683818D01*
X1783939Y-1778818D01*
X2543939Y-1778818D01*
X2668939Y-1653818D01*
X1248939Y-1618818D02*
G01*
X1248939Y-1648818D01*
X1263939Y-1663818D01*
X1703939Y-1663818D01*
X1798939Y-1758818D01*
X2533939Y-1758818D01*
X2638939Y-1653818D01*
X2343939Y-1623818D02*
G01*
X2373939Y-1623818D01*
X2888939Y-1733818D02*
G01*
X2678939Y-1943818D01*
X618939Y-1943818D01*
X488939Y-2073818D01*
X488939Y-2258818D01*
X1798939Y-1623818D02*
G01*
X1798939Y-1723818D01*
X1813939Y-1738818D01*
X2523939Y-1738818D01*
X2603939Y-1658818D01*
X1883939Y-1693818D02*
G01*
X1883939Y-1653818D01*
X228939Y-2483818D02*
G01*
X378939Y-2483818D01*
X523939Y-2338818D01*
X523939Y-2078818D01*
X633939Y-1968818D01*
X2688939Y-1968818D01*
X2913939Y-1743818D01*
X738939Y-1583818D02*
G01*
X1253939Y-1068818D01*
X1253939Y-948818D01*
X2133939Y-1423818D02*
G01*
X2133939Y-1488818D01*
X2333939Y-1688818D01*
X2668939Y-1653818D02*
G01*
X2668939Y-1403818D01*
X2638939Y-1653818D02*
G01*
X2638939Y-1448818D01*
X2373939Y-1623818D02*
G01*
X2553939Y-1443818D01*
X2578939Y-1443818D01*
X2618939Y-1403818D01*
X2668939Y-1058818D02*
G01*
X2838939Y-1058818D01*
X2888939Y-1108818D01*
X2888939Y-1733818D01*
X2603939Y-1658818D02*
G01*
X2603939Y-1473818D01*
X1883939Y-1653818D02*
G01*
X2083939Y-1453818D01*
X2083939Y-1393818D01*
X2913939Y-1743818D02*
G01*
X2913939Y-1098818D01*
X2848939Y-1033818D01*
X2768939Y-1033818D01*
X2703939Y-588818D02*
G01*
X2703939Y-598818D01*
X2753939Y-648818D01*
X2985951Y-1223818D02*
G01*
X2985951Y-1230830D01*
X3095122Y-1340000D01*
X3314989Y-1340000D01*
X2713939Y-513818D02*
G01*
X2733939Y-513818D01*
X2783939Y-463818D01*
X2858939Y-463818D01*
X3008939Y-313818D01*
D11*
X1953939Y-898818D02*
G01*
X1953939Y-873818D01*
X2383939Y-443818D01*
D10*
X2374229Y-978818D02*
G01*
X2368939Y-978818D01*
X2343939Y-1003818D01*
X2343939Y-1054965D02*
G01*
X2343939Y-1273818D01*
X2398939Y-1328818D01*
X1883939Y-1263818D02*
G01*
X1968939Y-1178818D01*
X1968939Y-1078818D01*
X1993939Y-1053818D01*
X2258939Y-1053818D01*
X2458939Y-733818D02*
G01*
X2458939Y-928818D01*
X2408939Y-978818D01*
X1948939Y-978818D01*
X1893939Y-1033818D01*
X1893939Y-1153818D01*
X1783939Y-1263818D01*
X2413939Y-1088818D02*
G01*
X2413939Y-1183816D01*
X2489612Y-1259488D01*
X2413939Y-733818D02*
G01*
X2413939Y-895900D01*
X1833939Y-1263818D02*
G01*
X1928939Y-1168818D01*
X1928939Y-1033818D01*
X1958939Y-1003818D01*
X2263939Y-1003818D01*
X2498939Y-1188818D02*
G01*
X2568939Y-1258818D01*
X2368939Y-733818D02*
G01*
X2373939Y-738818D01*
X2373939Y-938818D01*
X1858939Y-558818D02*
G01*
X1858939Y-553818D01*
X1998939Y-413818D01*
X2638939Y-588818D02*
G01*
X2690036Y-639915D01*
X2198939Y-1188728D02*
G01*
X2183939Y-1203728D01*
X2183939Y-1263818D01*
X2233939Y-1188760D02*
G01*
X2233939Y-1263944D01*
X1703939Y-1189128D02*
G01*
X1703939Y-1264128D01*
X2848939Y-1588818D02*
G01*
X2863939Y-1573818D01*
X2863939Y-1228818D01*
X2818939Y-1183818D01*
X2813939Y-313818D02*
G01*
X2763939Y-263818D01*
X2638939Y-263818D01*
X2458939Y-443818D01*
X2383939Y-443818D01*
X2713900Y-313800D02*
G01*
X2688900Y-313800D01*
X2408900Y-593800D01*
X2713939Y-413818D02*
G01*
X2648939Y-413818D01*
X2513939Y-548818D01*
X2483939Y-578818D01*
X2813939Y-413818D02*
G01*
X2798939Y-413818D01*
X2748939Y-463818D01*
X2683939Y-463818D01*
X2413939Y-733818D01*
D11*
X1343939Y-898818D02*
G01*
X1953939Y-898818D01*
D10*
X1973939Y-1028818D02*
G01*
X2413939Y-1028818D01*
X2483939Y-958818D01*
X2573939Y-958818D01*
X883939Y-1578818D02*
G01*
X983939Y-1478818D01*
X1963939Y-1478818D01*
X1983939Y-1458818D01*
X1983939Y-1393818D01*
X1333939Y-1563818D02*
G01*
X1388939Y-1508818D01*
X1978939Y-1508818D01*
X2033939Y-1453818D01*
X2033939Y-1393818D01*
X2718939Y-1033888D02*
G01*
X2718939Y-668818D01*
X2638939Y-588818D01*
X3273939Y-1493818D02*
G01*
X3248939Y-1493818D01*
X2985938Y-1230817D01*
X2985938Y-1223818D01*
X1003900Y-968800D02*
G01*
X1003900Y-928800D01*
X1088900Y-843800D01*
X1278900Y-843800D01*
X1358299Y-764499D01*
X1358299Y-344499D01*
X1053900Y-968800D02*
G01*
X1053900Y-933800D01*
X1113900Y-873800D01*
X1293900Y-873800D01*
X1397700Y-770000D01*
X1397700Y-245999D01*
X1343900Y-898800D02*
G01*
X1358900Y-898800D01*
X1437100Y-820700D01*
X1437100Y-344499D01*
D12*
G01*
X1476350Y-246030D03*
G01*
X1437049Y-344529D03*
G01*
X1318950Y-246030D03*
G01*
X1358249Y-344529D03*
G01*
X1397650Y-246030D03*
G01*
X1279549Y-344529D03*
D13*
G01*
X2813940Y-513820D03*
G01*
X2713940Y-513820D03*
G01*
X2813940Y-413820D03*
G01*
X2713940Y-413820D03*
G01*
X2813940Y-313820D03*
D14*
G01*
X2713940Y-313820D03*
D15*
G01*
X3238180Y-314960D03*
G01*
X3769679Y-314960D03*
D16*
G01*
X3362200Y-551179D03*
G01*
X3645659Y-551179D03*
D13*
G01*
X3008940Y-313820D03*
D14*
G01*
X3108940Y-313820D03*
D17*
G01*
X403539Y-447049D03*
G01*
X305120Y-447049D03*
G01*
X305120Y-525790D03*
G01*
X403539Y-525790D03*
D18*
G01*
X595129Y-340360D03*
G01*
X113530Y-340360D03*
D19*
G01*
X112210Y-2639760D03*
G01*
X250000Y-2639760D03*
G01*
X387800Y-2639760D03*
G01*
X525590Y-2639760D03*
D20*
G01*
X2868100Y-2639760D03*
D21*
G01*
X3005910Y-2639760D03*
G01*
X3143699Y-2639760D03*
G01*
X3281499Y-2639760D03*
G01*
X3419290Y-2639760D03*
G01*
X3557089Y-2639760D03*
G01*
X3694880Y-2639760D03*
G01*
X3832680Y-2639760D03*
D20*
G01*
X1765739Y-2639760D03*
D21*
G01*
X1903549Y-2639760D03*
G01*
X2041340Y-2639760D03*
G01*
X2179139Y-2639760D03*
G01*
X2316930Y-2639760D03*
G01*
X2454729Y-2639760D03*
G01*
X2592520Y-2639760D03*
G01*
X2730320Y-2639760D03*
D20*
G01*
X663380Y-2639760D03*
D21*
G01*
X801189Y-2639760D03*
G01*
X938980Y-2639760D03*
G01*
X1076769Y-2639760D03*
G01*
X1214570Y-2639760D03*
G01*
X1352359Y-2639760D03*
G01*
X1490159Y-2639760D03*
G01*
X1627960Y-2639760D03*
D22*
G01*
X3596999Y-1092010D03*
G01*
X3596999Y-1042010D03*
G01*
X3596999Y-992010D03*
G01*
X3546999Y-1092010D03*
G01*
X3546999Y-1042010D03*
G01*
X3546999Y-992010D03*
G01*
X3496999Y-1192010D03*
G01*
X3496999Y-1142010D03*
G01*
X3496999Y-1092010D03*
G01*
X3496999Y-1042010D03*
G01*
X3496999Y-992010D03*
G01*
X3446999Y-1092010D03*
G01*
X3446999Y-1042010D03*
G01*
X3446999Y-992010D03*
G01*
X3396999Y-1092010D03*
G01*
X3396999Y-1042010D03*
G01*
X3396999Y-992010D03*
G01*
X3346999Y-1092010D03*
G01*
X3346999Y-1042010D03*
G01*
X3346999Y-992010D03*
G01*
X3296999Y-1042010D03*
G01*
X3296999Y-992010D03*
G01*
X3246999Y-1042010D03*
G01*
X3246999Y-992010D03*
D23*
G01*
X3294989Y-1135000D03*
D22*
G01*
X3369989Y-335000D03*
G01*
X3369989Y-285000D03*
G01*
X3369989Y-235000D03*
G01*
X3419989Y-235000D03*
G01*
X3419989Y-285000D03*
G01*
X3419989Y-335000D03*
G01*
X3469989Y-335000D03*
G01*
X3469989Y-285000D03*
G01*
X3469989Y-235000D03*
G01*
X3519989Y-235000D03*
G01*
X3519989Y-285000D03*
G01*
X3519989Y-335000D03*
G01*
X3569989Y-335000D03*
G01*
X3569989Y-285000D03*
G01*
X3569989Y-235000D03*
G01*
X3619989Y-235000D03*
G01*
X3619989Y-285000D03*
G01*
X3619989Y-335000D03*
D23*
G01*
X3273940Y-1493820D03*
G01*
X2718940Y-1033890D03*
G01*
X2573940Y-958820D03*
G01*
X3314989Y-1340000D03*
G01*
X2985950Y-1223820D03*
G01*
X1053940Y-968820D03*
G01*
X1003940Y-968820D03*
G01*
X703939Y-1493820D03*
G01*
X703939Y-1543820D03*
G01*
X553939Y-1543820D03*
G01*
X603939Y-1543820D03*
G01*
X653939Y-1543820D03*
G01*
X653939Y-1493820D03*
G01*
X603939Y-1493820D03*
G01*
X553939Y-1493820D03*
G01*
X1953940Y-898820D03*
G01*
X2398940Y-1328820D03*
G01*
X2343940Y-1054969D03*
G01*
X2343940Y-1003820D03*
G01*
X1783940Y-1263820D03*
G01*
X2258940Y-1053820D03*
G01*
X2413940Y-1088820D03*
G01*
X2489610Y-1259490D03*
G01*
X2263940Y-1003820D03*
G01*
X2413940Y-895900D03*
G01*
X1833940Y-1263820D03*
G01*
X2498940Y-1188820D03*
G01*
X2568940Y-1258820D03*
G01*
X1883940Y-1263820D03*
G01*
X2373940Y-938820D03*
G01*
X3748940Y-1758820D03*
G01*
X3268940Y-1678820D03*
G01*
X3293940Y-1858820D03*
G01*
X2733940Y-1808820D03*
G01*
X2718940Y-1678820D03*
G01*
X2173940Y-1678820D03*
G01*
X2193940Y-1858820D03*
G01*
X1028940Y-1618820D03*
G01*
X1578940Y-1623820D03*
G01*
X1643940Y-1853820D03*
G01*
X1088940Y-1808820D03*
D22*
G01*
X311750Y-1222779D03*
G01*
X272379Y-1222779D03*
G01*
X233009Y-1222779D03*
G01*
X193640Y-1222779D03*
G01*
X351120Y-1262150D03*
G01*
X311750Y-1262150D03*
G01*
X272379Y-1262150D03*
G01*
X233009Y-1262150D03*
G01*
X193640Y-1262150D03*
G01*
X154270Y-1262150D03*
G01*
X351120Y-1301520D03*
G01*
X311750Y-1301520D03*
G01*
X272379Y-1301520D03*
G01*
X233009Y-1301520D03*
G01*
X193640Y-1301520D03*
G01*
X154270Y-1301520D03*
G01*
X351120Y-1340889D03*
G01*
X311750Y-1340889D03*
G01*
X272379Y-1340889D03*
G01*
X233009Y-1340889D03*
G01*
X193640Y-1340889D03*
G01*
X154270Y-1340889D03*
G01*
X311750Y-1380259D03*
G01*
X272379Y-1380259D03*
G01*
X233009Y-1380259D03*
G01*
X193640Y-1380259D03*
D23*
G01*
X260940Y-2045819D03*
G01*
X260940Y-1995819D03*
G01*
X210940Y-2095819D03*
G01*
X210940Y-2045819D03*
G01*
X210940Y-1995819D03*
G01*
X160940Y-2145819D03*
G01*
X160940Y-2095819D03*
G01*
X160940Y-2045819D03*
G01*
X160940Y-1995819D03*
G01*
X110940Y-2145819D03*
G01*
X110940Y-2095819D03*
G01*
X110940Y-2045819D03*
G01*
X110940Y-1995819D03*
G01*
X60940Y-2145819D03*
G01*
X60940Y-2095819D03*
G01*
X60940Y-2045819D03*
G01*
X3244989Y-1135000D03*
G01*
X1093940Y-948820D03*
G01*
X1028940Y-848820D03*
G01*
X1003940Y-1273820D03*
G01*
X953940Y-1273820D03*
G01*
X2483940Y-578820D03*
G01*
X2408940Y-593820D03*
G01*
X2383940Y-443820D03*
G01*
X2458940Y-733820D03*
G01*
X2413940Y-733820D03*
G01*
X2368940Y-733820D03*
G01*
X1973940Y-1028820D03*
G01*
X2818940Y-1183820D03*
G01*
X2603940Y-1473820D03*
G01*
X2638940Y-1448820D03*
G01*
X2668940Y-1403820D03*
G01*
X2618940Y-1403820D03*
G01*
X693939Y-1623820D03*
G01*
X883940Y-1578820D03*
G01*
X1248940Y-1618820D03*
G01*
X1333940Y-1563820D03*
G01*
X2133940Y-1423820D03*
G01*
X1983940Y-1393820D03*
G01*
X2033940Y-1393820D03*
G01*
X2083940Y-1393820D03*
G01*
X1883940Y-1693820D03*
G01*
X1798940Y-1623820D03*
G01*
X2433940Y-1688820D03*
G01*
X2343940Y-1623820D03*
G01*
X2848940Y-1588820D03*
G01*
X2233940Y-1263949D03*
G01*
X2233940Y-1188760D03*
G01*
X1343940Y-898820D03*
G01*
X1253940Y-948820D03*
G01*
X698939Y-2093820D03*
G01*
X2768940Y-1033820D03*
G01*
X2668940Y-1058820D03*
G01*
X2638940Y-588820D03*
G01*
X2753940Y-648820D03*
G01*
X2703940Y-588820D03*
G01*
X708939Y-1738820D03*
G01*
X2183940Y-1263820D03*
G01*
X2183940Y-1188820D03*
G01*
X1703940Y-1264130D03*
G01*
X1703940Y-1189130D03*
G01*
X1725000Y-140000D03*
G01*
X2448940Y-378820D03*
G01*
X2308940Y-423820D03*
G01*
X2013940Y-763820D03*
G01*
X2783940Y-868820D03*
G01*
X2458940Y-1048820D03*
G01*
X2108940Y-848820D03*
G01*
X1808940Y-1053820D03*
G01*
X1833940Y-803820D03*
G01*
X1968940Y-718820D03*
G01*
X528939Y-1813820D03*
G01*
X528939Y-1678820D03*
G01*
X463939Y-1858820D03*
G01*
X458939Y-1983820D03*
G01*
X488939Y-2258820D03*
G01*
X203939Y-2208820D03*
G01*
X228939Y-2483820D03*
G01*
X378939Y-1883820D03*
G01*
X1998940Y-413820D03*
G01*
X1858940Y-558820D03*
G01*
X838940Y-1298820D03*
G01*
X838940Y-1338820D03*
G01*
X838940Y-1258820D03*
G01*
X3493940Y-2003820D03*
G01*
X3493940Y-2038820D03*
G01*
X3493940Y-2073820D03*
G01*
X3553940Y-2073820D03*
G01*
X3553940Y-2038820D03*
G01*
X3553940Y-2003820D03*
G01*
X3608940Y-2073820D03*
G01*
X3608940Y-2038820D03*
G01*
X3608940Y-2003820D03*
G01*
X2943940Y-2003820D03*
G01*
X2943940Y-2038820D03*
G01*
X2943940Y-2073820D03*
G01*
X3003940Y-2073820D03*
G01*
X3003940Y-2038820D03*
G01*
X3003940Y-2003820D03*
G01*
X3058940Y-2073820D03*
G01*
X3058940Y-2038820D03*
G01*
X3058940Y-2003820D03*
G01*
X2393940Y-2003820D03*
G01*
X2393940Y-2038820D03*
G01*
X2393940Y-2073820D03*
G01*
X2453940Y-2073820D03*
G01*
X2453940Y-2038820D03*
G01*
X2453940Y-2003820D03*
G01*
X2508940Y-2073820D03*
G01*
X2508940Y-2038820D03*
G01*
X2508940Y-2003820D03*
G01*
X1843940Y-2003820D03*
G01*
X1843940Y-2038820D03*
G01*
X1843940Y-2073820D03*
G01*
X1903940Y-2073820D03*
G01*
X1903940Y-2038820D03*
G01*
X1903940Y-2003820D03*
G01*
X1958940Y-2073820D03*
G01*
X1958940Y-2038820D03*
G01*
X1958940Y-2003820D03*
G01*
X1293940Y-2003820D03*
G01*
X1293940Y-2038820D03*
G01*
X1293940Y-2073820D03*
G01*
X1353940Y-2073820D03*
G01*
X1353940Y-2038820D03*
G01*
X1353940Y-2003820D03*
G01*
X1408940Y-2073820D03*
G01*
X1408940Y-2038820D03*
G01*
X1408940Y-2003820D03*
G01*
X863940Y-2003820D03*
G01*
X863940Y-2038820D03*
G01*
X863940Y-2073820D03*
G01*
X803940Y-2003820D03*
G01*
X803940Y-2038820D03*
G01*
X803940Y-2073820D03*
G01*
X748939Y-2073820D03*
G01*
X748939Y-2003820D03*
G01*
X748939Y-2038820D03*
G01*
X3553940Y-2208820D03*
G01*
X3003940Y-2208820D03*
G01*
X2453940Y-2208820D03*
G01*
X1903940Y-2208820D03*
G01*
X1353940Y-2208820D03*
G01*
X803940Y-2208820D03*
G01*
X723939Y-1868820D03*
G01*
X803940Y-1868820D03*
G01*
X3473940Y-1868820D03*
G01*
X3553940Y-1868820D03*
G01*
X2923940Y-1868820D03*
G01*
X3003940Y-1868820D03*
G01*
X2373940Y-1868820D03*
G01*
X2453940Y-1868820D03*
G01*
X1823940Y-1868820D03*
G01*
X1903940Y-1868820D03*
G01*
X1273940Y-1868820D03*
G01*
X1353940Y-1868820D03*
M02*
